G04 #@! TF.GenerationSoftware,KiCad,Pcbnew,8.0.01-1-dev-1e03266dfe*
G04 #@! TF.CreationDate,2024-03-02T01:48:17-08:00*
G04 #@! TF.ProjectId,sfh7074_breakoutboard,73666837-3037-4345-9f62-7265616b6f75,rev?*
G04 #@! TF.SameCoordinates,Original*
G04 #@! TF.FileFunction,Copper,L2,Bot*
G04 #@! TF.FilePolarity,Positive*
%FSLAX46Y46*%
G04 Gerber Fmt 4.6, Leading zero omitted, Abs format (unit mm)*
G04 Created by KiCad (PCBNEW 8.0.01-1-dev-1e03266dfe) date 2024-03-02 01:48:17*
%MOMM*%
%LPD*%
G01*
G04 APERTURE LIST*
G04 #@! TA.AperFunction,ComponentPad*
%ADD10R,1.700000X1.700000*%
G04 #@! TD*
G04 #@! TA.AperFunction,ComponentPad*
%ADD11O,1.700000X1.700000*%
G04 #@! TD*
G04 #@! TA.AperFunction,ComponentPad*
%ADD12R,1.000000X1.000000*%
G04 #@! TD*
G04 #@! TA.AperFunction,ViaPad*
%ADD13C,0.800000*%
G04 #@! TD*
G04 #@! TA.AperFunction,Conductor*
%ADD14C,0.250000*%
G04 #@! TD*
G04 APERTURE END LIST*
D10*
X24000000Y-21000000D03*
D11*
X24000000Y-23540000D03*
X24000000Y-26080000D03*
X24000000Y-28620000D03*
X24000000Y-31160000D03*
X24000000Y-33700000D03*
X24000000Y-36240000D03*
D10*
X39500000Y-24650000D03*
D11*
X39500000Y-27190000D03*
X39500000Y-29730000D03*
X39500000Y-32270000D03*
D12*
X41500000Y-41000000D03*
X41500000Y-16750000D03*
X22750000Y-41000000D03*
X22500000Y-16750000D03*
D13*
X32250000Y-19500000D03*
X36250000Y-23250000D03*
X36250000Y-27000000D03*
D14*
X36250000Y-27000000D02*
X36250000Y-23250000D01*
G04 #@! TA.AperFunction,Conductor*
G36*
X44182539Y-14530185D02*
G01*
X44228294Y-14582989D01*
X44239500Y-14634500D01*
X44239500Y-42865500D01*
X44219815Y-42932539D01*
X44167011Y-42978294D01*
X44115500Y-42989500D01*
X19884500Y-42989500D01*
X19817461Y-42969815D01*
X19771706Y-42917011D01*
X19760500Y-42865500D01*
X19760500Y-41548654D01*
X21741500Y-41548654D01*
X21748011Y-41609202D01*
X21748011Y-41609204D01*
X21799111Y-41746204D01*
X21886739Y-41863261D01*
X22003796Y-41950889D01*
X22140799Y-42001989D01*
X22168050Y-42004918D01*
X22201345Y-42008499D01*
X22201362Y-42008500D01*
X23298638Y-42008500D01*
X23298654Y-42008499D01*
X23325692Y-42005591D01*
X23359201Y-42001989D01*
X23496204Y-41950889D01*
X23613261Y-41863261D01*
X23700889Y-41746204D01*
X23751989Y-41609201D01*
X23755591Y-41575692D01*
X23758499Y-41548654D01*
X40491500Y-41548654D01*
X40498011Y-41609202D01*
X40498011Y-41609204D01*
X40549111Y-41746204D01*
X40636739Y-41863261D01*
X40753796Y-41950889D01*
X40890799Y-42001989D01*
X40918050Y-42004918D01*
X40951345Y-42008499D01*
X40951362Y-42008500D01*
X42048638Y-42008500D01*
X42048654Y-42008499D01*
X42075692Y-42005591D01*
X42109201Y-42001989D01*
X42246204Y-41950889D01*
X42363261Y-41863261D01*
X42450889Y-41746204D01*
X42501989Y-41609201D01*
X42505591Y-41575692D01*
X42508499Y-41548654D01*
X42508500Y-41548637D01*
X42508500Y-40451362D01*
X42508499Y-40451345D01*
X42505157Y-40420270D01*
X42501989Y-40390799D01*
X42450889Y-40253796D01*
X42363261Y-40136739D01*
X42246204Y-40049111D01*
X42109203Y-39998011D01*
X42048654Y-39991500D01*
X42048638Y-39991500D01*
X40951362Y-39991500D01*
X40951345Y-39991500D01*
X40890797Y-39998011D01*
X40890795Y-39998011D01*
X40753795Y-40049111D01*
X40636739Y-40136739D01*
X40549111Y-40253795D01*
X40498011Y-40390795D01*
X40498011Y-40390797D01*
X40491500Y-40451345D01*
X40491500Y-41548654D01*
X23758499Y-41548654D01*
X23758500Y-41548637D01*
X23758500Y-40451362D01*
X23758499Y-40451345D01*
X23755157Y-40420270D01*
X23751989Y-40390799D01*
X23700889Y-40253796D01*
X23613261Y-40136739D01*
X23496204Y-40049111D01*
X23359203Y-39998011D01*
X23298654Y-39991500D01*
X23298638Y-39991500D01*
X22201362Y-39991500D01*
X22201345Y-39991500D01*
X22140797Y-39998011D01*
X22140795Y-39998011D01*
X22003795Y-40049111D01*
X21886739Y-40136739D01*
X21799111Y-40253795D01*
X21748011Y-40390795D01*
X21748011Y-40390797D01*
X21741500Y-40451345D01*
X21741500Y-41548654D01*
X19760500Y-41548654D01*
X19760500Y-36240005D01*
X22636844Y-36240005D01*
X22655434Y-36464359D01*
X22655436Y-36464371D01*
X22710703Y-36682614D01*
X22801140Y-36888792D01*
X22924276Y-37077265D01*
X22924284Y-37077276D01*
X23076756Y-37242902D01*
X23076760Y-37242906D01*
X23254424Y-37381189D01*
X23254425Y-37381189D01*
X23254427Y-37381191D01*
X23381135Y-37449761D01*
X23452426Y-37488342D01*
X23665365Y-37561444D01*
X23887431Y-37598500D01*
X24112569Y-37598500D01*
X24334635Y-37561444D01*
X24547574Y-37488342D01*
X24745576Y-37381189D01*
X24923240Y-37242906D01*
X25075722Y-37077268D01*
X25198860Y-36888791D01*
X25289296Y-36682616D01*
X25344564Y-36464368D01*
X25363156Y-36240000D01*
X25344564Y-36015632D01*
X25289296Y-35797384D01*
X25198860Y-35591209D01*
X25075722Y-35402732D01*
X25075719Y-35402729D01*
X25075715Y-35402723D01*
X24923243Y-35237097D01*
X24923238Y-35237092D01*
X24745577Y-35098812D01*
X24745578Y-35098812D01*
X24745576Y-35098811D01*
X24709070Y-35079055D01*
X24659479Y-35029836D01*
X24644371Y-34961619D01*
X24668541Y-34896064D01*
X24709070Y-34860945D01*
X24709084Y-34860936D01*
X24745576Y-34841189D01*
X24923240Y-34702906D01*
X25075722Y-34537268D01*
X25198860Y-34348791D01*
X25289296Y-34142616D01*
X25344564Y-33924368D01*
X25363156Y-33700000D01*
X25357231Y-33628500D01*
X25344565Y-33475640D01*
X25344563Y-33475628D01*
X25293227Y-33272907D01*
X25289296Y-33257384D01*
X25198860Y-33051209D01*
X25075722Y-32862732D01*
X25075719Y-32862729D01*
X25075715Y-32862723D01*
X24923243Y-32697097D01*
X24923238Y-32697092D01*
X24745577Y-32558812D01*
X24745578Y-32558812D01*
X24745576Y-32558811D01*
X24709070Y-32539055D01*
X24659479Y-32489836D01*
X24644371Y-32421619D01*
X24668541Y-32356064D01*
X24709070Y-32320945D01*
X24709084Y-32320936D01*
X24745576Y-32301189D01*
X24785641Y-32270005D01*
X38136844Y-32270005D01*
X38155434Y-32494359D01*
X38155436Y-32494371D01*
X38210703Y-32712614D01*
X38301140Y-32918792D01*
X38424276Y-33107265D01*
X38424284Y-33107276D01*
X38576756Y-33272902D01*
X38576760Y-33272906D01*
X38754424Y-33411189D01*
X38754425Y-33411189D01*
X38754427Y-33411191D01*
X38873497Y-33475628D01*
X38952426Y-33518342D01*
X39165365Y-33591444D01*
X39387431Y-33628500D01*
X39612569Y-33628500D01*
X39834635Y-33591444D01*
X40047574Y-33518342D01*
X40245576Y-33411189D01*
X40423240Y-33272906D01*
X40575722Y-33107268D01*
X40698860Y-32918791D01*
X40789296Y-32712616D01*
X40844564Y-32494368D01*
X40848103Y-32451658D01*
X40863156Y-32270005D01*
X40863156Y-32269994D01*
X40844565Y-32045640D01*
X40844563Y-32045628D01*
X40789296Y-31827385D01*
X40781140Y-31808792D01*
X40698860Y-31621209D01*
X40686711Y-31602614D01*
X40575723Y-31432734D01*
X40575715Y-31432723D01*
X40423243Y-31267097D01*
X40423238Y-31267092D01*
X40245577Y-31128812D01*
X40245578Y-31128812D01*
X40245576Y-31128811D01*
X40209070Y-31109055D01*
X40159479Y-31059836D01*
X40144371Y-30991619D01*
X40168541Y-30926064D01*
X40209070Y-30890945D01*
X40209084Y-30890936D01*
X40245576Y-30871189D01*
X40423240Y-30732906D01*
X40575722Y-30567268D01*
X40698860Y-30378791D01*
X40789296Y-30172616D01*
X40844564Y-29954368D01*
X40848103Y-29911658D01*
X40863156Y-29730005D01*
X40863156Y-29729994D01*
X40844565Y-29505640D01*
X40844563Y-29505628D01*
X40789296Y-29287385D01*
X40781140Y-29268792D01*
X40698860Y-29081209D01*
X40686711Y-29062614D01*
X40575723Y-28892734D01*
X40575715Y-28892723D01*
X40423243Y-28727097D01*
X40423238Y-28727092D01*
X40245577Y-28588812D01*
X40245578Y-28588812D01*
X40245576Y-28588811D01*
X40209070Y-28569055D01*
X40159479Y-28519836D01*
X40144371Y-28451619D01*
X40168541Y-28386064D01*
X40209070Y-28350945D01*
X40209084Y-28350936D01*
X40245576Y-28331189D01*
X40423240Y-28192906D01*
X40575722Y-28027268D01*
X40698860Y-27838791D01*
X40789296Y-27632616D01*
X40844564Y-27414368D01*
X40848112Y-27371549D01*
X40863156Y-27190005D01*
X40863156Y-27189994D01*
X40844565Y-26965640D01*
X40844563Y-26965628D01*
X40789296Y-26747385D01*
X40781140Y-26728792D01*
X40698860Y-26541209D01*
X40686711Y-26522614D01*
X40637291Y-26446970D01*
X40575722Y-26352732D01*
X40575719Y-26352729D01*
X40575715Y-26352723D01*
X40430510Y-26194991D01*
X40399587Y-26132337D01*
X40407447Y-26062911D01*
X40451594Y-26008755D01*
X40478405Y-25994827D01*
X40558584Y-25964920D01*
X40596204Y-25950889D01*
X40713261Y-25863261D01*
X40800889Y-25746204D01*
X40851989Y-25609201D01*
X40855591Y-25575692D01*
X40858499Y-25548654D01*
X40858500Y-25548637D01*
X40858500Y-23751362D01*
X40858499Y-23751345D01*
X40855157Y-23720270D01*
X40851989Y-23690799D01*
X40800889Y-23553796D01*
X40713261Y-23436739D01*
X40596204Y-23349111D01*
X40459203Y-23298011D01*
X40398654Y-23291500D01*
X40398638Y-23291500D01*
X38601362Y-23291500D01*
X38601345Y-23291500D01*
X38540797Y-23298011D01*
X38540795Y-23298011D01*
X38403795Y-23349111D01*
X38286739Y-23436739D01*
X38199111Y-23553795D01*
X38148011Y-23690795D01*
X38148011Y-23690797D01*
X38141500Y-23751345D01*
X38141500Y-25548654D01*
X38148011Y-25609202D01*
X38148011Y-25609204D01*
X38199111Y-25746204D01*
X38286739Y-25863261D01*
X38403796Y-25950889D01*
X38455737Y-25970262D01*
X38521595Y-25994827D01*
X38577528Y-26036699D01*
X38601944Y-26102163D01*
X38587092Y-26170436D01*
X38569490Y-26194991D01*
X38424279Y-26352730D01*
X38424276Y-26352734D01*
X38301140Y-26541207D01*
X38210703Y-26747385D01*
X38155436Y-26965628D01*
X38155434Y-26965640D01*
X38136844Y-27189994D01*
X38136844Y-27190005D01*
X38155434Y-27414359D01*
X38155436Y-27414371D01*
X38210703Y-27632614D01*
X38301140Y-27838792D01*
X38424276Y-28027265D01*
X38424284Y-28027276D01*
X38576756Y-28192902D01*
X38576760Y-28192906D01*
X38754424Y-28331189D01*
X38754429Y-28331191D01*
X38754431Y-28331193D01*
X38790930Y-28350946D01*
X38840520Y-28400165D01*
X38855628Y-28468382D01*
X38831457Y-28533937D01*
X38790930Y-28569054D01*
X38754431Y-28588806D01*
X38754422Y-28588812D01*
X38576761Y-28727092D01*
X38576756Y-28727097D01*
X38424284Y-28892723D01*
X38424276Y-28892734D01*
X38301140Y-29081207D01*
X38210703Y-29287385D01*
X38155436Y-29505628D01*
X38155434Y-29505640D01*
X38136844Y-29729994D01*
X38136844Y-29730005D01*
X38155434Y-29954359D01*
X38155436Y-29954371D01*
X38210703Y-30172614D01*
X38301140Y-30378792D01*
X38424276Y-30567265D01*
X38424284Y-30567276D01*
X38576756Y-30732902D01*
X38576760Y-30732906D01*
X38754424Y-30871189D01*
X38754429Y-30871191D01*
X38754431Y-30871193D01*
X38790930Y-30890946D01*
X38840520Y-30940165D01*
X38855628Y-31008382D01*
X38831457Y-31073937D01*
X38790930Y-31109054D01*
X38754431Y-31128806D01*
X38754422Y-31128812D01*
X38576761Y-31267092D01*
X38576756Y-31267097D01*
X38424284Y-31432723D01*
X38424276Y-31432734D01*
X38301140Y-31621207D01*
X38210703Y-31827385D01*
X38155436Y-32045628D01*
X38155434Y-32045640D01*
X38136844Y-32269994D01*
X38136844Y-32270005D01*
X24785641Y-32270005D01*
X24923240Y-32162906D01*
X25075722Y-31997268D01*
X25198860Y-31808791D01*
X25289296Y-31602616D01*
X25344564Y-31384368D01*
X25363156Y-31160000D01*
X25360571Y-31128809D01*
X25344565Y-30935640D01*
X25344563Y-30935628D01*
X25293227Y-30732907D01*
X25289296Y-30717384D01*
X25198860Y-30511209D01*
X25075722Y-30322732D01*
X25075719Y-30322729D01*
X25075715Y-30322723D01*
X24923243Y-30157097D01*
X24923238Y-30157092D01*
X24745577Y-30018812D01*
X24745578Y-30018812D01*
X24745576Y-30018811D01*
X24709070Y-29999055D01*
X24659479Y-29949836D01*
X24644371Y-29881619D01*
X24668541Y-29816064D01*
X24709070Y-29780945D01*
X24709084Y-29780936D01*
X24745576Y-29761189D01*
X24923240Y-29622906D01*
X25075722Y-29457268D01*
X25198860Y-29268791D01*
X25289296Y-29062616D01*
X25344564Y-28844368D01*
X25363156Y-28620000D01*
X25360571Y-28588809D01*
X25344565Y-28395640D01*
X25344563Y-28395628D01*
X25293227Y-28192907D01*
X25289296Y-28177384D01*
X25198860Y-27971209D01*
X25075722Y-27782732D01*
X25075719Y-27782729D01*
X25075715Y-27782723D01*
X24923243Y-27617097D01*
X24923238Y-27617092D01*
X24745577Y-27478812D01*
X24745578Y-27478812D01*
X24745576Y-27478811D01*
X24709070Y-27459055D01*
X24659479Y-27409836D01*
X24644371Y-27341619D01*
X24668541Y-27276064D01*
X24709070Y-27240945D01*
X24709084Y-27240936D01*
X24745576Y-27221189D01*
X24923240Y-27082906D01*
X24999561Y-27000000D01*
X35336496Y-27000000D01*
X35356458Y-27189928D01*
X35356459Y-27189931D01*
X35415470Y-27371549D01*
X35415473Y-27371556D01*
X35510960Y-27536944D01*
X35638747Y-27678866D01*
X35793248Y-27791118D01*
X35967712Y-27868794D01*
X36154513Y-27908500D01*
X36345487Y-27908500D01*
X36532288Y-27868794D01*
X36706752Y-27791118D01*
X36861253Y-27678866D01*
X36989040Y-27536944D01*
X37084527Y-27371556D01*
X37143542Y-27189928D01*
X37163504Y-27000000D01*
X37143542Y-26810072D01*
X37084527Y-26628444D01*
X36989040Y-26463056D01*
X36989036Y-26463050D01*
X36915350Y-26381213D01*
X36885120Y-26318221D01*
X36883500Y-26298241D01*
X36883500Y-23951756D01*
X36903185Y-23884717D01*
X36915346Y-23868788D01*
X36989040Y-23786944D01*
X37084527Y-23621556D01*
X37143542Y-23439928D01*
X37163504Y-23250000D01*
X37143542Y-23060072D01*
X37084527Y-22878444D01*
X36989040Y-22713056D01*
X36861253Y-22571134D01*
X36706752Y-22458882D01*
X36532288Y-22381206D01*
X36532286Y-22381205D01*
X36345487Y-22341500D01*
X36154513Y-22341500D01*
X35967714Y-22381205D01*
X35793246Y-22458883D01*
X35638745Y-22571135D01*
X35510959Y-22713057D01*
X35415473Y-22878443D01*
X35415470Y-22878450D01*
X35356459Y-23060068D01*
X35356458Y-23060072D01*
X35336496Y-23250000D01*
X35356458Y-23439928D01*
X35356459Y-23439931D01*
X35415470Y-23621549D01*
X35415473Y-23621556D01*
X35497925Y-23764368D01*
X35510960Y-23786944D01*
X35584649Y-23868784D01*
X35614880Y-23931775D01*
X35616500Y-23951756D01*
X35616500Y-26298241D01*
X35596815Y-26365280D01*
X35584650Y-26381213D01*
X35510963Y-26463050D01*
X35510958Y-26463057D01*
X35415473Y-26628443D01*
X35415470Y-26628450D01*
X35376826Y-26747385D01*
X35356458Y-26810072D01*
X35336496Y-27000000D01*
X24999561Y-27000000D01*
X25075722Y-26917268D01*
X25198860Y-26728791D01*
X25289296Y-26522616D01*
X25344564Y-26304368D01*
X25345072Y-26298241D01*
X25363156Y-26080005D01*
X25363156Y-26079994D01*
X25344565Y-25855640D01*
X25344563Y-25855628D01*
X25289296Y-25637385D01*
X25276933Y-25609201D01*
X25198860Y-25431209D01*
X25075722Y-25242732D01*
X25075719Y-25242729D01*
X25075715Y-25242723D01*
X24923243Y-25077097D01*
X24923238Y-25077092D01*
X24745577Y-24938812D01*
X24745578Y-24938812D01*
X24745576Y-24938811D01*
X24709070Y-24919055D01*
X24659479Y-24869836D01*
X24644371Y-24801619D01*
X24668541Y-24736064D01*
X24709070Y-24700945D01*
X24709084Y-24700936D01*
X24745576Y-24681189D01*
X24923240Y-24542906D01*
X25075722Y-24377268D01*
X25198860Y-24188791D01*
X25289296Y-23982616D01*
X25344564Y-23764368D01*
X25345643Y-23751345D01*
X25363156Y-23540005D01*
X25363156Y-23539994D01*
X25344565Y-23315640D01*
X25344563Y-23315628D01*
X25289296Y-23097385D01*
X25272929Y-23060072D01*
X25198860Y-22891209D01*
X25075722Y-22702732D01*
X24924291Y-22538236D01*
X24893370Y-22475584D01*
X24901230Y-22406158D01*
X24945376Y-22352002D01*
X24972189Y-22338073D01*
X25092086Y-22293354D01*
X25092093Y-22293350D01*
X25207187Y-22207190D01*
X25207190Y-22207187D01*
X25293350Y-22092093D01*
X25293354Y-22092086D01*
X25343596Y-21957379D01*
X25343598Y-21957372D01*
X25349999Y-21897844D01*
X25350000Y-21897827D01*
X25350000Y-21250000D01*
X24433012Y-21250000D01*
X24465925Y-21192993D01*
X24500000Y-21065826D01*
X24500000Y-20934174D01*
X24465925Y-20807007D01*
X24433012Y-20750000D01*
X25350000Y-20750000D01*
X25350000Y-20102172D01*
X25349999Y-20102155D01*
X25343598Y-20042627D01*
X25343596Y-20042620D01*
X25293354Y-19907913D01*
X25293350Y-19907906D01*
X25207190Y-19792812D01*
X25207187Y-19792809D01*
X25092093Y-19706649D01*
X25092086Y-19706645D01*
X24957379Y-19656403D01*
X24957372Y-19656401D01*
X24897844Y-19650000D01*
X24250000Y-19650000D01*
X24250000Y-20566988D01*
X24192993Y-20534075D01*
X24065826Y-20500000D01*
X23934174Y-20500000D01*
X23807007Y-20534075D01*
X23750000Y-20566988D01*
X23750000Y-19650000D01*
X23102155Y-19650000D01*
X23042627Y-19656401D01*
X23042620Y-19656403D01*
X22907913Y-19706645D01*
X22907906Y-19706649D01*
X22792812Y-19792809D01*
X22792809Y-19792812D01*
X22706649Y-19907906D01*
X22706645Y-19907913D01*
X22656403Y-20042620D01*
X22656401Y-20042627D01*
X22650000Y-20102155D01*
X22650000Y-20750000D01*
X23566988Y-20750000D01*
X23534075Y-20807007D01*
X23500000Y-20934174D01*
X23500000Y-21065826D01*
X23534075Y-21192993D01*
X23566988Y-21250000D01*
X22650000Y-21250000D01*
X22650000Y-21897844D01*
X22656401Y-21957372D01*
X22656403Y-21957379D01*
X22706645Y-22092086D01*
X22706649Y-22092093D01*
X22792809Y-22207187D01*
X22792812Y-22207190D01*
X22907906Y-22293350D01*
X22907913Y-22293354D01*
X23027810Y-22338073D01*
X23083744Y-22379944D01*
X23108161Y-22445409D01*
X23093309Y-22513682D01*
X23075706Y-22538238D01*
X22924284Y-22702723D01*
X22924276Y-22702734D01*
X22801140Y-22891207D01*
X22710703Y-23097385D01*
X22655436Y-23315628D01*
X22655434Y-23315640D01*
X22636844Y-23539994D01*
X22636844Y-23540005D01*
X22655434Y-23764359D01*
X22655436Y-23764371D01*
X22710703Y-23982614D01*
X22801140Y-24188792D01*
X22924276Y-24377265D01*
X22924284Y-24377276D01*
X23076756Y-24542902D01*
X23076760Y-24542906D01*
X23254424Y-24681189D01*
X23254429Y-24681191D01*
X23254431Y-24681193D01*
X23290930Y-24700946D01*
X23340520Y-24750165D01*
X23355628Y-24818382D01*
X23331457Y-24883937D01*
X23290930Y-24919054D01*
X23254431Y-24938806D01*
X23254422Y-24938812D01*
X23076761Y-25077092D01*
X23076756Y-25077097D01*
X22924284Y-25242723D01*
X22924276Y-25242734D01*
X22801140Y-25431207D01*
X22710703Y-25637385D01*
X22655436Y-25855628D01*
X22655434Y-25855640D01*
X22636844Y-26079994D01*
X22636844Y-26080005D01*
X22655434Y-26304359D01*
X22655436Y-26304371D01*
X22710703Y-26522614D01*
X22801140Y-26728792D01*
X22924276Y-26917265D01*
X22924284Y-26917276D01*
X23076756Y-27082902D01*
X23076760Y-27082906D01*
X23254424Y-27221189D01*
X23254429Y-27221191D01*
X23254431Y-27221193D01*
X23290930Y-27240946D01*
X23340520Y-27290165D01*
X23355628Y-27358382D01*
X23331457Y-27423937D01*
X23290930Y-27459054D01*
X23254431Y-27478806D01*
X23254422Y-27478812D01*
X23076761Y-27617092D01*
X23076756Y-27617097D01*
X22924284Y-27782723D01*
X22924276Y-27782734D01*
X22801140Y-27971207D01*
X22710703Y-28177385D01*
X22655436Y-28395628D01*
X22655434Y-28395640D01*
X22636844Y-28619994D01*
X22636844Y-28620005D01*
X22655434Y-28844359D01*
X22655436Y-28844371D01*
X22710703Y-29062614D01*
X22801140Y-29268792D01*
X22924276Y-29457265D01*
X22924284Y-29457276D01*
X23076756Y-29622902D01*
X23076760Y-29622906D01*
X23254424Y-29761189D01*
X23254429Y-29761191D01*
X23254431Y-29761193D01*
X23290930Y-29780946D01*
X23340520Y-29830165D01*
X23355628Y-29898382D01*
X23331457Y-29963937D01*
X23290930Y-29999054D01*
X23254431Y-30018806D01*
X23254422Y-30018812D01*
X23076761Y-30157092D01*
X23076756Y-30157097D01*
X22924284Y-30322723D01*
X22924276Y-30322734D01*
X22801140Y-30511207D01*
X22710703Y-30717385D01*
X22655436Y-30935628D01*
X22655434Y-30935640D01*
X22636844Y-31159994D01*
X22636844Y-31160005D01*
X22655434Y-31384359D01*
X22655436Y-31384371D01*
X22710703Y-31602614D01*
X22801140Y-31808792D01*
X22924276Y-31997265D01*
X22924284Y-31997276D01*
X23076756Y-32162902D01*
X23076760Y-32162906D01*
X23254424Y-32301189D01*
X23254429Y-32301191D01*
X23254431Y-32301193D01*
X23290930Y-32320946D01*
X23340520Y-32370165D01*
X23355628Y-32438382D01*
X23331457Y-32503937D01*
X23290930Y-32539054D01*
X23254431Y-32558806D01*
X23254422Y-32558812D01*
X23076761Y-32697092D01*
X23076756Y-32697097D01*
X22924284Y-32862723D01*
X22924276Y-32862734D01*
X22801140Y-33051207D01*
X22710703Y-33257385D01*
X22655436Y-33475628D01*
X22655434Y-33475640D01*
X22636844Y-33699994D01*
X22636844Y-33700005D01*
X22655434Y-33924359D01*
X22655436Y-33924371D01*
X22710703Y-34142614D01*
X22801140Y-34348792D01*
X22924276Y-34537265D01*
X22924284Y-34537276D01*
X23076756Y-34702902D01*
X23076760Y-34702906D01*
X23254424Y-34841189D01*
X23254429Y-34841191D01*
X23254431Y-34841193D01*
X23290930Y-34860946D01*
X23340520Y-34910165D01*
X23355628Y-34978382D01*
X23331457Y-35043937D01*
X23290930Y-35079054D01*
X23254431Y-35098806D01*
X23254422Y-35098812D01*
X23076761Y-35237092D01*
X23076756Y-35237097D01*
X22924284Y-35402723D01*
X22924276Y-35402734D01*
X22801140Y-35591207D01*
X22710703Y-35797385D01*
X22655436Y-36015628D01*
X22655434Y-36015640D01*
X22636844Y-36239994D01*
X22636844Y-36240005D01*
X19760500Y-36240005D01*
X19760500Y-17298654D01*
X21491500Y-17298654D01*
X21498011Y-17359202D01*
X21498011Y-17359204D01*
X21549111Y-17496204D01*
X21636739Y-17613261D01*
X21753796Y-17700889D01*
X21890799Y-17751989D01*
X21918050Y-17754918D01*
X21951345Y-17758499D01*
X21951362Y-17758500D01*
X23048638Y-17758500D01*
X23048654Y-17758499D01*
X23075692Y-17755591D01*
X23109201Y-17751989D01*
X23246204Y-17700889D01*
X23363261Y-17613261D01*
X23450889Y-17496204D01*
X23501989Y-17359201D01*
X23505591Y-17325692D01*
X23508499Y-17298654D01*
X40491500Y-17298654D01*
X40498011Y-17359202D01*
X40498011Y-17359204D01*
X40549111Y-17496204D01*
X40636739Y-17613261D01*
X40753796Y-17700889D01*
X40890799Y-17751989D01*
X40918050Y-17754918D01*
X40951345Y-17758499D01*
X40951362Y-17758500D01*
X42048638Y-17758500D01*
X42048654Y-17758499D01*
X42075692Y-17755591D01*
X42109201Y-17751989D01*
X42246204Y-17700889D01*
X42363261Y-17613261D01*
X42450889Y-17496204D01*
X42501989Y-17359201D01*
X42505591Y-17325692D01*
X42508499Y-17298654D01*
X42508500Y-17298637D01*
X42508500Y-16201362D01*
X42508499Y-16201345D01*
X42505157Y-16170270D01*
X42501989Y-16140799D01*
X42450889Y-16003796D01*
X42363261Y-15886739D01*
X42246204Y-15799111D01*
X42109203Y-15748011D01*
X42048654Y-15741500D01*
X42048638Y-15741500D01*
X40951362Y-15741500D01*
X40951345Y-15741500D01*
X40890797Y-15748011D01*
X40890795Y-15748011D01*
X40753795Y-15799111D01*
X40636739Y-15886739D01*
X40549111Y-16003795D01*
X40498011Y-16140795D01*
X40498011Y-16140797D01*
X40491500Y-16201345D01*
X40491500Y-17298654D01*
X23508499Y-17298654D01*
X23508500Y-17298637D01*
X23508500Y-16201362D01*
X23508499Y-16201345D01*
X23505157Y-16170270D01*
X23501989Y-16140799D01*
X23450889Y-16003796D01*
X23363261Y-15886739D01*
X23246204Y-15799111D01*
X23109203Y-15748011D01*
X23048654Y-15741500D01*
X23048638Y-15741500D01*
X21951362Y-15741500D01*
X21951345Y-15741500D01*
X21890797Y-15748011D01*
X21890795Y-15748011D01*
X21753795Y-15799111D01*
X21636739Y-15886739D01*
X21549111Y-16003795D01*
X21498011Y-16140795D01*
X21498011Y-16140797D01*
X21491500Y-16201345D01*
X21491500Y-17298654D01*
X19760500Y-17298654D01*
X19760500Y-14634500D01*
X19780185Y-14567461D01*
X19832989Y-14521706D01*
X19884500Y-14510500D01*
X44115500Y-14510500D01*
X44182539Y-14530185D01*
G37*
G04 #@! TD.AperFunction*
M02*
