G04 #@! TF.GenerationSoftware,KiCad,Pcbnew,8.0.01-1-dev-1e03266dfe*
G04 #@! TF.CreationDate,2024-03-02T01:48:17-08:00*
G04 #@! TF.ProjectId,sfh7074_breakoutboard,73666837-3037-4345-9f62-7265616b6f75,rev?*
G04 #@! TF.SameCoordinates,Original*
G04 #@! TF.FileFunction,Legend,Top*
G04 #@! TF.FilePolarity,Positive*
%FSLAX46Y46*%
G04 Gerber Fmt 4.6, Leading zero omitted, Abs format (unit mm)*
G04 Created by KiCad (PCBNEW 8.0.01-1-dev-1e03266dfe) date 2024-03-02 01:48:17*
%MOMM*%
%LPD*%
G01*
G04 APERTURE LIST*
%ADD10C,0.100000*%
%ADD11C,0.150000*%
%ADD12C,0.254000*%
%ADD13C,0.120000*%
%ADD14C,0.200000*%
G04 APERTURE END LIST*
D10*
X42900057Y-24022931D02*
X42928628Y-23965789D01*
X42928628Y-23965789D02*
X42928628Y-23880074D01*
X42928628Y-23880074D02*
X42900057Y-23794360D01*
X42900057Y-23794360D02*
X42842914Y-23737217D01*
X42842914Y-23737217D02*
X42785771Y-23708646D01*
X42785771Y-23708646D02*
X42671485Y-23680074D01*
X42671485Y-23680074D02*
X42585771Y-23680074D01*
X42585771Y-23680074D02*
X42471485Y-23708646D01*
X42471485Y-23708646D02*
X42414342Y-23737217D01*
X42414342Y-23737217D02*
X42357200Y-23794360D01*
X42357200Y-23794360D02*
X42328628Y-23880074D01*
X42328628Y-23880074D02*
X42328628Y-23937217D01*
X42328628Y-23937217D02*
X42357200Y-24022931D01*
X42357200Y-24022931D02*
X42385771Y-24051503D01*
X42385771Y-24051503D02*
X42585771Y-24051503D01*
X42585771Y-24051503D02*
X42585771Y-23937217D01*
X42328628Y-24594360D02*
X42328628Y-24308646D01*
X42328628Y-24308646D02*
X42928628Y-24308646D01*
X42871485Y-24765788D02*
X42900057Y-24794360D01*
X42900057Y-24794360D02*
X42928628Y-24851503D01*
X42928628Y-24851503D02*
X42928628Y-24994360D01*
X42928628Y-24994360D02*
X42900057Y-25051503D01*
X42900057Y-25051503D02*
X42871485Y-25080074D01*
X42871485Y-25080074D02*
X42814342Y-25108645D01*
X42814342Y-25108645D02*
X42757200Y-25108645D01*
X42757200Y-25108645D02*
X42671485Y-25080074D01*
X42671485Y-25080074D02*
X42328628Y-24737217D01*
X42328628Y-24737217D02*
X42328628Y-25108645D01*
X42385771Y-25708646D02*
X42357200Y-25680074D01*
X42357200Y-25680074D02*
X42328628Y-25594360D01*
X42328628Y-25594360D02*
X42328628Y-25537217D01*
X42328628Y-25537217D02*
X42357200Y-25451503D01*
X42357200Y-25451503D02*
X42414342Y-25394360D01*
X42414342Y-25394360D02*
X42471485Y-25365789D01*
X42471485Y-25365789D02*
X42585771Y-25337217D01*
X42585771Y-25337217D02*
X42671485Y-25337217D01*
X42671485Y-25337217D02*
X42785771Y-25365789D01*
X42785771Y-25365789D02*
X42842914Y-25394360D01*
X42842914Y-25394360D02*
X42900057Y-25451503D01*
X42900057Y-25451503D02*
X42928628Y-25537217D01*
X42928628Y-25537217D02*
X42928628Y-25594360D01*
X42928628Y-25594360D02*
X42900057Y-25680074D01*
X42900057Y-25680074D02*
X42871485Y-25708646D01*
X20849942Y-21227068D02*
X20821371Y-21284211D01*
X20821371Y-21284211D02*
X20821371Y-21369925D01*
X20821371Y-21369925D02*
X20849942Y-21455639D01*
X20849942Y-21455639D02*
X20907085Y-21512782D01*
X20907085Y-21512782D02*
X20964228Y-21541353D01*
X20964228Y-21541353D02*
X21078514Y-21569925D01*
X21078514Y-21569925D02*
X21164228Y-21569925D01*
X21164228Y-21569925D02*
X21278514Y-21541353D01*
X21278514Y-21541353D02*
X21335657Y-21512782D01*
X21335657Y-21512782D02*
X21392800Y-21455639D01*
X21392800Y-21455639D02*
X21421371Y-21369925D01*
X21421371Y-21369925D02*
X21421371Y-21312782D01*
X21421371Y-21312782D02*
X21392800Y-21227068D01*
X21392800Y-21227068D02*
X21364228Y-21198496D01*
X21364228Y-21198496D02*
X21164228Y-21198496D01*
X21164228Y-21198496D02*
X21164228Y-21312782D01*
X21421371Y-20941353D02*
X20821371Y-20941353D01*
X20821371Y-20941353D02*
X21421371Y-20598496D01*
X21421371Y-20598496D02*
X20821371Y-20598496D01*
X21421371Y-20312782D02*
X20821371Y-20312782D01*
X20821371Y-20312782D02*
X20821371Y-20169925D01*
X20821371Y-20169925D02*
X20849942Y-20084211D01*
X20849942Y-20084211D02*
X20907085Y-20027068D01*
X20907085Y-20027068D02*
X20964228Y-19998497D01*
X20964228Y-19998497D02*
X21078514Y-19969925D01*
X21078514Y-19969925D02*
X21164228Y-19969925D01*
X21164228Y-19969925D02*
X21278514Y-19998497D01*
X21278514Y-19998497D02*
X21335657Y-20027068D01*
X21335657Y-20027068D02*
X21392800Y-20084211D01*
X21392800Y-20084211D02*
X21421371Y-20169925D01*
X21421371Y-20169925D02*
X21421371Y-20312782D01*
X20821371Y-24127068D02*
X21421371Y-23927068D01*
X21421371Y-23927068D02*
X20821371Y-23727068D01*
X21421371Y-23241353D02*
X21421371Y-23527067D01*
X21421371Y-23527067D02*
X20821371Y-23527067D01*
X21107085Y-23041353D02*
X21107085Y-22841353D01*
X21421371Y-22755639D02*
X21421371Y-23041353D01*
X21421371Y-23041353D02*
X20821371Y-23041353D01*
X20821371Y-23041353D02*
X20821371Y-22755639D01*
X21421371Y-22498496D02*
X20821371Y-22498496D01*
X20821371Y-22498496D02*
X20821371Y-22355639D01*
X20821371Y-22355639D02*
X20849942Y-22269925D01*
X20849942Y-22269925D02*
X20907085Y-22212782D01*
X20907085Y-22212782D02*
X20964228Y-22184211D01*
X20964228Y-22184211D02*
X21078514Y-22155639D01*
X21078514Y-22155639D02*
X21164228Y-22155639D01*
X21164228Y-22155639D02*
X21278514Y-22184211D01*
X21278514Y-22184211D02*
X21335657Y-22212782D01*
X21335657Y-22212782D02*
X21392800Y-22269925D01*
X21392800Y-22269925D02*
X21421371Y-22355639D01*
X21421371Y-22355639D02*
X21421371Y-22498496D01*
X21107085Y-29341353D02*
X21135657Y-29255639D01*
X21135657Y-29255639D02*
X21164228Y-29227068D01*
X21164228Y-29227068D02*
X21221371Y-29198496D01*
X21221371Y-29198496D02*
X21307085Y-29198496D01*
X21307085Y-29198496D02*
X21364228Y-29227068D01*
X21364228Y-29227068D02*
X21392800Y-29255639D01*
X21392800Y-29255639D02*
X21421371Y-29312782D01*
X21421371Y-29312782D02*
X21421371Y-29541353D01*
X21421371Y-29541353D02*
X20821371Y-29541353D01*
X20821371Y-29541353D02*
X20821371Y-29341353D01*
X20821371Y-29341353D02*
X20849942Y-29284211D01*
X20849942Y-29284211D02*
X20878514Y-29255639D01*
X20878514Y-29255639D02*
X20935657Y-29227068D01*
X20935657Y-29227068D02*
X20992800Y-29227068D01*
X20992800Y-29227068D02*
X21049942Y-29255639D01*
X21049942Y-29255639D02*
X21078514Y-29284211D01*
X21078514Y-29284211D02*
X21107085Y-29341353D01*
X21107085Y-29341353D02*
X21107085Y-29541353D01*
X21421371Y-28941353D02*
X20821371Y-28941353D01*
X20821371Y-28941353D02*
X20821371Y-28712782D01*
X20821371Y-28712782D02*
X20849942Y-28655639D01*
X20849942Y-28655639D02*
X20878514Y-28627068D01*
X20878514Y-28627068D02*
X20935657Y-28598496D01*
X20935657Y-28598496D02*
X21021371Y-28598496D01*
X21021371Y-28598496D02*
X21078514Y-28627068D01*
X21078514Y-28627068D02*
X21107085Y-28655639D01*
X21107085Y-28655639D02*
X21135657Y-28712782D01*
X21135657Y-28712782D02*
X21135657Y-28941353D01*
X21421371Y-28341353D02*
X20821371Y-28341353D01*
X20821371Y-28341353D02*
X20821371Y-28198496D01*
X20821371Y-28198496D02*
X20849942Y-28112782D01*
X20849942Y-28112782D02*
X20907085Y-28055639D01*
X20907085Y-28055639D02*
X20964228Y-28027068D01*
X20964228Y-28027068D02*
X21078514Y-27998496D01*
X21078514Y-27998496D02*
X21164228Y-27998496D01*
X21164228Y-27998496D02*
X21278514Y-28027068D01*
X21278514Y-28027068D02*
X21335657Y-28055639D01*
X21335657Y-28055639D02*
X21392800Y-28112782D01*
X21392800Y-28112782D02*
X21421371Y-28198496D01*
X21421371Y-28198496D02*
X21421371Y-28341353D01*
X21249942Y-27769925D02*
X21249942Y-27484211D01*
X21421371Y-27827068D02*
X20821371Y-27627068D01*
X20821371Y-27627068D02*
X21421371Y-27427068D01*
X20849942Y-34727068D02*
X20821371Y-34784211D01*
X20821371Y-34784211D02*
X20821371Y-34869925D01*
X20821371Y-34869925D02*
X20849942Y-34955639D01*
X20849942Y-34955639D02*
X20907085Y-35012782D01*
X20907085Y-35012782D02*
X20964228Y-35041353D01*
X20964228Y-35041353D02*
X21078514Y-35069925D01*
X21078514Y-35069925D02*
X21164228Y-35069925D01*
X21164228Y-35069925D02*
X21278514Y-35041353D01*
X21278514Y-35041353D02*
X21335657Y-35012782D01*
X21335657Y-35012782D02*
X21392800Y-34955639D01*
X21392800Y-34955639D02*
X21421371Y-34869925D01*
X21421371Y-34869925D02*
X21421371Y-34812782D01*
X21421371Y-34812782D02*
X21392800Y-34727068D01*
X21392800Y-34727068D02*
X21364228Y-34698496D01*
X21364228Y-34698496D02*
X21164228Y-34698496D01*
X21164228Y-34698496D02*
X21164228Y-34812782D01*
X21421371Y-34155639D02*
X21421371Y-34441353D01*
X21421371Y-34441353D02*
X20821371Y-34441353D01*
X21421371Y-33641354D02*
X21421371Y-33984211D01*
X21421371Y-33812782D02*
X20821371Y-33812782D01*
X20821371Y-33812782D02*
X20907085Y-33869925D01*
X20907085Y-33869925D02*
X20964228Y-33927068D01*
X20964228Y-33927068D02*
X20992800Y-33984211D01*
X21364228Y-33041353D02*
X21392800Y-33069925D01*
X21392800Y-33069925D02*
X21421371Y-33155639D01*
X21421371Y-33155639D02*
X21421371Y-33212782D01*
X21421371Y-33212782D02*
X21392800Y-33298496D01*
X21392800Y-33298496D02*
X21335657Y-33355639D01*
X21335657Y-33355639D02*
X21278514Y-33384210D01*
X21278514Y-33384210D02*
X21164228Y-33412782D01*
X21164228Y-33412782D02*
X21078514Y-33412782D01*
X21078514Y-33412782D02*
X20964228Y-33384210D01*
X20964228Y-33384210D02*
X20907085Y-33355639D01*
X20907085Y-33355639D02*
X20849942Y-33298496D01*
X20849942Y-33298496D02*
X20821371Y-33212782D01*
X20821371Y-33212782D02*
X20821371Y-33155639D01*
X20821371Y-33155639D02*
X20849942Y-33069925D01*
X20849942Y-33069925D02*
X20878514Y-33041353D01*
X42328628Y-29208646D02*
X42928628Y-29208646D01*
X42328628Y-29780074D02*
X42328628Y-29494360D01*
X42328628Y-29494360D02*
X42928628Y-29494360D01*
X42385771Y-30322931D02*
X42357200Y-30294359D01*
X42357200Y-30294359D02*
X42328628Y-30208645D01*
X42328628Y-30208645D02*
X42328628Y-30151502D01*
X42328628Y-30151502D02*
X42357200Y-30065788D01*
X42357200Y-30065788D02*
X42414342Y-30008645D01*
X42414342Y-30008645D02*
X42471485Y-29980074D01*
X42471485Y-29980074D02*
X42585771Y-29951502D01*
X42585771Y-29951502D02*
X42671485Y-29951502D01*
X42671485Y-29951502D02*
X42785771Y-29980074D01*
X42785771Y-29980074D02*
X42842914Y-30008645D01*
X42842914Y-30008645D02*
X42900057Y-30065788D01*
X42900057Y-30065788D02*
X42928628Y-30151502D01*
X42928628Y-30151502D02*
X42928628Y-30208645D01*
X42928628Y-30208645D02*
X42900057Y-30294359D01*
X42900057Y-30294359D02*
X42871485Y-30322931D01*
X21421371Y-32291353D02*
X20821371Y-32291353D01*
X21421371Y-32005639D02*
X20821371Y-32005639D01*
X20821371Y-32005639D02*
X20821371Y-31777068D01*
X20821371Y-31777068D02*
X20849942Y-31719925D01*
X20849942Y-31719925D02*
X20878514Y-31691354D01*
X20878514Y-31691354D02*
X20935657Y-31662782D01*
X20935657Y-31662782D02*
X21021371Y-31662782D01*
X21021371Y-31662782D02*
X21078514Y-31691354D01*
X21078514Y-31691354D02*
X21107085Y-31719925D01*
X21107085Y-31719925D02*
X21135657Y-31777068D01*
X21135657Y-31777068D02*
X21135657Y-32005639D01*
X21421371Y-31405639D02*
X20821371Y-31405639D01*
X20821371Y-31405639D02*
X20821371Y-31262782D01*
X20821371Y-31262782D02*
X20849942Y-31177068D01*
X20849942Y-31177068D02*
X20907085Y-31119925D01*
X20907085Y-31119925D02*
X20964228Y-31091354D01*
X20964228Y-31091354D02*
X21078514Y-31062782D01*
X21078514Y-31062782D02*
X21164228Y-31062782D01*
X21164228Y-31062782D02*
X21278514Y-31091354D01*
X21278514Y-31091354D02*
X21335657Y-31119925D01*
X21335657Y-31119925D02*
X21392800Y-31177068D01*
X21392800Y-31177068D02*
X21421371Y-31262782D01*
X21421371Y-31262782D02*
X21421371Y-31405639D01*
X21364228Y-30462782D02*
X21392800Y-30491354D01*
X21392800Y-30491354D02*
X21421371Y-30577068D01*
X21421371Y-30577068D02*
X21421371Y-30634211D01*
X21421371Y-30634211D02*
X21392800Y-30719925D01*
X21392800Y-30719925D02*
X21335657Y-30777068D01*
X21335657Y-30777068D02*
X21278514Y-30805639D01*
X21278514Y-30805639D02*
X21164228Y-30834211D01*
X21164228Y-30834211D02*
X21078514Y-30834211D01*
X21078514Y-30834211D02*
X20964228Y-30805639D01*
X20964228Y-30805639D02*
X20907085Y-30777068D01*
X20907085Y-30777068D02*
X20849942Y-30719925D01*
X20849942Y-30719925D02*
X20821371Y-30634211D01*
X20821371Y-30634211D02*
X20821371Y-30577068D01*
X20821371Y-30577068D02*
X20849942Y-30491354D01*
X20849942Y-30491354D02*
X20878514Y-30462782D01*
X42328628Y-32051503D02*
X42614342Y-31851503D01*
X42328628Y-31708646D02*
X42928628Y-31708646D01*
X42928628Y-31708646D02*
X42928628Y-31937217D01*
X42928628Y-31937217D02*
X42900057Y-31994360D01*
X42900057Y-31994360D02*
X42871485Y-32022931D01*
X42871485Y-32022931D02*
X42814342Y-32051503D01*
X42814342Y-32051503D02*
X42728628Y-32051503D01*
X42728628Y-32051503D02*
X42671485Y-32022931D01*
X42671485Y-32022931D02*
X42642914Y-31994360D01*
X42642914Y-31994360D02*
X42614342Y-31937217D01*
X42614342Y-31937217D02*
X42614342Y-31708646D01*
X42328628Y-32594360D02*
X42328628Y-32308646D01*
X42328628Y-32308646D02*
X42928628Y-32308646D01*
X42385771Y-33137217D02*
X42357200Y-33108645D01*
X42357200Y-33108645D02*
X42328628Y-33022931D01*
X42328628Y-33022931D02*
X42328628Y-32965788D01*
X42328628Y-32965788D02*
X42357200Y-32880074D01*
X42357200Y-32880074D02*
X42414342Y-32822931D01*
X42414342Y-32822931D02*
X42471485Y-32794360D01*
X42471485Y-32794360D02*
X42585771Y-32765788D01*
X42585771Y-32765788D02*
X42671485Y-32765788D01*
X42671485Y-32765788D02*
X42785771Y-32794360D01*
X42785771Y-32794360D02*
X42842914Y-32822931D01*
X42842914Y-32822931D02*
X42900057Y-32880074D01*
X42900057Y-32880074D02*
X42928628Y-32965788D01*
X42928628Y-32965788D02*
X42928628Y-33022931D01*
X42928628Y-33022931D02*
X42900057Y-33108645D01*
X42900057Y-33108645D02*
X42871485Y-33137217D01*
X42328628Y-26458646D02*
X42928628Y-26458646D01*
X42328628Y-26744360D02*
X42928628Y-26744360D01*
X42928628Y-26744360D02*
X42928628Y-26972931D01*
X42928628Y-26972931D02*
X42900057Y-27030074D01*
X42900057Y-27030074D02*
X42871485Y-27058645D01*
X42871485Y-27058645D02*
X42814342Y-27087217D01*
X42814342Y-27087217D02*
X42728628Y-27087217D01*
X42728628Y-27087217D02*
X42671485Y-27058645D01*
X42671485Y-27058645D02*
X42642914Y-27030074D01*
X42642914Y-27030074D02*
X42614342Y-26972931D01*
X42614342Y-26972931D02*
X42614342Y-26744360D01*
X42328628Y-27344360D02*
X42928628Y-27344360D01*
X42928628Y-27344360D02*
X42928628Y-27487217D01*
X42928628Y-27487217D02*
X42900057Y-27572931D01*
X42900057Y-27572931D02*
X42842914Y-27630074D01*
X42842914Y-27630074D02*
X42785771Y-27658645D01*
X42785771Y-27658645D02*
X42671485Y-27687217D01*
X42671485Y-27687217D02*
X42585771Y-27687217D01*
X42585771Y-27687217D02*
X42471485Y-27658645D01*
X42471485Y-27658645D02*
X42414342Y-27630074D01*
X42414342Y-27630074D02*
X42357200Y-27572931D01*
X42357200Y-27572931D02*
X42328628Y-27487217D01*
X42328628Y-27487217D02*
X42328628Y-27344360D01*
X42500057Y-27915788D02*
X42500057Y-28201503D01*
X42328628Y-27858645D02*
X42928628Y-28058645D01*
X42928628Y-28058645D02*
X42328628Y-28258645D01*
X21107085Y-26591353D02*
X21135657Y-26505639D01*
X21135657Y-26505639D02*
X21164228Y-26477068D01*
X21164228Y-26477068D02*
X21221371Y-26448496D01*
X21221371Y-26448496D02*
X21307085Y-26448496D01*
X21307085Y-26448496D02*
X21364228Y-26477068D01*
X21364228Y-26477068D02*
X21392800Y-26505639D01*
X21392800Y-26505639D02*
X21421371Y-26562782D01*
X21421371Y-26562782D02*
X21421371Y-26791353D01*
X21421371Y-26791353D02*
X20821371Y-26791353D01*
X20821371Y-26791353D02*
X20821371Y-26591353D01*
X20821371Y-26591353D02*
X20849942Y-26534211D01*
X20849942Y-26534211D02*
X20878514Y-26505639D01*
X20878514Y-26505639D02*
X20935657Y-26477068D01*
X20935657Y-26477068D02*
X20992800Y-26477068D01*
X20992800Y-26477068D02*
X21049942Y-26505639D01*
X21049942Y-26505639D02*
X21078514Y-26534211D01*
X21078514Y-26534211D02*
X21107085Y-26591353D01*
X21107085Y-26591353D02*
X21107085Y-26791353D01*
X21421371Y-26191353D02*
X20821371Y-26191353D01*
X20821371Y-26191353D02*
X20821371Y-25962782D01*
X20821371Y-25962782D02*
X20849942Y-25905639D01*
X20849942Y-25905639D02*
X20878514Y-25877068D01*
X20878514Y-25877068D02*
X20935657Y-25848496D01*
X20935657Y-25848496D02*
X21021371Y-25848496D01*
X21021371Y-25848496D02*
X21078514Y-25877068D01*
X21078514Y-25877068D02*
X21107085Y-25905639D01*
X21107085Y-25905639D02*
X21135657Y-25962782D01*
X21135657Y-25962782D02*
X21135657Y-26191353D01*
X21421371Y-25591353D02*
X20821371Y-25591353D01*
X20821371Y-25591353D02*
X20821371Y-25448496D01*
X20821371Y-25448496D02*
X20849942Y-25362782D01*
X20849942Y-25362782D02*
X20907085Y-25305639D01*
X20907085Y-25305639D02*
X20964228Y-25277068D01*
X20964228Y-25277068D02*
X21078514Y-25248496D01*
X21078514Y-25248496D02*
X21164228Y-25248496D01*
X21164228Y-25248496D02*
X21278514Y-25277068D01*
X21278514Y-25277068D02*
X21335657Y-25305639D01*
X21335657Y-25305639D02*
X21392800Y-25362782D01*
X21392800Y-25362782D02*
X21421371Y-25448496D01*
X21421371Y-25448496D02*
X21421371Y-25591353D01*
X21364228Y-24648496D02*
X21392800Y-24677068D01*
X21392800Y-24677068D02*
X21421371Y-24762782D01*
X21421371Y-24762782D02*
X21421371Y-24819925D01*
X21421371Y-24819925D02*
X21392800Y-24905639D01*
X21392800Y-24905639D02*
X21335657Y-24962782D01*
X21335657Y-24962782D02*
X21278514Y-24991353D01*
X21278514Y-24991353D02*
X21164228Y-25019925D01*
X21164228Y-25019925D02*
X21078514Y-25019925D01*
X21078514Y-25019925D02*
X20964228Y-24991353D01*
X20964228Y-24991353D02*
X20907085Y-24962782D01*
X20907085Y-24962782D02*
X20849942Y-24905639D01*
X20849942Y-24905639D02*
X20821371Y-24819925D01*
X20821371Y-24819925D02*
X20821371Y-24762782D01*
X20821371Y-24762782D02*
X20849942Y-24677068D01*
X20849942Y-24677068D02*
X20878514Y-24648496D01*
D11*
X27501064Y-17626200D02*
X27615350Y-17664295D01*
X27615350Y-17664295D02*
X27805826Y-17664295D01*
X27805826Y-17664295D02*
X27882017Y-17626200D01*
X27882017Y-17626200D02*
X27920112Y-17588104D01*
X27920112Y-17588104D02*
X27958207Y-17511914D01*
X27958207Y-17511914D02*
X27958207Y-17435723D01*
X27958207Y-17435723D02*
X27920112Y-17359533D01*
X27920112Y-17359533D02*
X27882017Y-17321438D01*
X27882017Y-17321438D02*
X27805826Y-17283342D01*
X27805826Y-17283342D02*
X27653445Y-17245247D01*
X27653445Y-17245247D02*
X27577255Y-17207152D01*
X27577255Y-17207152D02*
X27539160Y-17169057D01*
X27539160Y-17169057D02*
X27501064Y-17092866D01*
X27501064Y-17092866D02*
X27501064Y-17016676D01*
X27501064Y-17016676D02*
X27539160Y-16940485D01*
X27539160Y-16940485D02*
X27577255Y-16902390D01*
X27577255Y-16902390D02*
X27653445Y-16864295D01*
X27653445Y-16864295D02*
X27843922Y-16864295D01*
X27843922Y-16864295D02*
X27958207Y-16902390D01*
X28567731Y-17245247D02*
X28301065Y-17245247D01*
X28301065Y-17664295D02*
X28301065Y-16864295D01*
X28301065Y-16864295D02*
X28682017Y-16864295D01*
X28986779Y-17664295D02*
X28986779Y-16864295D01*
X28986779Y-17245247D02*
X29443922Y-17245247D01*
X29443922Y-17664295D02*
X29443922Y-16864295D01*
X29748683Y-16864295D02*
X30282017Y-16864295D01*
X30282017Y-16864295D02*
X29939159Y-17664295D01*
X30739160Y-16864295D02*
X30815350Y-16864295D01*
X30815350Y-16864295D02*
X30891541Y-16902390D01*
X30891541Y-16902390D02*
X30929636Y-16940485D01*
X30929636Y-16940485D02*
X30967731Y-17016676D01*
X30967731Y-17016676D02*
X31005826Y-17169057D01*
X31005826Y-17169057D02*
X31005826Y-17359533D01*
X31005826Y-17359533D02*
X30967731Y-17511914D01*
X30967731Y-17511914D02*
X30929636Y-17588104D01*
X30929636Y-17588104D02*
X30891541Y-17626200D01*
X30891541Y-17626200D02*
X30815350Y-17664295D01*
X30815350Y-17664295D02*
X30739160Y-17664295D01*
X30739160Y-17664295D02*
X30662969Y-17626200D01*
X30662969Y-17626200D02*
X30624874Y-17588104D01*
X30624874Y-17588104D02*
X30586779Y-17511914D01*
X30586779Y-17511914D02*
X30548683Y-17359533D01*
X30548683Y-17359533D02*
X30548683Y-17169057D01*
X30548683Y-17169057D02*
X30586779Y-17016676D01*
X30586779Y-17016676D02*
X30624874Y-16940485D01*
X30624874Y-16940485D02*
X30662969Y-16902390D01*
X30662969Y-16902390D02*
X30739160Y-16864295D01*
X31272493Y-16864295D02*
X31805827Y-16864295D01*
X31805827Y-16864295D02*
X31462969Y-17664295D01*
X32453446Y-17130961D02*
X32453446Y-17664295D01*
X32262970Y-16826200D02*
X32072493Y-17397628D01*
X32072493Y-17397628D02*
X32567732Y-17397628D01*
X32682018Y-17740485D02*
X33291541Y-17740485D01*
X33748684Y-17245247D02*
X33862970Y-17283342D01*
X33862970Y-17283342D02*
X33901065Y-17321438D01*
X33901065Y-17321438D02*
X33939161Y-17397628D01*
X33939161Y-17397628D02*
X33939161Y-17511914D01*
X33939161Y-17511914D02*
X33901065Y-17588104D01*
X33901065Y-17588104D02*
X33862970Y-17626200D01*
X33862970Y-17626200D02*
X33786780Y-17664295D01*
X33786780Y-17664295D02*
X33482018Y-17664295D01*
X33482018Y-17664295D02*
X33482018Y-16864295D01*
X33482018Y-16864295D02*
X33748684Y-16864295D01*
X33748684Y-16864295D02*
X33824875Y-16902390D01*
X33824875Y-16902390D02*
X33862970Y-16940485D01*
X33862970Y-16940485D02*
X33901065Y-17016676D01*
X33901065Y-17016676D02*
X33901065Y-17092866D01*
X33901065Y-17092866D02*
X33862970Y-17169057D01*
X33862970Y-17169057D02*
X33824875Y-17207152D01*
X33824875Y-17207152D02*
X33748684Y-17245247D01*
X33748684Y-17245247D02*
X33482018Y-17245247D01*
X34282018Y-17664295D02*
X34282018Y-16864295D01*
X34282018Y-16864295D02*
X34586780Y-16864295D01*
X34586780Y-16864295D02*
X34662970Y-16902390D01*
X34662970Y-16902390D02*
X34701065Y-16940485D01*
X34701065Y-16940485D02*
X34739161Y-17016676D01*
X34739161Y-17016676D02*
X34739161Y-17130961D01*
X34739161Y-17130961D02*
X34701065Y-17207152D01*
X34701065Y-17207152D02*
X34662970Y-17245247D01*
X34662970Y-17245247D02*
X34586780Y-17283342D01*
X34586780Y-17283342D02*
X34282018Y-17283342D01*
X34891542Y-17740485D02*
X35501065Y-17740485D01*
X35577256Y-16864295D02*
X35843923Y-17664295D01*
X35843923Y-17664295D02*
X36110589Y-16864295D01*
X36529637Y-16864295D02*
X36605827Y-16864295D01*
X36605827Y-16864295D02*
X36682018Y-16902390D01*
X36682018Y-16902390D02*
X36720113Y-16940485D01*
X36720113Y-16940485D02*
X36758208Y-17016676D01*
X36758208Y-17016676D02*
X36796303Y-17169057D01*
X36796303Y-17169057D02*
X36796303Y-17359533D01*
X36796303Y-17359533D02*
X36758208Y-17511914D01*
X36758208Y-17511914D02*
X36720113Y-17588104D01*
X36720113Y-17588104D02*
X36682018Y-17626200D01*
X36682018Y-17626200D02*
X36605827Y-17664295D01*
X36605827Y-17664295D02*
X36529637Y-17664295D01*
X36529637Y-17664295D02*
X36453446Y-17626200D01*
X36453446Y-17626200D02*
X36415351Y-17588104D01*
X36415351Y-17588104D02*
X36377256Y-17511914D01*
X36377256Y-17511914D02*
X36339160Y-17359533D01*
X36339160Y-17359533D02*
X36339160Y-17169057D01*
X36339160Y-17169057D02*
X36377256Y-17016676D01*
X36377256Y-17016676D02*
X36415351Y-16940485D01*
X36415351Y-16940485D02*
X36453446Y-16902390D01*
X36453446Y-16902390D02*
X36529637Y-16864295D01*
X37139161Y-17588104D02*
X37177256Y-17626200D01*
X37177256Y-17626200D02*
X37139161Y-17664295D01*
X37139161Y-17664295D02*
X37101065Y-17626200D01*
X37101065Y-17626200D02*
X37139161Y-17588104D01*
X37139161Y-17588104D02*
X37139161Y-17664295D01*
X37939160Y-17664295D02*
X37482017Y-17664295D01*
X37710589Y-17664295D02*
X37710589Y-16864295D01*
X37710589Y-16864295D02*
X37634398Y-16978580D01*
X37634398Y-16978580D02*
X37558208Y-17054771D01*
X37558208Y-17054771D02*
X37482017Y-17092866D01*
X24733333Y-18062295D02*
X24733333Y-18633723D01*
X24733333Y-18633723D02*
X24695238Y-18748009D01*
X24695238Y-18748009D02*
X24619047Y-18824200D01*
X24619047Y-18824200D02*
X24504762Y-18862295D01*
X24504762Y-18862295D02*
X24428571Y-18862295D01*
X25533333Y-18862295D02*
X25076190Y-18862295D01*
X25304762Y-18862295D02*
X25304762Y-18062295D01*
X25304762Y-18062295D02*
X25228571Y-18176580D01*
X25228571Y-18176580D02*
X25152381Y-18252771D01*
X25152381Y-18252771D02*
X25076190Y-18290866D01*
X39233333Y-21752295D02*
X39233333Y-22323723D01*
X39233333Y-22323723D02*
X39195238Y-22438009D01*
X39195238Y-22438009D02*
X39119047Y-22514200D01*
X39119047Y-22514200D02*
X39004762Y-22552295D01*
X39004762Y-22552295D02*
X38928571Y-22552295D01*
X39576190Y-21828485D02*
X39614286Y-21790390D01*
X39614286Y-21790390D02*
X39690476Y-21752295D01*
X39690476Y-21752295D02*
X39880952Y-21752295D01*
X39880952Y-21752295D02*
X39957143Y-21790390D01*
X39957143Y-21790390D02*
X39995238Y-21828485D01*
X39995238Y-21828485D02*
X40033333Y-21904676D01*
X40033333Y-21904676D02*
X40033333Y-21980866D01*
X40033333Y-21980866D02*
X39995238Y-22095152D01*
X39995238Y-22095152D02*
X39538095Y-22552295D01*
X39538095Y-22552295D02*
X40033333Y-22552295D01*
D12*
X30260237Y-38574318D02*
X30260237Y-37304318D01*
X31590714Y-38453365D02*
X31530238Y-38513842D01*
X31530238Y-38513842D02*
X31348809Y-38574318D01*
X31348809Y-38574318D02*
X31227857Y-38574318D01*
X31227857Y-38574318D02*
X31046428Y-38513842D01*
X31046428Y-38513842D02*
X30925476Y-38392889D01*
X30925476Y-38392889D02*
X30864999Y-38271937D01*
X30864999Y-38271937D02*
X30804523Y-38030032D01*
X30804523Y-38030032D02*
X30804523Y-37848603D01*
X30804523Y-37848603D02*
X30864999Y-37606699D01*
X30864999Y-37606699D02*
X30925476Y-37485746D01*
X30925476Y-37485746D02*
X31046428Y-37364794D01*
X31046428Y-37364794D02*
X31227857Y-37304318D01*
X31227857Y-37304318D02*
X31348809Y-37304318D01*
X31348809Y-37304318D02*
X31530238Y-37364794D01*
X31530238Y-37364794D02*
X31590714Y-37425270D01*
X32800238Y-38574318D02*
X32074523Y-38574318D01*
X32437380Y-38574318D02*
X32437380Y-37304318D01*
X32437380Y-37304318D02*
X32316428Y-37485746D01*
X32316428Y-37485746D02*
X32195476Y-37606699D01*
X32195476Y-37606699D02*
X32074523Y-37667175D01*
D11*
X28179580Y-20416666D02*
X28227200Y-20464285D01*
X28227200Y-20464285D02*
X28274819Y-20607142D01*
X28274819Y-20607142D02*
X28274819Y-20702380D01*
X28274819Y-20702380D02*
X28227200Y-20845237D01*
X28227200Y-20845237D02*
X28131961Y-20940475D01*
X28131961Y-20940475D02*
X28036723Y-20988094D01*
X28036723Y-20988094D02*
X27846247Y-21035713D01*
X27846247Y-21035713D02*
X27703390Y-21035713D01*
X27703390Y-21035713D02*
X27512914Y-20988094D01*
X27512914Y-20988094D02*
X27417676Y-20940475D01*
X27417676Y-20940475D02*
X27322438Y-20845237D01*
X27322438Y-20845237D02*
X27274819Y-20702380D01*
X27274819Y-20702380D02*
X27274819Y-20607142D01*
X27274819Y-20607142D02*
X27322438Y-20464285D01*
X27322438Y-20464285D02*
X27370057Y-20416666D01*
X27274819Y-19511904D02*
X27274819Y-19988094D01*
X27274819Y-19988094D02*
X27751009Y-20035713D01*
X27751009Y-20035713D02*
X27703390Y-19988094D01*
X27703390Y-19988094D02*
X27655771Y-19892856D01*
X27655771Y-19892856D02*
X27655771Y-19654761D01*
X27655771Y-19654761D02*
X27703390Y-19559523D01*
X27703390Y-19559523D02*
X27751009Y-19511904D01*
X27751009Y-19511904D02*
X27846247Y-19464285D01*
X27846247Y-19464285D02*
X28084342Y-19464285D01*
X28084342Y-19464285D02*
X28179580Y-19511904D01*
X28179580Y-19511904D02*
X28227200Y-19559523D01*
X28227200Y-19559523D02*
X28274819Y-19654761D01*
X28274819Y-19654761D02*
X28274819Y-19892856D01*
X28274819Y-19892856D02*
X28227200Y-19988094D01*
X28227200Y-19988094D02*
X28179580Y-20035713D01*
D13*
X22670000Y-19670000D02*
X24000000Y-19670000D01*
X22670000Y-21000000D02*
X22670000Y-19670000D01*
X22670000Y-22270000D02*
X22670000Y-37570000D01*
X22670000Y-22270000D02*
X25330000Y-22270000D01*
X22670000Y-37570000D02*
X25330000Y-37570000D01*
X25330000Y-22270000D02*
X25330000Y-37570000D01*
X38170000Y-23320000D02*
X39500000Y-23320000D01*
X38170000Y-24650000D02*
X38170000Y-23320000D01*
X38170000Y-25920000D02*
X38170000Y-33600000D01*
X38170000Y-25920000D02*
X40830000Y-25920000D01*
X38170000Y-33600000D02*
X40830000Y-33600000D01*
X40830000Y-25920000D02*
X40830000Y-33600000D01*
X40390000Y-40240000D02*
X40390000Y-40305000D01*
X40936529Y-40240000D02*
X40390000Y-40240000D01*
X42610000Y-40240000D02*
X40390000Y-40240000D01*
X42610000Y-40240000D02*
X42063471Y-40240000D01*
X42610000Y-40240000D02*
X42610000Y-40305000D01*
X42610000Y-41000000D02*
X42610000Y-41760000D01*
X42610000Y-41760000D02*
X41500000Y-41760000D01*
X40390000Y-15990000D02*
X41500000Y-15990000D01*
X40390000Y-16750000D02*
X40390000Y-15990000D01*
X40390000Y-17510000D02*
X40390000Y-17445000D01*
X40390000Y-17510000D02*
X40936529Y-17510000D01*
X40390000Y-17510000D02*
X42610000Y-17510000D01*
X42063471Y-17510000D02*
X42610000Y-17510000D01*
X42610000Y-17510000D02*
X42610000Y-17445000D01*
X21640000Y-40240000D02*
X21640000Y-40305000D01*
X22186529Y-40240000D02*
X21640000Y-40240000D01*
X23860000Y-40240000D02*
X21640000Y-40240000D01*
X23860000Y-40240000D02*
X23313471Y-40240000D01*
X23860000Y-40240000D02*
X23860000Y-40305000D01*
X23860000Y-41000000D02*
X23860000Y-41760000D01*
X23860000Y-41760000D02*
X22750000Y-41760000D01*
X21390000Y-15990000D02*
X22500000Y-15990000D01*
X21390000Y-16750000D02*
X21390000Y-15990000D01*
X21390000Y-17510000D02*
X21390000Y-17445000D01*
X21390000Y-17510000D02*
X21936529Y-17510000D01*
X21390000Y-17510000D02*
X23610000Y-17510000D01*
X23063471Y-17510000D02*
X23610000Y-17510000D01*
X23610000Y-17510000D02*
X23610000Y-17445000D01*
D10*
X29060000Y-24930000D02*
X29060000Y-24930000D01*
X29160000Y-24930000D02*
X29160000Y-24930000D01*
D14*
X33710000Y-23810000D02*
X29610000Y-23810000D01*
X33710000Y-35810000D02*
X29610000Y-35810000D01*
D10*
X29060000Y-24930000D02*
G75*
G02*
X29160000Y-24930000I50000J0D01*
G01*
X29160000Y-24930000D02*
G75*
G02*
X29060000Y-24930000I-50000J0D01*
G01*
D13*
X28740000Y-20390580D02*
X28740000Y-20109420D01*
X29760000Y-20390580D02*
X29760000Y-20109420D01*
M02*
