%TF.GenerationSoftware,KiCad,Pcbnew,8.0.01-1-dev-1e03266dfe*%
%TF.CreationDate,2024-03-02T01:48:11-08:00*%
%TF.ProjectId,sfh7074_breakoutboard,73666837-3037-4345-9f62-7265616b6f75,rev?*%
%TF.SameCoordinates,Original*%
%TF.FileFunction,Drillmap*%
%TF.FilePolarity,Positive*%
%FSLAX45Y45*%
G04 Gerber Fmt 4.5, Leading zero omitted, Abs format (unit mm)*
G04 Created by KiCad (PCBNEW 8.0.01-1-dev-1e03266dfe) date 2024-03-02 01:48:11*
%MOMM*%
%LPD*%
G01*
G04 APERTURE LIST*
%ADD10C,0.050000*%
%ADD11C,0.200000*%
G04 APERTURE END LIST*
D10*
X1975000Y-1450000D02*
X4425000Y-1450000D01*
X4425000Y-4300000D01*
X1975000Y-4300000D01*
X1975000Y-1450000D01*
D11*
X2233277Y-4613984D02*
X2233277Y-4413984D01*
X2233277Y-4413984D02*
X2280896Y-4413984D01*
X2280896Y-4413984D02*
X2309467Y-4423508D01*
X2309467Y-4423508D02*
X2328515Y-4442555D01*
X2328515Y-4442555D02*
X2338039Y-4461603D01*
X2338039Y-4461603D02*
X2347563Y-4499698D01*
X2347563Y-4499698D02*
X2347563Y-4528270D01*
X2347563Y-4528270D02*
X2338039Y-4566365D01*
X2338039Y-4566365D02*
X2328515Y-4585412D01*
X2328515Y-4585412D02*
X2309467Y-4604460D01*
X2309467Y-4604460D02*
X2280896Y-4613984D01*
X2280896Y-4613984D02*
X2233277Y-4613984D01*
X2433277Y-4613984D02*
X2433277Y-4480650D01*
X2433277Y-4518746D02*
X2442801Y-4499698D01*
X2442801Y-4499698D02*
X2452324Y-4490174D01*
X2452324Y-4490174D02*
X2471372Y-4480650D01*
X2471372Y-4480650D02*
X2490420Y-4480650D01*
X2557086Y-4613984D02*
X2557086Y-4480650D01*
X2557086Y-4413984D02*
X2547563Y-4423508D01*
X2547563Y-4423508D02*
X2557086Y-4433031D01*
X2557086Y-4433031D02*
X2566610Y-4423508D01*
X2566610Y-4423508D02*
X2557086Y-4413984D01*
X2557086Y-4413984D02*
X2557086Y-4433031D01*
X2680896Y-4613984D02*
X2661848Y-4604460D01*
X2661848Y-4604460D02*
X2652324Y-4585412D01*
X2652324Y-4585412D02*
X2652324Y-4413984D01*
X2785658Y-4613984D02*
X2766610Y-4604460D01*
X2766610Y-4604460D02*
X2757086Y-4585412D01*
X2757086Y-4585412D02*
X2757086Y-4413984D01*
X3014229Y-4613984D02*
X3014229Y-4413984D01*
X3014229Y-4413984D02*
X3080896Y-4556841D01*
X3080896Y-4556841D02*
X3147562Y-4413984D01*
X3147562Y-4413984D02*
X3147562Y-4613984D01*
X3328515Y-4613984D02*
X3328515Y-4509222D01*
X3328515Y-4509222D02*
X3318991Y-4490174D01*
X3318991Y-4490174D02*
X3299943Y-4480650D01*
X3299943Y-4480650D02*
X3261848Y-4480650D01*
X3261848Y-4480650D02*
X3242801Y-4490174D01*
X3328515Y-4604460D02*
X3309467Y-4613984D01*
X3309467Y-4613984D02*
X3261848Y-4613984D01*
X3261848Y-4613984D02*
X3242801Y-4604460D01*
X3242801Y-4604460D02*
X3233277Y-4585412D01*
X3233277Y-4585412D02*
X3233277Y-4566365D01*
X3233277Y-4566365D02*
X3242801Y-4547317D01*
X3242801Y-4547317D02*
X3261848Y-4537793D01*
X3261848Y-4537793D02*
X3309467Y-4537793D01*
X3309467Y-4537793D02*
X3328515Y-4528270D01*
X3423753Y-4480650D02*
X3423753Y-4680650D01*
X3423753Y-4490174D02*
X3442801Y-4480650D01*
X3442801Y-4480650D02*
X3480896Y-4480650D01*
X3480896Y-4480650D02*
X3499943Y-4490174D01*
X3499943Y-4490174D02*
X3509467Y-4499698D01*
X3509467Y-4499698D02*
X3518991Y-4518746D01*
X3518991Y-4518746D02*
X3518991Y-4575889D01*
X3518991Y-4575889D02*
X3509467Y-4594936D01*
X3509467Y-4594936D02*
X3499943Y-4604460D01*
X3499943Y-4604460D02*
X3480896Y-4613984D01*
X3480896Y-4613984D02*
X3442801Y-4613984D01*
X3442801Y-4613984D02*
X3423753Y-4604460D01*
X3604705Y-4594936D02*
X3614229Y-4604460D01*
X3614229Y-4604460D02*
X3604705Y-4613984D01*
X3604705Y-4613984D02*
X3595182Y-4604460D01*
X3595182Y-4604460D02*
X3604705Y-4594936D01*
X3604705Y-4594936D02*
X3604705Y-4613984D01*
X3604705Y-4490174D02*
X3614229Y-4499698D01*
X3614229Y-4499698D02*
X3604705Y-4509222D01*
X3604705Y-4509222D02*
X3595182Y-4499698D01*
X3595182Y-4499698D02*
X3604705Y-4490174D01*
X3604705Y-4490174D02*
X3604705Y-4509222D01*
M02*
