%TF.GenerationSoftware,KiCad,Pcbnew,8.0.01-1-dev-1e03266dfe*%
%TF.CreationDate,2024-03-02T01:48:11-08:00*%
%TF.ProjectId,sfh7074_breakoutboard,73666837-3037-4345-9f62-7265616b6f75,rev?*%
%TF.SameCoordinates,Original*%
%TF.FileFunction,Drillmap*%
%TF.FilePolarity,Positive*%
%FSLAX45Y45*%
G04 Gerber Fmt 4.5, Leading zero omitted, Abs format (unit mm)*
G04 Created by KiCad (PCBNEW 8.0.01-1-dev-1e03266dfe) date 2024-03-02 01:48:11*
%MOMM*%
%LPD*%
G01*
G04 APERTURE LIST*
%ADD10C,0.050000*%
%ADD11C,0.200000*%
%ADD12C,0.100000*%
G04 APERTURE END LIST*
D10*
X1975000Y-1450000D02*
X4425000Y-1450000D01*
X4425000Y-4300000D01*
X1975000Y-4300000D01*
X1975000Y-1450000D01*
D11*
D12*
X3205000Y-1930000D02*
X3245000Y-1970000D01*
X3245000Y-1930000D02*
X3205000Y-1970000D01*
X3605000Y-2305000D02*
X3645000Y-2345000D01*
X3645000Y-2305000D02*
X3605000Y-2345000D01*
X3605000Y-2680000D02*
X3645000Y-2720000D01*
X3645000Y-2680000D02*
X3605000Y-2720000D01*
X2282500Y-1675000D02*
G75*
G02*
X2217500Y-1675000I-32500J0D01*
G01*
X2217500Y-1675000D02*
G75*
G02*
X2282500Y-1675000I32500J0D01*
G01*
X2307500Y-4100000D02*
G75*
G02*
X2242500Y-4100000I-32500J0D01*
G01*
X2242500Y-4100000D02*
G75*
G02*
X2307500Y-4100000I32500J0D01*
G01*
X4182500Y-1675000D02*
G75*
G02*
X4117500Y-1675000I-32500J0D01*
G01*
X4117500Y-1675000D02*
G75*
G02*
X4182500Y-1675000I32500J0D01*
G01*
X4182500Y-4100000D02*
G75*
G02*
X4117500Y-4100000I-32500J0D01*
G01*
X4117500Y-4100000D02*
G75*
G02*
X4182500Y-4100000I32500J0D01*
G01*
X2400000Y-2050000D02*
X2400000Y-2150000D01*
X2350000Y-2100000D02*
X2450000Y-2100000D01*
X2400000Y-2304000D02*
X2400000Y-2404000D01*
X2350000Y-2354000D02*
X2450000Y-2354000D01*
X2400000Y-2558000D02*
X2400000Y-2658000D01*
X2350000Y-2608000D02*
X2450000Y-2608000D01*
X2400000Y-2812000D02*
X2400000Y-2912000D01*
X2350000Y-2862000D02*
X2450000Y-2862000D01*
X2400000Y-3066000D02*
X2400000Y-3166000D01*
X2350000Y-3116000D02*
X2450000Y-3116000D01*
X2400000Y-3320000D02*
X2400000Y-3420000D01*
X2350000Y-3370000D02*
X2450000Y-3370000D01*
X2400000Y-3574000D02*
X2400000Y-3674000D01*
X2350000Y-3624000D02*
X2450000Y-3624000D01*
X3950000Y-2415000D02*
X3950000Y-2515000D01*
X3900000Y-2465000D02*
X4000000Y-2465000D01*
X3950000Y-2669000D02*
X3950000Y-2769000D01*
X3900000Y-2719000D02*
X4000000Y-2719000D01*
X3950000Y-2923000D02*
X3950000Y-3023000D01*
X3900000Y-2973000D02*
X4000000Y-2973000D01*
X3950000Y-3177000D02*
X3950000Y-3277000D01*
X3900000Y-3227000D02*
X4000000Y-3227000D01*
D11*
X2233277Y-4613984D02*
X2233277Y-4413984D01*
X2233277Y-4413984D02*
X2280896Y-4413984D01*
X2280896Y-4413984D02*
X2309467Y-4423508D01*
X2309467Y-4423508D02*
X2328515Y-4442555D01*
X2328515Y-4442555D02*
X2338039Y-4461603D01*
X2338039Y-4461603D02*
X2347563Y-4499698D01*
X2347563Y-4499698D02*
X2347563Y-4528270D01*
X2347563Y-4528270D02*
X2338039Y-4566365D01*
X2338039Y-4566365D02*
X2328515Y-4585412D01*
X2328515Y-4585412D02*
X2309467Y-4604460D01*
X2309467Y-4604460D02*
X2280896Y-4613984D01*
X2280896Y-4613984D02*
X2233277Y-4613984D01*
X2433277Y-4613984D02*
X2433277Y-4480650D01*
X2433277Y-4518746D02*
X2442801Y-4499698D01*
X2442801Y-4499698D02*
X2452324Y-4490174D01*
X2452324Y-4490174D02*
X2471372Y-4480650D01*
X2471372Y-4480650D02*
X2490420Y-4480650D01*
X2557086Y-4613984D02*
X2557086Y-4480650D01*
X2557086Y-4413984D02*
X2547563Y-4423508D01*
X2547563Y-4423508D02*
X2557086Y-4433031D01*
X2557086Y-4433031D02*
X2566610Y-4423508D01*
X2566610Y-4423508D02*
X2557086Y-4413984D01*
X2557086Y-4413984D02*
X2557086Y-4433031D01*
X2680896Y-4613984D02*
X2661848Y-4604460D01*
X2661848Y-4604460D02*
X2652324Y-4585412D01*
X2652324Y-4585412D02*
X2652324Y-4413984D01*
X2785658Y-4613984D02*
X2766610Y-4604460D01*
X2766610Y-4604460D02*
X2757086Y-4585412D01*
X2757086Y-4585412D02*
X2757086Y-4413984D01*
X3014229Y-4613984D02*
X3014229Y-4413984D01*
X3014229Y-4413984D02*
X3080896Y-4556841D01*
X3080896Y-4556841D02*
X3147562Y-4413984D01*
X3147562Y-4413984D02*
X3147562Y-4613984D01*
X3328515Y-4613984D02*
X3328515Y-4509222D01*
X3328515Y-4509222D02*
X3318991Y-4490174D01*
X3318991Y-4490174D02*
X3299943Y-4480650D01*
X3299943Y-4480650D02*
X3261848Y-4480650D01*
X3261848Y-4480650D02*
X3242801Y-4490174D01*
X3328515Y-4604460D02*
X3309467Y-4613984D01*
X3309467Y-4613984D02*
X3261848Y-4613984D01*
X3261848Y-4613984D02*
X3242801Y-4604460D01*
X3242801Y-4604460D02*
X3233277Y-4585412D01*
X3233277Y-4585412D02*
X3233277Y-4566365D01*
X3233277Y-4566365D02*
X3242801Y-4547317D01*
X3242801Y-4547317D02*
X3261848Y-4537793D01*
X3261848Y-4537793D02*
X3309467Y-4537793D01*
X3309467Y-4537793D02*
X3328515Y-4528270D01*
X3423753Y-4480650D02*
X3423753Y-4680650D01*
X3423753Y-4490174D02*
X3442801Y-4480650D01*
X3442801Y-4480650D02*
X3480896Y-4480650D01*
X3480896Y-4480650D02*
X3499943Y-4490174D01*
X3499943Y-4490174D02*
X3509467Y-4499698D01*
X3509467Y-4499698D02*
X3518991Y-4518746D01*
X3518991Y-4518746D02*
X3518991Y-4575889D01*
X3518991Y-4575889D02*
X3509467Y-4594936D01*
X3509467Y-4594936D02*
X3499943Y-4604460D01*
X3499943Y-4604460D02*
X3480896Y-4613984D01*
X3480896Y-4613984D02*
X3442801Y-4613984D01*
X3442801Y-4613984D02*
X3423753Y-4604460D01*
X3604705Y-4594936D02*
X3614229Y-4604460D01*
X3614229Y-4604460D02*
X3604705Y-4613984D01*
X3604705Y-4613984D02*
X3595182Y-4604460D01*
X3595182Y-4604460D02*
X3604705Y-4594936D01*
X3604705Y-4594936D02*
X3604705Y-4613984D01*
X3604705Y-4490174D02*
X3614229Y-4499698D01*
X3614229Y-4499698D02*
X3604705Y-4509222D01*
X3604705Y-4509222D02*
X3595182Y-4499698D01*
X3595182Y-4499698D02*
X3604705Y-4490174D01*
X3604705Y-4490174D02*
X3604705Y-4509222D01*
D12*
X1932500Y-4922500D02*
X1972500Y-4962500D01*
X1972500Y-4922500D02*
X1932500Y-4962500D01*
D11*
X2271372Y-4833984D02*
X2290420Y-4833984D01*
X2290420Y-4833984D02*
X2309467Y-4843508D01*
X2309467Y-4843508D02*
X2318991Y-4853031D01*
X2318991Y-4853031D02*
X2328515Y-4872079D01*
X2328515Y-4872079D02*
X2338039Y-4910174D01*
X2338039Y-4910174D02*
X2338039Y-4957793D01*
X2338039Y-4957793D02*
X2328515Y-4995889D01*
X2328515Y-4995889D02*
X2318991Y-5014936D01*
X2318991Y-5014936D02*
X2309467Y-5024460D01*
X2309467Y-5024460D02*
X2290420Y-5033984D01*
X2290420Y-5033984D02*
X2271372Y-5033984D01*
X2271372Y-5033984D02*
X2252324Y-5024460D01*
X2252324Y-5024460D02*
X2242801Y-5014936D01*
X2242801Y-5014936D02*
X2233277Y-4995889D01*
X2233277Y-4995889D02*
X2223753Y-4957793D01*
X2223753Y-4957793D02*
X2223753Y-4910174D01*
X2223753Y-4910174D02*
X2233277Y-4872079D01*
X2233277Y-4872079D02*
X2242801Y-4853031D01*
X2242801Y-4853031D02*
X2252324Y-4843508D01*
X2252324Y-4843508D02*
X2271372Y-4833984D01*
X2423753Y-5014936D02*
X2433277Y-5024460D01*
X2433277Y-5024460D02*
X2423753Y-5033984D01*
X2423753Y-5033984D02*
X2414229Y-5024460D01*
X2414229Y-5024460D02*
X2423753Y-5014936D01*
X2423753Y-5014936D02*
X2423753Y-5033984D01*
X2604705Y-4900650D02*
X2604705Y-5033984D01*
X2557086Y-4824460D02*
X2509467Y-4967317D01*
X2509467Y-4967317D02*
X2633277Y-4967317D01*
X2747563Y-4833984D02*
X2766610Y-4833984D01*
X2766610Y-4833984D02*
X2785658Y-4843508D01*
X2785658Y-4843508D02*
X2795182Y-4853031D01*
X2795182Y-4853031D02*
X2804705Y-4872079D01*
X2804705Y-4872079D02*
X2814229Y-4910174D01*
X2814229Y-4910174D02*
X2814229Y-4957793D01*
X2814229Y-4957793D02*
X2804705Y-4995889D01*
X2804705Y-4995889D02*
X2795182Y-5014936D01*
X2795182Y-5014936D02*
X2785658Y-5024460D01*
X2785658Y-5024460D02*
X2766610Y-5033984D01*
X2766610Y-5033984D02*
X2747563Y-5033984D01*
X2747563Y-5033984D02*
X2728515Y-5024460D01*
X2728515Y-5024460D02*
X2718991Y-5014936D01*
X2718991Y-5014936D02*
X2709467Y-4995889D01*
X2709467Y-4995889D02*
X2699944Y-4957793D01*
X2699944Y-4957793D02*
X2699944Y-4910174D01*
X2699944Y-4910174D02*
X2709467Y-4872079D01*
X2709467Y-4872079D02*
X2718991Y-4853031D01*
X2718991Y-4853031D02*
X2728515Y-4843508D01*
X2728515Y-4843508D02*
X2747563Y-4833984D01*
X2938039Y-4833984D02*
X2957086Y-4833984D01*
X2957086Y-4833984D02*
X2976134Y-4843508D01*
X2976134Y-4843508D02*
X2985658Y-4853031D01*
X2985658Y-4853031D02*
X2995182Y-4872079D01*
X2995182Y-4872079D02*
X3004705Y-4910174D01*
X3004705Y-4910174D02*
X3004705Y-4957793D01*
X3004705Y-4957793D02*
X2995182Y-4995889D01*
X2995182Y-4995889D02*
X2985658Y-5014936D01*
X2985658Y-5014936D02*
X2976134Y-5024460D01*
X2976134Y-5024460D02*
X2957086Y-5033984D01*
X2957086Y-5033984D02*
X2938039Y-5033984D01*
X2938039Y-5033984D02*
X2918991Y-5024460D01*
X2918991Y-5024460D02*
X2909467Y-5014936D01*
X2909467Y-5014936D02*
X2899943Y-4995889D01*
X2899943Y-4995889D02*
X2890420Y-4957793D01*
X2890420Y-4957793D02*
X2890420Y-4910174D01*
X2890420Y-4910174D02*
X2899943Y-4872079D01*
X2899943Y-4872079D02*
X2909467Y-4853031D01*
X2909467Y-4853031D02*
X2918991Y-4843508D01*
X2918991Y-4843508D02*
X2938039Y-4833984D01*
X3090420Y-5033984D02*
X3090420Y-4900650D01*
X3090420Y-4919698D02*
X3099943Y-4910174D01*
X3099943Y-4910174D02*
X3118991Y-4900650D01*
X3118991Y-4900650D02*
X3147563Y-4900650D01*
X3147563Y-4900650D02*
X3166610Y-4910174D01*
X3166610Y-4910174D02*
X3176134Y-4929222D01*
X3176134Y-4929222D02*
X3176134Y-5033984D01*
X3176134Y-4929222D02*
X3185658Y-4910174D01*
X3185658Y-4910174D02*
X3204705Y-4900650D01*
X3204705Y-4900650D02*
X3233277Y-4900650D01*
X3233277Y-4900650D02*
X3252324Y-4910174D01*
X3252324Y-4910174D02*
X3261848Y-4929222D01*
X3261848Y-4929222D02*
X3261848Y-5033984D01*
X3357086Y-5033984D02*
X3357086Y-4900650D01*
X3357086Y-4919698D02*
X3366610Y-4910174D01*
X3366610Y-4910174D02*
X3385658Y-4900650D01*
X3385658Y-4900650D02*
X3414229Y-4900650D01*
X3414229Y-4900650D02*
X3433277Y-4910174D01*
X3433277Y-4910174D02*
X3442801Y-4929222D01*
X3442801Y-4929222D02*
X3442801Y-5033984D01*
X3442801Y-4929222D02*
X3452324Y-4910174D01*
X3452324Y-4910174D02*
X3471372Y-4900650D01*
X3471372Y-4900650D02*
X3499943Y-4900650D01*
X3499943Y-4900650D02*
X3518991Y-4910174D01*
X3518991Y-4910174D02*
X3528515Y-4929222D01*
X3528515Y-4929222D02*
X3528515Y-5033984D01*
X3918991Y-4824460D02*
X3747563Y-5081603D01*
X4176134Y-4833984D02*
X4195182Y-4833984D01*
X4195182Y-4833984D02*
X4214229Y-4843508D01*
X4214229Y-4843508D02*
X4223753Y-4853031D01*
X4223753Y-4853031D02*
X4233277Y-4872079D01*
X4233277Y-4872079D02*
X4242801Y-4910174D01*
X4242801Y-4910174D02*
X4242801Y-4957793D01*
X4242801Y-4957793D02*
X4233277Y-4995889D01*
X4233277Y-4995889D02*
X4223753Y-5014936D01*
X4223753Y-5014936D02*
X4214229Y-5024460D01*
X4214229Y-5024460D02*
X4195182Y-5033984D01*
X4195182Y-5033984D02*
X4176134Y-5033984D01*
X4176134Y-5033984D02*
X4157086Y-5024460D01*
X4157086Y-5024460D02*
X4147563Y-5014936D01*
X4147563Y-5014936D02*
X4138039Y-4995889D01*
X4138039Y-4995889D02*
X4128515Y-4957793D01*
X4128515Y-4957793D02*
X4128515Y-4910174D01*
X4128515Y-4910174D02*
X4138039Y-4872079D01*
X4138039Y-4872079D02*
X4147563Y-4853031D01*
X4147563Y-4853031D02*
X4157086Y-4843508D01*
X4157086Y-4843508D02*
X4176134Y-4833984D01*
X4328515Y-5014936D02*
X4338039Y-5024460D01*
X4338039Y-5024460D02*
X4328515Y-5033984D01*
X4328515Y-5033984D02*
X4318991Y-5024460D01*
X4318991Y-5024460D02*
X4328515Y-5014936D01*
X4328515Y-5014936D02*
X4328515Y-5033984D01*
X4461848Y-4833984D02*
X4480896Y-4833984D01*
X4480896Y-4833984D02*
X4499944Y-4843508D01*
X4499944Y-4843508D02*
X4509468Y-4853031D01*
X4509468Y-4853031D02*
X4518991Y-4872079D01*
X4518991Y-4872079D02*
X4528515Y-4910174D01*
X4528515Y-4910174D02*
X4528515Y-4957793D01*
X4528515Y-4957793D02*
X4518991Y-4995889D01*
X4518991Y-4995889D02*
X4509468Y-5014936D01*
X4509468Y-5014936D02*
X4499944Y-5024460D01*
X4499944Y-5024460D02*
X4480896Y-5033984D01*
X4480896Y-5033984D02*
X4461848Y-5033984D01*
X4461848Y-5033984D02*
X4442801Y-5024460D01*
X4442801Y-5024460D02*
X4433277Y-5014936D01*
X4433277Y-5014936D02*
X4423753Y-4995889D01*
X4423753Y-4995889D02*
X4414229Y-4957793D01*
X4414229Y-4957793D02*
X4414229Y-4910174D01*
X4414229Y-4910174D02*
X4423753Y-4872079D01*
X4423753Y-4872079D02*
X4433277Y-4853031D01*
X4433277Y-4853031D02*
X4442801Y-4843508D01*
X4442801Y-4843508D02*
X4461848Y-4833984D01*
X4718991Y-5033984D02*
X4604706Y-5033984D01*
X4661848Y-5033984D02*
X4661848Y-4833984D01*
X4661848Y-4833984D02*
X4642801Y-4862555D01*
X4642801Y-4862555D02*
X4623753Y-4881603D01*
X4623753Y-4881603D02*
X4604706Y-4891127D01*
X4899944Y-4833984D02*
X4804706Y-4833984D01*
X4804706Y-4833984D02*
X4795182Y-4929222D01*
X4795182Y-4929222D02*
X4804706Y-4919698D01*
X4804706Y-4919698D02*
X4823753Y-4910174D01*
X4823753Y-4910174D02*
X4871372Y-4910174D01*
X4871372Y-4910174D02*
X4890420Y-4919698D01*
X4890420Y-4919698D02*
X4899944Y-4929222D01*
X4899944Y-4929222D02*
X4909468Y-4948270D01*
X4909468Y-4948270D02*
X4909468Y-4995889D01*
X4909468Y-4995889D02*
X4899944Y-5014936D01*
X4899944Y-5014936D02*
X4890420Y-5024460D01*
X4890420Y-5024460D02*
X4871372Y-5033984D01*
X4871372Y-5033984D02*
X4823753Y-5033984D01*
X4823753Y-5033984D02*
X4804706Y-5024460D01*
X4804706Y-5024460D02*
X4795182Y-5014936D01*
X4976134Y-4833984D02*
X5109468Y-4833984D01*
X5109468Y-4833984D02*
X5023753Y-5033984D01*
X5176134Y-4833984D02*
X5176134Y-4872079D01*
X5252325Y-4833984D02*
X5252325Y-4872079D01*
X5547563Y-5110174D02*
X5538039Y-5100650D01*
X5538039Y-5100650D02*
X5518991Y-5072079D01*
X5518991Y-5072079D02*
X5509468Y-5053031D01*
X5509468Y-5053031D02*
X5499944Y-5024460D01*
X5499944Y-5024460D02*
X5490420Y-4976841D01*
X5490420Y-4976841D02*
X5490420Y-4938746D01*
X5490420Y-4938746D02*
X5499944Y-4891127D01*
X5499944Y-4891127D02*
X5509468Y-4862555D01*
X5509468Y-4862555D02*
X5518991Y-4843508D01*
X5518991Y-4843508D02*
X5538039Y-4814936D01*
X5538039Y-4814936D02*
X5547563Y-4805412D01*
X5604706Y-4833984D02*
X5728515Y-4833984D01*
X5728515Y-4833984D02*
X5661848Y-4910174D01*
X5661848Y-4910174D02*
X5690420Y-4910174D01*
X5690420Y-4910174D02*
X5709468Y-4919698D01*
X5709468Y-4919698D02*
X5718991Y-4929222D01*
X5718991Y-4929222D02*
X5728515Y-4948270D01*
X5728515Y-4948270D02*
X5728515Y-4995889D01*
X5728515Y-4995889D02*
X5718991Y-5014936D01*
X5718991Y-5014936D02*
X5709468Y-5024460D01*
X5709468Y-5024460D02*
X5690420Y-5033984D01*
X5690420Y-5033984D02*
X5633277Y-5033984D01*
X5633277Y-5033984D02*
X5614229Y-5024460D01*
X5614229Y-5024460D02*
X5604706Y-5014936D01*
X5966610Y-5033984D02*
X5966610Y-4833984D01*
X6052325Y-5033984D02*
X6052325Y-4929222D01*
X6052325Y-4929222D02*
X6042801Y-4910174D01*
X6042801Y-4910174D02*
X6023753Y-4900650D01*
X6023753Y-4900650D02*
X5995182Y-4900650D01*
X5995182Y-4900650D02*
X5976134Y-4910174D01*
X5976134Y-4910174D02*
X5966610Y-4919698D01*
X6176134Y-5033984D02*
X6157087Y-5024460D01*
X6157087Y-5024460D02*
X6147563Y-5014936D01*
X6147563Y-5014936D02*
X6138039Y-4995889D01*
X6138039Y-4995889D02*
X6138039Y-4938746D01*
X6138039Y-4938746D02*
X6147563Y-4919698D01*
X6147563Y-4919698D02*
X6157087Y-4910174D01*
X6157087Y-4910174D02*
X6176134Y-4900650D01*
X6176134Y-4900650D02*
X6204706Y-4900650D01*
X6204706Y-4900650D02*
X6223753Y-4910174D01*
X6223753Y-4910174D02*
X6233277Y-4919698D01*
X6233277Y-4919698D02*
X6242801Y-4938746D01*
X6242801Y-4938746D02*
X6242801Y-4995889D01*
X6242801Y-4995889D02*
X6233277Y-5014936D01*
X6233277Y-5014936D02*
X6223753Y-5024460D01*
X6223753Y-5024460D02*
X6204706Y-5033984D01*
X6204706Y-5033984D02*
X6176134Y-5033984D01*
X6357087Y-5033984D02*
X6338039Y-5024460D01*
X6338039Y-5024460D02*
X6328515Y-5005412D01*
X6328515Y-5005412D02*
X6328515Y-4833984D01*
X6509468Y-5024460D02*
X6490420Y-5033984D01*
X6490420Y-5033984D02*
X6452325Y-5033984D01*
X6452325Y-5033984D02*
X6433277Y-5024460D01*
X6433277Y-5024460D02*
X6423753Y-5005412D01*
X6423753Y-5005412D02*
X6423753Y-4929222D01*
X6423753Y-4929222D02*
X6433277Y-4910174D01*
X6433277Y-4910174D02*
X6452325Y-4900650D01*
X6452325Y-4900650D02*
X6490420Y-4900650D01*
X6490420Y-4900650D02*
X6509468Y-4910174D01*
X6509468Y-4910174D02*
X6518991Y-4929222D01*
X6518991Y-4929222D02*
X6518991Y-4948270D01*
X6518991Y-4948270D02*
X6423753Y-4967317D01*
X6595182Y-5024460D02*
X6614230Y-5033984D01*
X6614230Y-5033984D02*
X6652325Y-5033984D01*
X6652325Y-5033984D02*
X6671372Y-5024460D01*
X6671372Y-5024460D02*
X6680896Y-5005412D01*
X6680896Y-5005412D02*
X6680896Y-4995889D01*
X6680896Y-4995889D02*
X6671372Y-4976841D01*
X6671372Y-4976841D02*
X6652325Y-4967317D01*
X6652325Y-4967317D02*
X6623753Y-4967317D01*
X6623753Y-4967317D02*
X6604706Y-4957793D01*
X6604706Y-4957793D02*
X6595182Y-4938746D01*
X6595182Y-4938746D02*
X6595182Y-4929222D01*
X6595182Y-4929222D02*
X6604706Y-4910174D01*
X6604706Y-4910174D02*
X6623753Y-4900650D01*
X6623753Y-4900650D02*
X6652325Y-4900650D01*
X6652325Y-4900650D02*
X6671372Y-4910174D01*
X6747563Y-5110174D02*
X6757087Y-5100650D01*
X6757087Y-5100650D02*
X6776134Y-5072079D01*
X6776134Y-5072079D02*
X6785658Y-5053031D01*
X6785658Y-5053031D02*
X6795182Y-5024460D01*
X6795182Y-5024460D02*
X6804706Y-4976841D01*
X6804706Y-4976841D02*
X6804706Y-4938746D01*
X6804706Y-4938746D02*
X6795182Y-4891127D01*
X6795182Y-4891127D02*
X6785658Y-4862555D01*
X6785658Y-4862555D02*
X6776134Y-4843508D01*
X6776134Y-4843508D02*
X6757087Y-4814936D01*
X6757087Y-4814936D02*
X6747563Y-4805412D01*
D12*
X1972500Y-5206500D02*
G75*
G02*
X1907500Y-5206500I-32500J0D01*
G01*
X1907500Y-5206500D02*
G75*
G02*
X1972500Y-5206500I32500J0D01*
G01*
D11*
X2271372Y-5097984D02*
X2290420Y-5097984D01*
X2290420Y-5097984D02*
X2309467Y-5107508D01*
X2309467Y-5107508D02*
X2318991Y-5117031D01*
X2318991Y-5117031D02*
X2328515Y-5136079D01*
X2328515Y-5136079D02*
X2338039Y-5174174D01*
X2338039Y-5174174D02*
X2338039Y-5221793D01*
X2338039Y-5221793D02*
X2328515Y-5259889D01*
X2328515Y-5259889D02*
X2318991Y-5278936D01*
X2318991Y-5278936D02*
X2309467Y-5288460D01*
X2309467Y-5288460D02*
X2290420Y-5297984D01*
X2290420Y-5297984D02*
X2271372Y-5297984D01*
X2271372Y-5297984D02*
X2252324Y-5288460D01*
X2252324Y-5288460D02*
X2242801Y-5278936D01*
X2242801Y-5278936D02*
X2233277Y-5259889D01*
X2233277Y-5259889D02*
X2223753Y-5221793D01*
X2223753Y-5221793D02*
X2223753Y-5174174D01*
X2223753Y-5174174D02*
X2233277Y-5136079D01*
X2233277Y-5136079D02*
X2242801Y-5117031D01*
X2242801Y-5117031D02*
X2252324Y-5107508D01*
X2252324Y-5107508D02*
X2271372Y-5097984D01*
X2423753Y-5278936D02*
X2433277Y-5288460D01*
X2433277Y-5288460D02*
X2423753Y-5297984D01*
X2423753Y-5297984D02*
X2414229Y-5288460D01*
X2414229Y-5288460D02*
X2423753Y-5278936D01*
X2423753Y-5278936D02*
X2423753Y-5297984D01*
X2604705Y-5097984D02*
X2566610Y-5097984D01*
X2566610Y-5097984D02*
X2547563Y-5107508D01*
X2547563Y-5107508D02*
X2538039Y-5117031D01*
X2538039Y-5117031D02*
X2518991Y-5145603D01*
X2518991Y-5145603D02*
X2509467Y-5183698D01*
X2509467Y-5183698D02*
X2509467Y-5259889D01*
X2509467Y-5259889D02*
X2518991Y-5278936D01*
X2518991Y-5278936D02*
X2528515Y-5288460D01*
X2528515Y-5288460D02*
X2547563Y-5297984D01*
X2547563Y-5297984D02*
X2585658Y-5297984D01*
X2585658Y-5297984D02*
X2604705Y-5288460D01*
X2604705Y-5288460D02*
X2614229Y-5278936D01*
X2614229Y-5278936D02*
X2623753Y-5259889D01*
X2623753Y-5259889D02*
X2623753Y-5212270D01*
X2623753Y-5212270D02*
X2614229Y-5193222D01*
X2614229Y-5193222D02*
X2604705Y-5183698D01*
X2604705Y-5183698D02*
X2585658Y-5174174D01*
X2585658Y-5174174D02*
X2547563Y-5174174D01*
X2547563Y-5174174D02*
X2528515Y-5183698D01*
X2528515Y-5183698D02*
X2518991Y-5193222D01*
X2518991Y-5193222D02*
X2509467Y-5212270D01*
X2804705Y-5097984D02*
X2709467Y-5097984D01*
X2709467Y-5097984D02*
X2699944Y-5193222D01*
X2699944Y-5193222D02*
X2709467Y-5183698D01*
X2709467Y-5183698D02*
X2728515Y-5174174D01*
X2728515Y-5174174D02*
X2776134Y-5174174D01*
X2776134Y-5174174D02*
X2795182Y-5183698D01*
X2795182Y-5183698D02*
X2804705Y-5193222D01*
X2804705Y-5193222D02*
X2814229Y-5212270D01*
X2814229Y-5212270D02*
X2814229Y-5259889D01*
X2814229Y-5259889D02*
X2804705Y-5278936D01*
X2804705Y-5278936D02*
X2795182Y-5288460D01*
X2795182Y-5288460D02*
X2776134Y-5297984D01*
X2776134Y-5297984D02*
X2728515Y-5297984D01*
X2728515Y-5297984D02*
X2709467Y-5288460D01*
X2709467Y-5288460D02*
X2699944Y-5278936D01*
X2938039Y-5097984D02*
X2957086Y-5097984D01*
X2957086Y-5097984D02*
X2976134Y-5107508D01*
X2976134Y-5107508D02*
X2985658Y-5117031D01*
X2985658Y-5117031D02*
X2995182Y-5136079D01*
X2995182Y-5136079D02*
X3004705Y-5174174D01*
X3004705Y-5174174D02*
X3004705Y-5221793D01*
X3004705Y-5221793D02*
X2995182Y-5259889D01*
X2995182Y-5259889D02*
X2985658Y-5278936D01*
X2985658Y-5278936D02*
X2976134Y-5288460D01*
X2976134Y-5288460D02*
X2957086Y-5297984D01*
X2957086Y-5297984D02*
X2938039Y-5297984D01*
X2938039Y-5297984D02*
X2918991Y-5288460D01*
X2918991Y-5288460D02*
X2909467Y-5278936D01*
X2909467Y-5278936D02*
X2899943Y-5259889D01*
X2899943Y-5259889D02*
X2890420Y-5221793D01*
X2890420Y-5221793D02*
X2890420Y-5174174D01*
X2890420Y-5174174D02*
X2899943Y-5136079D01*
X2899943Y-5136079D02*
X2909467Y-5117031D01*
X2909467Y-5117031D02*
X2918991Y-5107508D01*
X2918991Y-5107508D02*
X2938039Y-5097984D01*
X3090420Y-5297984D02*
X3090420Y-5164650D01*
X3090420Y-5183698D02*
X3099943Y-5174174D01*
X3099943Y-5174174D02*
X3118991Y-5164650D01*
X3118991Y-5164650D02*
X3147563Y-5164650D01*
X3147563Y-5164650D02*
X3166610Y-5174174D01*
X3166610Y-5174174D02*
X3176134Y-5193222D01*
X3176134Y-5193222D02*
X3176134Y-5297984D01*
X3176134Y-5193222D02*
X3185658Y-5174174D01*
X3185658Y-5174174D02*
X3204705Y-5164650D01*
X3204705Y-5164650D02*
X3233277Y-5164650D01*
X3233277Y-5164650D02*
X3252324Y-5174174D01*
X3252324Y-5174174D02*
X3261848Y-5193222D01*
X3261848Y-5193222D02*
X3261848Y-5297984D01*
X3357086Y-5297984D02*
X3357086Y-5164650D01*
X3357086Y-5183698D02*
X3366610Y-5174174D01*
X3366610Y-5174174D02*
X3385658Y-5164650D01*
X3385658Y-5164650D02*
X3414229Y-5164650D01*
X3414229Y-5164650D02*
X3433277Y-5174174D01*
X3433277Y-5174174D02*
X3442801Y-5193222D01*
X3442801Y-5193222D02*
X3442801Y-5297984D01*
X3442801Y-5193222D02*
X3452324Y-5174174D01*
X3452324Y-5174174D02*
X3471372Y-5164650D01*
X3471372Y-5164650D02*
X3499943Y-5164650D01*
X3499943Y-5164650D02*
X3518991Y-5174174D01*
X3518991Y-5174174D02*
X3528515Y-5193222D01*
X3528515Y-5193222D02*
X3528515Y-5297984D01*
X3918991Y-5088460D02*
X3747563Y-5345603D01*
X4176134Y-5097984D02*
X4195182Y-5097984D01*
X4195182Y-5097984D02*
X4214229Y-5107508D01*
X4214229Y-5107508D02*
X4223753Y-5117031D01*
X4223753Y-5117031D02*
X4233277Y-5136079D01*
X4233277Y-5136079D02*
X4242801Y-5174174D01*
X4242801Y-5174174D02*
X4242801Y-5221793D01*
X4242801Y-5221793D02*
X4233277Y-5259889D01*
X4233277Y-5259889D02*
X4223753Y-5278936D01*
X4223753Y-5278936D02*
X4214229Y-5288460D01*
X4214229Y-5288460D02*
X4195182Y-5297984D01*
X4195182Y-5297984D02*
X4176134Y-5297984D01*
X4176134Y-5297984D02*
X4157086Y-5288460D01*
X4157086Y-5288460D02*
X4147563Y-5278936D01*
X4147563Y-5278936D02*
X4138039Y-5259889D01*
X4138039Y-5259889D02*
X4128515Y-5221793D01*
X4128515Y-5221793D02*
X4128515Y-5174174D01*
X4128515Y-5174174D02*
X4138039Y-5136079D01*
X4138039Y-5136079D02*
X4147563Y-5117031D01*
X4147563Y-5117031D02*
X4157086Y-5107508D01*
X4157086Y-5107508D02*
X4176134Y-5097984D01*
X4328515Y-5278936D02*
X4338039Y-5288460D01*
X4338039Y-5288460D02*
X4328515Y-5297984D01*
X4328515Y-5297984D02*
X4318991Y-5288460D01*
X4318991Y-5288460D02*
X4328515Y-5278936D01*
X4328515Y-5278936D02*
X4328515Y-5297984D01*
X4461848Y-5097984D02*
X4480896Y-5097984D01*
X4480896Y-5097984D02*
X4499944Y-5107508D01*
X4499944Y-5107508D02*
X4509468Y-5117031D01*
X4509468Y-5117031D02*
X4518991Y-5136079D01*
X4518991Y-5136079D02*
X4528515Y-5174174D01*
X4528515Y-5174174D02*
X4528515Y-5221793D01*
X4528515Y-5221793D02*
X4518991Y-5259889D01*
X4518991Y-5259889D02*
X4509468Y-5278936D01*
X4509468Y-5278936D02*
X4499944Y-5288460D01*
X4499944Y-5288460D02*
X4480896Y-5297984D01*
X4480896Y-5297984D02*
X4461848Y-5297984D01*
X4461848Y-5297984D02*
X4442801Y-5288460D01*
X4442801Y-5288460D02*
X4433277Y-5278936D01*
X4433277Y-5278936D02*
X4423753Y-5259889D01*
X4423753Y-5259889D02*
X4414229Y-5221793D01*
X4414229Y-5221793D02*
X4414229Y-5174174D01*
X4414229Y-5174174D02*
X4423753Y-5136079D01*
X4423753Y-5136079D02*
X4433277Y-5117031D01*
X4433277Y-5117031D02*
X4442801Y-5107508D01*
X4442801Y-5107508D02*
X4461848Y-5097984D01*
X4604706Y-5117031D02*
X4614229Y-5107508D01*
X4614229Y-5107508D02*
X4633277Y-5097984D01*
X4633277Y-5097984D02*
X4680896Y-5097984D01*
X4680896Y-5097984D02*
X4699944Y-5107508D01*
X4699944Y-5107508D02*
X4709468Y-5117031D01*
X4709468Y-5117031D02*
X4718991Y-5136079D01*
X4718991Y-5136079D02*
X4718991Y-5155127D01*
X4718991Y-5155127D02*
X4709468Y-5183698D01*
X4709468Y-5183698D02*
X4595182Y-5297984D01*
X4595182Y-5297984D02*
X4718991Y-5297984D01*
X4899944Y-5097984D02*
X4804706Y-5097984D01*
X4804706Y-5097984D02*
X4795182Y-5193222D01*
X4795182Y-5193222D02*
X4804706Y-5183698D01*
X4804706Y-5183698D02*
X4823753Y-5174174D01*
X4823753Y-5174174D02*
X4871372Y-5174174D01*
X4871372Y-5174174D02*
X4890420Y-5183698D01*
X4890420Y-5183698D02*
X4899944Y-5193222D01*
X4899944Y-5193222D02*
X4909468Y-5212270D01*
X4909468Y-5212270D02*
X4909468Y-5259889D01*
X4909468Y-5259889D02*
X4899944Y-5278936D01*
X4899944Y-5278936D02*
X4890420Y-5288460D01*
X4890420Y-5288460D02*
X4871372Y-5297984D01*
X4871372Y-5297984D02*
X4823753Y-5297984D01*
X4823753Y-5297984D02*
X4804706Y-5288460D01*
X4804706Y-5288460D02*
X4795182Y-5278936D01*
X5080896Y-5097984D02*
X5042801Y-5097984D01*
X5042801Y-5097984D02*
X5023753Y-5107508D01*
X5023753Y-5107508D02*
X5014229Y-5117031D01*
X5014229Y-5117031D02*
X4995182Y-5145603D01*
X4995182Y-5145603D02*
X4985658Y-5183698D01*
X4985658Y-5183698D02*
X4985658Y-5259889D01*
X4985658Y-5259889D02*
X4995182Y-5278936D01*
X4995182Y-5278936D02*
X5004706Y-5288460D01*
X5004706Y-5288460D02*
X5023753Y-5297984D01*
X5023753Y-5297984D02*
X5061849Y-5297984D01*
X5061849Y-5297984D02*
X5080896Y-5288460D01*
X5080896Y-5288460D02*
X5090420Y-5278936D01*
X5090420Y-5278936D02*
X5099944Y-5259889D01*
X5099944Y-5259889D02*
X5099944Y-5212270D01*
X5099944Y-5212270D02*
X5090420Y-5193222D01*
X5090420Y-5193222D02*
X5080896Y-5183698D01*
X5080896Y-5183698D02*
X5061849Y-5174174D01*
X5061849Y-5174174D02*
X5023753Y-5174174D01*
X5023753Y-5174174D02*
X5004706Y-5183698D01*
X5004706Y-5183698D02*
X4995182Y-5193222D01*
X4995182Y-5193222D02*
X4985658Y-5212270D01*
X5176134Y-5097984D02*
X5176134Y-5136079D01*
X5252325Y-5097984D02*
X5252325Y-5136079D01*
X5547563Y-5374174D02*
X5538039Y-5364650D01*
X5538039Y-5364650D02*
X5518991Y-5336079D01*
X5518991Y-5336079D02*
X5509468Y-5317031D01*
X5509468Y-5317031D02*
X5499944Y-5288460D01*
X5499944Y-5288460D02*
X5490420Y-5240841D01*
X5490420Y-5240841D02*
X5490420Y-5202746D01*
X5490420Y-5202746D02*
X5499944Y-5155127D01*
X5499944Y-5155127D02*
X5509468Y-5126555D01*
X5509468Y-5126555D02*
X5518991Y-5107508D01*
X5518991Y-5107508D02*
X5538039Y-5078936D01*
X5538039Y-5078936D02*
X5547563Y-5069412D01*
X5709468Y-5164650D02*
X5709468Y-5297984D01*
X5661848Y-5088460D02*
X5614229Y-5231317D01*
X5614229Y-5231317D02*
X5738039Y-5231317D01*
X5966610Y-5297984D02*
X5966610Y-5097984D01*
X6052325Y-5297984D02*
X6052325Y-5193222D01*
X6052325Y-5193222D02*
X6042801Y-5174174D01*
X6042801Y-5174174D02*
X6023753Y-5164650D01*
X6023753Y-5164650D02*
X5995182Y-5164650D01*
X5995182Y-5164650D02*
X5976134Y-5174174D01*
X5976134Y-5174174D02*
X5966610Y-5183698D01*
X6176134Y-5297984D02*
X6157087Y-5288460D01*
X6157087Y-5288460D02*
X6147563Y-5278936D01*
X6147563Y-5278936D02*
X6138039Y-5259889D01*
X6138039Y-5259889D02*
X6138039Y-5202746D01*
X6138039Y-5202746D02*
X6147563Y-5183698D01*
X6147563Y-5183698D02*
X6157087Y-5174174D01*
X6157087Y-5174174D02*
X6176134Y-5164650D01*
X6176134Y-5164650D02*
X6204706Y-5164650D01*
X6204706Y-5164650D02*
X6223753Y-5174174D01*
X6223753Y-5174174D02*
X6233277Y-5183698D01*
X6233277Y-5183698D02*
X6242801Y-5202746D01*
X6242801Y-5202746D02*
X6242801Y-5259889D01*
X6242801Y-5259889D02*
X6233277Y-5278936D01*
X6233277Y-5278936D02*
X6223753Y-5288460D01*
X6223753Y-5288460D02*
X6204706Y-5297984D01*
X6204706Y-5297984D02*
X6176134Y-5297984D01*
X6357087Y-5297984D02*
X6338039Y-5288460D01*
X6338039Y-5288460D02*
X6328515Y-5269412D01*
X6328515Y-5269412D02*
X6328515Y-5097984D01*
X6509468Y-5288460D02*
X6490420Y-5297984D01*
X6490420Y-5297984D02*
X6452325Y-5297984D01*
X6452325Y-5297984D02*
X6433277Y-5288460D01*
X6433277Y-5288460D02*
X6423753Y-5269412D01*
X6423753Y-5269412D02*
X6423753Y-5193222D01*
X6423753Y-5193222D02*
X6433277Y-5174174D01*
X6433277Y-5174174D02*
X6452325Y-5164650D01*
X6452325Y-5164650D02*
X6490420Y-5164650D01*
X6490420Y-5164650D02*
X6509468Y-5174174D01*
X6509468Y-5174174D02*
X6518991Y-5193222D01*
X6518991Y-5193222D02*
X6518991Y-5212270D01*
X6518991Y-5212270D02*
X6423753Y-5231317D01*
X6595182Y-5288460D02*
X6614230Y-5297984D01*
X6614230Y-5297984D02*
X6652325Y-5297984D01*
X6652325Y-5297984D02*
X6671372Y-5288460D01*
X6671372Y-5288460D02*
X6680896Y-5269412D01*
X6680896Y-5269412D02*
X6680896Y-5259889D01*
X6680896Y-5259889D02*
X6671372Y-5240841D01*
X6671372Y-5240841D02*
X6652325Y-5231317D01*
X6652325Y-5231317D02*
X6623753Y-5231317D01*
X6623753Y-5231317D02*
X6604706Y-5221793D01*
X6604706Y-5221793D02*
X6595182Y-5202746D01*
X6595182Y-5202746D02*
X6595182Y-5193222D01*
X6595182Y-5193222D02*
X6604706Y-5174174D01*
X6604706Y-5174174D02*
X6623753Y-5164650D01*
X6623753Y-5164650D02*
X6652325Y-5164650D01*
X6652325Y-5164650D02*
X6671372Y-5174174D01*
X6747563Y-5374174D02*
X6757087Y-5364650D01*
X6757087Y-5364650D02*
X6776134Y-5336079D01*
X6776134Y-5336079D02*
X6785658Y-5317031D01*
X6785658Y-5317031D02*
X6795182Y-5288460D01*
X6795182Y-5288460D02*
X6804706Y-5240841D01*
X6804706Y-5240841D02*
X6804706Y-5202746D01*
X6804706Y-5202746D02*
X6795182Y-5155127D01*
X6795182Y-5155127D02*
X6785658Y-5126555D01*
X6785658Y-5126555D02*
X6776134Y-5107508D01*
X6776134Y-5107508D02*
X6757087Y-5078936D01*
X6757087Y-5078936D02*
X6747563Y-5069412D01*
D12*
X1922500Y-5420500D02*
X1922500Y-5520500D01*
X1872500Y-5470500D02*
X1972500Y-5470500D01*
D11*
X2338039Y-5561984D02*
X2223753Y-5561984D01*
X2280896Y-5561984D02*
X2280896Y-5361984D01*
X2280896Y-5361984D02*
X2261848Y-5390555D01*
X2261848Y-5390555D02*
X2242801Y-5409603D01*
X2242801Y-5409603D02*
X2223753Y-5419127D01*
X2423753Y-5542936D02*
X2433277Y-5552460D01*
X2433277Y-5552460D02*
X2423753Y-5561984D01*
X2423753Y-5561984D02*
X2414229Y-5552460D01*
X2414229Y-5552460D02*
X2423753Y-5542936D01*
X2423753Y-5542936D02*
X2423753Y-5561984D01*
X2557086Y-5361984D02*
X2576134Y-5361984D01*
X2576134Y-5361984D02*
X2595182Y-5371508D01*
X2595182Y-5371508D02*
X2604705Y-5381031D01*
X2604705Y-5381031D02*
X2614229Y-5400079D01*
X2614229Y-5400079D02*
X2623753Y-5438174D01*
X2623753Y-5438174D02*
X2623753Y-5485793D01*
X2623753Y-5485793D02*
X2614229Y-5523889D01*
X2614229Y-5523889D02*
X2604705Y-5542936D01*
X2604705Y-5542936D02*
X2595182Y-5552460D01*
X2595182Y-5552460D02*
X2576134Y-5561984D01*
X2576134Y-5561984D02*
X2557086Y-5561984D01*
X2557086Y-5561984D02*
X2538039Y-5552460D01*
X2538039Y-5552460D02*
X2528515Y-5542936D01*
X2528515Y-5542936D02*
X2518991Y-5523889D01*
X2518991Y-5523889D02*
X2509467Y-5485793D01*
X2509467Y-5485793D02*
X2509467Y-5438174D01*
X2509467Y-5438174D02*
X2518991Y-5400079D01*
X2518991Y-5400079D02*
X2528515Y-5381031D01*
X2528515Y-5381031D02*
X2538039Y-5371508D01*
X2538039Y-5371508D02*
X2557086Y-5361984D01*
X2747563Y-5361984D02*
X2766610Y-5361984D01*
X2766610Y-5361984D02*
X2785658Y-5371508D01*
X2785658Y-5371508D02*
X2795182Y-5381031D01*
X2795182Y-5381031D02*
X2804705Y-5400079D01*
X2804705Y-5400079D02*
X2814229Y-5438174D01*
X2814229Y-5438174D02*
X2814229Y-5485793D01*
X2814229Y-5485793D02*
X2804705Y-5523889D01*
X2804705Y-5523889D02*
X2795182Y-5542936D01*
X2795182Y-5542936D02*
X2785658Y-5552460D01*
X2785658Y-5552460D02*
X2766610Y-5561984D01*
X2766610Y-5561984D02*
X2747563Y-5561984D01*
X2747563Y-5561984D02*
X2728515Y-5552460D01*
X2728515Y-5552460D02*
X2718991Y-5542936D01*
X2718991Y-5542936D02*
X2709467Y-5523889D01*
X2709467Y-5523889D02*
X2699944Y-5485793D01*
X2699944Y-5485793D02*
X2699944Y-5438174D01*
X2699944Y-5438174D02*
X2709467Y-5400079D01*
X2709467Y-5400079D02*
X2718991Y-5381031D01*
X2718991Y-5381031D02*
X2728515Y-5371508D01*
X2728515Y-5371508D02*
X2747563Y-5361984D01*
X2938039Y-5361984D02*
X2957086Y-5361984D01*
X2957086Y-5361984D02*
X2976134Y-5371508D01*
X2976134Y-5371508D02*
X2985658Y-5381031D01*
X2985658Y-5381031D02*
X2995182Y-5400079D01*
X2995182Y-5400079D02*
X3004705Y-5438174D01*
X3004705Y-5438174D02*
X3004705Y-5485793D01*
X3004705Y-5485793D02*
X2995182Y-5523889D01*
X2995182Y-5523889D02*
X2985658Y-5542936D01*
X2985658Y-5542936D02*
X2976134Y-5552460D01*
X2976134Y-5552460D02*
X2957086Y-5561984D01*
X2957086Y-5561984D02*
X2938039Y-5561984D01*
X2938039Y-5561984D02*
X2918991Y-5552460D01*
X2918991Y-5552460D02*
X2909467Y-5542936D01*
X2909467Y-5542936D02*
X2899943Y-5523889D01*
X2899943Y-5523889D02*
X2890420Y-5485793D01*
X2890420Y-5485793D02*
X2890420Y-5438174D01*
X2890420Y-5438174D02*
X2899943Y-5400079D01*
X2899943Y-5400079D02*
X2909467Y-5381031D01*
X2909467Y-5381031D02*
X2918991Y-5371508D01*
X2918991Y-5371508D02*
X2938039Y-5361984D01*
X3090420Y-5561984D02*
X3090420Y-5428650D01*
X3090420Y-5447698D02*
X3099943Y-5438174D01*
X3099943Y-5438174D02*
X3118991Y-5428650D01*
X3118991Y-5428650D02*
X3147563Y-5428650D01*
X3147563Y-5428650D02*
X3166610Y-5438174D01*
X3166610Y-5438174D02*
X3176134Y-5457222D01*
X3176134Y-5457222D02*
X3176134Y-5561984D01*
X3176134Y-5457222D02*
X3185658Y-5438174D01*
X3185658Y-5438174D02*
X3204705Y-5428650D01*
X3204705Y-5428650D02*
X3233277Y-5428650D01*
X3233277Y-5428650D02*
X3252324Y-5438174D01*
X3252324Y-5438174D02*
X3261848Y-5457222D01*
X3261848Y-5457222D02*
X3261848Y-5561984D01*
X3357086Y-5561984D02*
X3357086Y-5428650D01*
X3357086Y-5447698D02*
X3366610Y-5438174D01*
X3366610Y-5438174D02*
X3385658Y-5428650D01*
X3385658Y-5428650D02*
X3414229Y-5428650D01*
X3414229Y-5428650D02*
X3433277Y-5438174D01*
X3433277Y-5438174D02*
X3442801Y-5457222D01*
X3442801Y-5457222D02*
X3442801Y-5561984D01*
X3442801Y-5457222D02*
X3452324Y-5438174D01*
X3452324Y-5438174D02*
X3471372Y-5428650D01*
X3471372Y-5428650D02*
X3499943Y-5428650D01*
X3499943Y-5428650D02*
X3518991Y-5438174D01*
X3518991Y-5438174D02*
X3528515Y-5457222D01*
X3528515Y-5457222D02*
X3528515Y-5561984D01*
X3918991Y-5352460D02*
X3747563Y-5609603D01*
X4176134Y-5361984D02*
X4195182Y-5361984D01*
X4195182Y-5361984D02*
X4214229Y-5371508D01*
X4214229Y-5371508D02*
X4223753Y-5381031D01*
X4223753Y-5381031D02*
X4233277Y-5400079D01*
X4233277Y-5400079D02*
X4242801Y-5438174D01*
X4242801Y-5438174D02*
X4242801Y-5485793D01*
X4242801Y-5485793D02*
X4233277Y-5523889D01*
X4233277Y-5523889D02*
X4223753Y-5542936D01*
X4223753Y-5542936D02*
X4214229Y-5552460D01*
X4214229Y-5552460D02*
X4195182Y-5561984D01*
X4195182Y-5561984D02*
X4176134Y-5561984D01*
X4176134Y-5561984D02*
X4157086Y-5552460D01*
X4157086Y-5552460D02*
X4147563Y-5542936D01*
X4147563Y-5542936D02*
X4138039Y-5523889D01*
X4138039Y-5523889D02*
X4128515Y-5485793D01*
X4128515Y-5485793D02*
X4128515Y-5438174D01*
X4128515Y-5438174D02*
X4138039Y-5400079D01*
X4138039Y-5400079D02*
X4147563Y-5381031D01*
X4147563Y-5381031D02*
X4157086Y-5371508D01*
X4157086Y-5371508D02*
X4176134Y-5361984D01*
X4328515Y-5542936D02*
X4338039Y-5552460D01*
X4338039Y-5552460D02*
X4328515Y-5561984D01*
X4328515Y-5561984D02*
X4318991Y-5552460D01*
X4318991Y-5552460D02*
X4328515Y-5542936D01*
X4328515Y-5542936D02*
X4328515Y-5561984D01*
X4461848Y-5361984D02*
X4480896Y-5361984D01*
X4480896Y-5361984D02*
X4499944Y-5371508D01*
X4499944Y-5371508D02*
X4509468Y-5381031D01*
X4509468Y-5381031D02*
X4518991Y-5400079D01*
X4518991Y-5400079D02*
X4528515Y-5438174D01*
X4528515Y-5438174D02*
X4528515Y-5485793D01*
X4528515Y-5485793D02*
X4518991Y-5523889D01*
X4518991Y-5523889D02*
X4509468Y-5542936D01*
X4509468Y-5542936D02*
X4499944Y-5552460D01*
X4499944Y-5552460D02*
X4480896Y-5561984D01*
X4480896Y-5561984D02*
X4461848Y-5561984D01*
X4461848Y-5561984D02*
X4442801Y-5552460D01*
X4442801Y-5552460D02*
X4433277Y-5542936D01*
X4433277Y-5542936D02*
X4423753Y-5523889D01*
X4423753Y-5523889D02*
X4414229Y-5485793D01*
X4414229Y-5485793D02*
X4414229Y-5438174D01*
X4414229Y-5438174D02*
X4423753Y-5400079D01*
X4423753Y-5400079D02*
X4433277Y-5381031D01*
X4433277Y-5381031D02*
X4442801Y-5371508D01*
X4442801Y-5371508D02*
X4461848Y-5361984D01*
X4595182Y-5361984D02*
X4718991Y-5361984D01*
X4718991Y-5361984D02*
X4652325Y-5438174D01*
X4652325Y-5438174D02*
X4680896Y-5438174D01*
X4680896Y-5438174D02*
X4699944Y-5447698D01*
X4699944Y-5447698D02*
X4709468Y-5457222D01*
X4709468Y-5457222D02*
X4718991Y-5476270D01*
X4718991Y-5476270D02*
X4718991Y-5523889D01*
X4718991Y-5523889D02*
X4709468Y-5542936D01*
X4709468Y-5542936D02*
X4699944Y-5552460D01*
X4699944Y-5552460D02*
X4680896Y-5561984D01*
X4680896Y-5561984D02*
X4623753Y-5561984D01*
X4623753Y-5561984D02*
X4604706Y-5552460D01*
X4604706Y-5552460D02*
X4595182Y-5542936D01*
X4814229Y-5561984D02*
X4852325Y-5561984D01*
X4852325Y-5561984D02*
X4871372Y-5552460D01*
X4871372Y-5552460D02*
X4880896Y-5542936D01*
X4880896Y-5542936D02*
X4899944Y-5514365D01*
X4899944Y-5514365D02*
X4909468Y-5476270D01*
X4909468Y-5476270D02*
X4909468Y-5400079D01*
X4909468Y-5400079D02*
X4899944Y-5381031D01*
X4899944Y-5381031D02*
X4890420Y-5371508D01*
X4890420Y-5371508D02*
X4871372Y-5361984D01*
X4871372Y-5361984D02*
X4833277Y-5361984D01*
X4833277Y-5361984D02*
X4814229Y-5371508D01*
X4814229Y-5371508D02*
X4804706Y-5381031D01*
X4804706Y-5381031D02*
X4795182Y-5400079D01*
X4795182Y-5400079D02*
X4795182Y-5447698D01*
X4795182Y-5447698D02*
X4804706Y-5466746D01*
X4804706Y-5466746D02*
X4814229Y-5476270D01*
X4814229Y-5476270D02*
X4833277Y-5485793D01*
X4833277Y-5485793D02*
X4871372Y-5485793D01*
X4871372Y-5485793D02*
X4890420Y-5476270D01*
X4890420Y-5476270D02*
X4899944Y-5466746D01*
X4899944Y-5466746D02*
X4909468Y-5447698D01*
X5080896Y-5428650D02*
X5080896Y-5561984D01*
X5033277Y-5352460D02*
X4985658Y-5495317D01*
X4985658Y-5495317D02*
X5109468Y-5495317D01*
X5176134Y-5361984D02*
X5176134Y-5400079D01*
X5252325Y-5361984D02*
X5252325Y-5400079D01*
X5547563Y-5638174D02*
X5538039Y-5628650D01*
X5538039Y-5628650D02*
X5518991Y-5600079D01*
X5518991Y-5600079D02*
X5509468Y-5581031D01*
X5509468Y-5581031D02*
X5499944Y-5552460D01*
X5499944Y-5552460D02*
X5490420Y-5504841D01*
X5490420Y-5504841D02*
X5490420Y-5466746D01*
X5490420Y-5466746D02*
X5499944Y-5419127D01*
X5499944Y-5419127D02*
X5509468Y-5390555D01*
X5509468Y-5390555D02*
X5518991Y-5371508D01*
X5518991Y-5371508D02*
X5538039Y-5342936D01*
X5538039Y-5342936D02*
X5547563Y-5333412D01*
X5728515Y-5561984D02*
X5614229Y-5561984D01*
X5671372Y-5561984D02*
X5671372Y-5361984D01*
X5671372Y-5361984D02*
X5652325Y-5390555D01*
X5652325Y-5390555D02*
X5633277Y-5409603D01*
X5633277Y-5409603D02*
X5614229Y-5419127D01*
X5918991Y-5561984D02*
X5804706Y-5561984D01*
X5861848Y-5561984D02*
X5861848Y-5361984D01*
X5861848Y-5361984D02*
X5842801Y-5390555D01*
X5842801Y-5390555D02*
X5823753Y-5409603D01*
X5823753Y-5409603D02*
X5804706Y-5419127D01*
X6157087Y-5561984D02*
X6157087Y-5361984D01*
X6242801Y-5561984D02*
X6242801Y-5457222D01*
X6242801Y-5457222D02*
X6233277Y-5438174D01*
X6233277Y-5438174D02*
X6214230Y-5428650D01*
X6214230Y-5428650D02*
X6185658Y-5428650D01*
X6185658Y-5428650D02*
X6166610Y-5438174D01*
X6166610Y-5438174D02*
X6157087Y-5447698D01*
X6366610Y-5561984D02*
X6347563Y-5552460D01*
X6347563Y-5552460D02*
X6338039Y-5542936D01*
X6338039Y-5542936D02*
X6328515Y-5523889D01*
X6328515Y-5523889D02*
X6328515Y-5466746D01*
X6328515Y-5466746D02*
X6338039Y-5447698D01*
X6338039Y-5447698D02*
X6347563Y-5438174D01*
X6347563Y-5438174D02*
X6366610Y-5428650D01*
X6366610Y-5428650D02*
X6395182Y-5428650D01*
X6395182Y-5428650D02*
X6414230Y-5438174D01*
X6414230Y-5438174D02*
X6423753Y-5447698D01*
X6423753Y-5447698D02*
X6433277Y-5466746D01*
X6433277Y-5466746D02*
X6433277Y-5523889D01*
X6433277Y-5523889D02*
X6423753Y-5542936D01*
X6423753Y-5542936D02*
X6414230Y-5552460D01*
X6414230Y-5552460D02*
X6395182Y-5561984D01*
X6395182Y-5561984D02*
X6366610Y-5561984D01*
X6547563Y-5561984D02*
X6528515Y-5552460D01*
X6528515Y-5552460D02*
X6518991Y-5533412D01*
X6518991Y-5533412D02*
X6518991Y-5361984D01*
X6699944Y-5552460D02*
X6680896Y-5561984D01*
X6680896Y-5561984D02*
X6642801Y-5561984D01*
X6642801Y-5561984D02*
X6623753Y-5552460D01*
X6623753Y-5552460D02*
X6614230Y-5533412D01*
X6614230Y-5533412D02*
X6614230Y-5457222D01*
X6614230Y-5457222D02*
X6623753Y-5438174D01*
X6623753Y-5438174D02*
X6642801Y-5428650D01*
X6642801Y-5428650D02*
X6680896Y-5428650D01*
X6680896Y-5428650D02*
X6699944Y-5438174D01*
X6699944Y-5438174D02*
X6709468Y-5457222D01*
X6709468Y-5457222D02*
X6709468Y-5476270D01*
X6709468Y-5476270D02*
X6614230Y-5495317D01*
X6785658Y-5552460D02*
X6804706Y-5561984D01*
X6804706Y-5561984D02*
X6842801Y-5561984D01*
X6842801Y-5561984D02*
X6861849Y-5552460D01*
X6861849Y-5552460D02*
X6871372Y-5533412D01*
X6871372Y-5533412D02*
X6871372Y-5523889D01*
X6871372Y-5523889D02*
X6861849Y-5504841D01*
X6861849Y-5504841D02*
X6842801Y-5495317D01*
X6842801Y-5495317D02*
X6814230Y-5495317D01*
X6814230Y-5495317D02*
X6795182Y-5485793D01*
X6795182Y-5485793D02*
X6785658Y-5466746D01*
X6785658Y-5466746D02*
X6785658Y-5457222D01*
X6785658Y-5457222D02*
X6795182Y-5438174D01*
X6795182Y-5438174D02*
X6814230Y-5428650D01*
X6814230Y-5428650D02*
X6842801Y-5428650D01*
X6842801Y-5428650D02*
X6861849Y-5438174D01*
X6938039Y-5638174D02*
X6947563Y-5628650D01*
X6947563Y-5628650D02*
X6966611Y-5600079D01*
X6966611Y-5600079D02*
X6976134Y-5581031D01*
X6976134Y-5581031D02*
X6985658Y-5552460D01*
X6985658Y-5552460D02*
X6995182Y-5504841D01*
X6995182Y-5504841D02*
X6995182Y-5466746D01*
X6995182Y-5466746D02*
X6985658Y-5419127D01*
X6985658Y-5419127D02*
X6976134Y-5390555D01*
X6976134Y-5390555D02*
X6966611Y-5371508D01*
X6966611Y-5371508D02*
X6947563Y-5342936D01*
X6947563Y-5342936D02*
X6938039Y-5333412D01*
M02*
