G04 #@! TF.GenerationSoftware,KiCad,Pcbnew,8.0.01-1-dev-1e03266dfe*
G04 #@! TF.CreationDate,2024-03-02T01:32:53-08:00*
G04 #@! TF.ProjectId,adpd1080_breakoutboard,61647064-3130-4383-905f-627265616b6f,rev?*
G04 #@! TF.SameCoordinates,Original*
G04 #@! TF.FileFunction,Copper,L1,Top*
G04 #@! TF.FilePolarity,Positive*
%FSLAX46Y46*%
G04 Gerber Fmt 4.6, Leading zero omitted, Abs format (unit mm)*
G04 Created by KiCad (PCBNEW 8.0.01-1-dev-1e03266dfe) date 2024-03-02 01:32:53*
%MOMM*%
%LPD*%
G01*
G04 APERTURE LIST*
G04 Aperture macros list*
%AMRoundRect*
0 Rectangle with rounded corners*
0 $1 Rounding radius*
0 $2 $3 $4 $5 $6 $7 $8 $9 X,Y pos of 4 corners*
0 Add a 4 corners polygon primitive as box body*
4,1,4,$2,$3,$4,$5,$6,$7,$8,$9,$2,$3,0*
0 Add four circle primitives for the rounded corners*
1,1,$1+$1,$2,$3*
1,1,$1+$1,$4,$5*
1,1,$1+$1,$6,$7*
1,1,$1+$1,$8,$9*
0 Add four rect primitives between the rounded corners*
20,1,$1+$1,$2,$3,$4,$5,0*
20,1,$1+$1,$4,$5,$6,$7,0*
20,1,$1+$1,$6,$7,$8,$9,0*
20,1,$1+$1,$8,$9,$2,$3,0*%
G04 Aperture macros list end*
G04 #@! TA.AperFunction,SMDPad,CuDef*
%ADD10R,0.850000X0.200000*%
G04 #@! TD*
G04 #@! TA.AperFunction,SMDPad,CuDef*
%ADD11R,0.200000X0.850000*%
G04 #@! TD*
G04 #@! TA.AperFunction,SMDPad,CuDef*
%ADD12R,2.700000X2.700000*%
G04 #@! TD*
G04 #@! TA.AperFunction,SMDPad,CuDef*
%ADD13RoundRect,0.140000X-0.140000X-0.170000X0.140000X-0.170000X0.140000X0.170000X-0.140000X0.170000X0*%
G04 #@! TD*
G04 #@! TA.AperFunction,ComponentPad*
%ADD14R,1.700000X1.700000*%
G04 #@! TD*
G04 #@! TA.AperFunction,SMDPad,CuDef*
%ADD15RoundRect,0.135000X0.185000X-0.135000X0.185000X0.135000X-0.185000X0.135000X-0.185000X-0.135000X0*%
G04 #@! TD*
G04 #@! TA.AperFunction,ComponentPad*
%ADD16R,1.000000X1.000000*%
G04 #@! TD*
G04 #@! TA.AperFunction,ComponentPad*
%ADD17O,1.700000X1.700000*%
G04 #@! TD*
G04 #@! TA.AperFunction,ComponentPad*
%ADD18RoundRect,0.250000X-0.450000X-0.450000X0.450000X-0.450000X0.450000X0.450000X-0.450000X0.450000X0*%
G04 #@! TD*
G04 #@! TA.AperFunction,ComponentPad*
%ADD19C,1.400000*%
G04 #@! TD*
G04 #@! TA.AperFunction,SMDPad,CuDef*
%ADD20RoundRect,0.100000X-0.637500X-0.100000X0.637500X-0.100000X0.637500X0.100000X-0.637500X0.100000X0*%
G04 #@! TD*
G04 #@! TA.AperFunction,SMDPad,CuDef*
%ADD21RoundRect,0.140000X0.140000X0.170000X-0.140000X0.170000X-0.140000X-0.170000X0.140000X-0.170000X0*%
G04 #@! TD*
G04 #@! TA.AperFunction,SMDPad,CuDef*
%ADD22R,0.711200X0.406400*%
G04 #@! TD*
G04 #@! TA.AperFunction,SMDPad,CuDef*
%ADD23R,1.752600X2.489200*%
G04 #@! TD*
G04 #@! TA.AperFunction,SMDPad,CuDef*
%ADD24RoundRect,0.135000X-0.135000X-0.185000X0.135000X-0.185000X0.135000X0.185000X-0.135000X0.185000X0*%
G04 #@! TD*
G04 #@! TA.AperFunction,ViaPad*
%ADD25C,0.800000*%
G04 #@! TD*
G04 #@! TA.AperFunction,Conductor*
%ADD26C,0.250000*%
G04 #@! TD*
G04 #@! TA.AperFunction,Conductor*
%ADD27C,0.230000*%
G04 #@! TD*
G04 APERTURE END LIST*
D10*
X36400000Y-45600000D03*
X36400000Y-45200000D03*
X36400000Y-44800000D03*
X36400000Y-44400000D03*
X36400000Y-44000000D03*
X36400000Y-43600000D03*
X36400000Y-43200000D03*
D11*
X35650000Y-42450000D03*
X35250000Y-42450000D03*
X34850000Y-42450000D03*
X34450000Y-42450000D03*
X34050000Y-42450000D03*
X33650000Y-42450000D03*
X33250000Y-42450000D03*
D10*
X32500000Y-43200000D03*
X32500000Y-43600000D03*
X32500000Y-44000000D03*
X32500000Y-44400000D03*
X32500000Y-44800000D03*
X32500000Y-45200000D03*
X32500000Y-45600000D03*
D11*
X33250000Y-46350000D03*
X33650000Y-46350000D03*
X34050000Y-46350000D03*
X34450000Y-46350000D03*
X34850000Y-46350000D03*
X35250000Y-46350000D03*
X35650000Y-46350000D03*
D12*
X34450000Y-44400000D03*
D13*
X42540000Y-40400000D03*
X43500000Y-40400000D03*
D14*
X52500000Y-39500000D03*
D15*
X38490000Y-50020000D03*
X38490000Y-49000000D03*
D16*
X59000000Y-22500000D03*
D14*
X59000000Y-51120000D03*
D17*
X59000000Y-48580000D03*
X59000000Y-46040000D03*
X59000000Y-43500000D03*
X59000000Y-40960000D03*
D15*
X38500000Y-47500000D03*
X38500000Y-46480000D03*
D14*
X46000000Y-34000000D03*
D18*
X37000000Y-24200000D03*
D19*
X39500000Y-24200000D03*
X42000000Y-24200000D03*
X42000000Y-27500000D03*
X39500000Y-27500000D03*
X37000000Y-27500000D03*
D20*
X45500000Y-46500000D03*
X45500000Y-47150000D03*
X45500000Y-47800000D03*
X45500000Y-48450000D03*
X45500000Y-49100000D03*
X45500000Y-49750000D03*
X45500000Y-50400000D03*
X51225000Y-50400000D03*
X51225000Y-49750000D03*
X51225000Y-49100000D03*
X51225000Y-48450000D03*
X51225000Y-47800000D03*
X51225000Y-47150000D03*
X51225000Y-46500000D03*
D14*
X26000000Y-47475000D03*
D17*
X26000000Y-50015000D03*
X26000000Y-52555000D03*
D21*
X56500000Y-32500000D03*
X55540000Y-32500000D03*
D15*
X56750000Y-36000000D03*
X56750000Y-34980000D03*
D13*
X44040000Y-42030000D03*
X45000000Y-42030000D03*
D14*
X41125000Y-34000000D03*
D17*
X38585000Y-34000000D03*
X36045000Y-34000000D03*
X33505000Y-34000000D03*
X30965000Y-34000000D03*
X28425000Y-34000000D03*
X25885000Y-34000000D03*
D21*
X56480000Y-27000000D03*
X55520000Y-27000000D03*
D22*
X52250000Y-34000000D03*
X52250000Y-34950001D03*
X52250000Y-35900002D03*
X55044000Y-35900002D03*
X55044000Y-34950001D03*
X55044000Y-34000000D03*
D23*
X53647000Y-34950001D03*
D21*
X56500000Y-30000000D03*
X55540000Y-30000000D03*
D16*
X23000000Y-56500000D03*
D13*
X44040000Y-44000000D03*
X45000000Y-44000000D03*
D16*
X59000000Y-56500000D03*
D24*
X51500000Y-53000000D03*
X52520000Y-53000000D03*
D14*
X26000000Y-43000000D03*
X49225000Y-27000000D03*
D17*
X51765000Y-27000000D03*
D16*
X23000000Y-22500000D03*
D13*
X52040000Y-31500000D03*
X53000000Y-31500000D03*
D14*
X27450000Y-27000000D03*
D17*
X29990000Y-27000000D03*
D25*
X56500000Y-31250000D03*
X45100000Y-40400000D03*
X43000000Y-51000000D03*
X54500000Y-53000000D03*
X46700000Y-43600000D03*
X56500000Y-25500000D03*
X50750000Y-35000000D03*
X53000000Y-30250000D03*
X56500000Y-28500000D03*
X39000000Y-43500000D03*
X55000000Y-39500000D03*
X56750000Y-38000000D03*
X40500000Y-40500000D03*
X40500000Y-47500000D03*
X40500000Y-44000000D03*
X40500000Y-50000000D03*
D26*
X55540000Y-30000000D02*
X55540000Y-27020000D01*
X53250000Y-32750000D02*
X54247200Y-32750000D01*
X52250000Y-34000000D02*
X52250000Y-33750000D01*
X51765000Y-25765000D02*
X48967500Y-22967500D01*
X51765000Y-27000000D02*
X55520000Y-27000000D01*
X48967500Y-22967500D02*
X42967500Y-22967500D01*
X52250000Y-33750000D02*
X53250000Y-32750000D01*
X55540000Y-33050800D02*
X55540000Y-32500000D01*
X54247200Y-32750000D02*
X55044000Y-33546800D01*
X55044000Y-33546800D02*
X55044000Y-34000000D01*
X55044000Y-34000000D02*
X55770000Y-34000000D01*
X55540000Y-27020000D02*
X55520000Y-27000000D01*
X55044000Y-33546800D02*
X55540000Y-33050800D01*
X55540000Y-32500000D02*
X55540000Y-30000000D01*
X42967500Y-22967500D02*
X42000000Y-23935000D01*
X55770000Y-34000000D02*
X56750000Y-34980000D01*
X51765000Y-27000000D02*
X51765000Y-25765000D01*
X56500000Y-28500000D02*
X56500000Y-27020000D01*
X38100000Y-44400000D02*
X39000000Y-43500000D01*
X56480000Y-25520000D02*
X56500000Y-25500000D01*
X52200001Y-35000000D02*
X52250000Y-34950001D01*
D27*
X38100000Y-44400000D02*
X36400000Y-44400000D01*
D26*
X45000000Y-44000000D02*
X45000000Y-42030000D01*
X52250000Y-34950001D02*
X53647000Y-34950001D01*
X52520000Y-53000000D02*
X54500000Y-53000000D01*
X45000000Y-44000000D02*
X46300000Y-44000000D01*
D27*
X36400000Y-44400000D02*
X34450000Y-44400000D01*
D26*
X50750000Y-35000000D02*
X52200001Y-35000000D01*
X56500000Y-27020000D02*
X56480000Y-27000000D01*
X45000000Y-42030000D02*
X45000000Y-40500000D01*
X46300000Y-44000000D02*
X46700000Y-43600000D01*
X56500000Y-30000000D02*
X56500000Y-28500000D01*
X45100000Y-40400000D02*
X43500000Y-40400000D01*
X45500000Y-50400000D02*
X43600000Y-50400000D01*
X53000000Y-31500000D02*
X53000000Y-30250000D01*
X56500000Y-32500000D02*
X56500000Y-31250000D01*
X56480000Y-27000000D02*
X56480000Y-25520000D01*
X50799999Y-34950001D02*
X50750000Y-35000000D01*
X34850000Y-46350000D02*
X34850000Y-44800000D01*
X56500000Y-31250000D02*
X56500000Y-30000000D01*
X43600000Y-50400000D02*
X43000000Y-51000000D01*
X45000000Y-40500000D02*
X45100000Y-40400000D01*
X54250000Y-42750000D02*
X55677400Y-41322600D01*
X55677400Y-36533402D02*
X55044000Y-35900002D01*
X51000000Y-42750000D02*
X54250000Y-42750000D01*
X44765000Y-30000000D02*
X48500000Y-30000000D01*
X52040000Y-31500000D02*
X50000000Y-31500000D01*
X50000000Y-31500000D02*
X50000000Y-41750000D01*
X50000000Y-41750000D02*
X51000000Y-42750000D01*
X42000000Y-27235000D02*
X44765000Y-30000000D01*
X48500000Y-30000000D02*
X50000000Y-31500000D01*
X55677400Y-41322600D02*
X55677400Y-36533402D01*
X35272600Y-41000000D02*
X35272600Y-42258320D01*
X35272600Y-41000000D02*
X38636300Y-37636300D01*
X38585000Y-37585000D02*
X38585000Y-34000000D01*
X38636300Y-37636300D02*
X38585000Y-37585000D01*
X40650000Y-38950000D02*
X40900000Y-38700000D01*
X45600000Y-34000000D02*
X46000000Y-34000000D01*
X40900000Y-38760000D02*
X40900000Y-38700000D01*
X36400000Y-43200000D02*
X40650000Y-38950000D01*
X40650000Y-38950000D02*
X45600000Y-34000000D01*
D27*
X33642800Y-46877200D02*
X33642800Y-46350000D01*
D26*
X27545000Y-49020000D02*
X26000000Y-47475000D01*
X31500000Y-49020000D02*
X33642800Y-46877200D01*
X31500000Y-49020000D02*
X27545000Y-49020000D01*
X26200000Y-43200000D02*
X26000000Y-43000000D01*
X32500000Y-43200000D02*
X26200000Y-43200000D01*
X41125000Y-36975000D02*
X41125000Y-34000000D01*
X35650000Y-42450000D02*
X41050000Y-37050000D01*
X41050000Y-37050000D02*
X41125000Y-36975000D01*
X28415200Y-55000000D02*
X23500000Y-55000000D01*
X34447600Y-48967600D02*
X28415200Y-55000000D01*
X23485000Y-50015000D02*
X26000000Y-50015000D01*
X23500000Y-55000000D02*
X22500000Y-54000000D01*
D27*
X34447600Y-48967600D02*
X34447600Y-46350000D01*
D26*
X22500000Y-51000000D02*
X23485000Y-50015000D01*
X22500000Y-54000000D02*
X22500000Y-51000000D01*
X36500000Y-48909769D02*
X36000000Y-48500000D01*
X38490000Y-49000000D02*
X36500000Y-48909769D01*
X36000000Y-48500000D02*
X35252400Y-47032200D01*
X35252400Y-47032200D02*
X35252400Y-46516680D01*
X38590000Y-49100000D02*
X38490000Y-49000000D01*
X45500000Y-49100000D02*
X38590000Y-49100000D01*
X34870200Y-40833320D02*
X34875001Y-40828519D01*
X34875001Y-39997599D02*
X36045000Y-38827600D01*
X34875001Y-40828519D02*
X34875001Y-39997599D01*
X34870200Y-42429800D02*
X34870200Y-40833320D01*
X34850000Y-42450000D02*
X34870200Y-42429800D01*
X34872600Y-42427400D02*
X34850000Y-42450000D01*
X36045000Y-38827600D02*
X36045000Y-34000000D01*
X29485000Y-52555000D02*
X26000000Y-52555000D01*
D27*
X34050000Y-47990000D02*
X34050000Y-46350000D01*
D26*
X34050000Y-47990000D02*
X29485000Y-52555000D01*
X28425000Y-36545200D02*
X33650000Y-41770200D01*
D27*
X33650000Y-42450000D02*
X33650000Y-41770200D01*
D26*
X28425000Y-34000000D02*
X28425000Y-36545200D01*
X32950000Y-42450000D02*
X33250000Y-42450000D01*
X25885000Y-35385000D02*
X32950000Y-42450000D01*
X25885000Y-34000000D02*
X25885000Y-35385000D01*
X42500000Y-45602400D02*
X36400000Y-45602400D01*
X44697600Y-47800000D02*
X42500000Y-45602400D01*
X45500000Y-47800000D02*
X44697600Y-47800000D01*
X45500000Y-48450000D02*
X43601164Y-48450000D01*
X43601164Y-48450000D02*
X41651163Y-46500000D01*
X36050000Y-46350000D02*
X36300000Y-46600000D01*
X35650000Y-46350000D02*
X36050000Y-46350000D01*
X36800000Y-46600000D02*
X38500000Y-46480000D01*
X36300000Y-46600000D02*
X36800000Y-46600000D01*
X41651163Y-46500000D02*
X38500000Y-46500000D01*
X45500000Y-47150000D02*
X44762501Y-47150000D01*
X44762501Y-47150000D02*
X42812501Y-45200000D01*
D27*
X42812501Y-45200000D02*
X36400000Y-45200000D01*
D26*
X33505000Y-39032400D02*
X33505000Y-34000000D01*
D27*
X34472600Y-40000000D02*
X34472600Y-42258320D01*
D26*
X34472600Y-40000000D02*
X33505000Y-39032400D01*
D27*
X34072600Y-42427400D02*
X34072600Y-41000000D01*
D26*
X30965000Y-37892400D02*
X34072600Y-41000000D01*
X30965000Y-34000000D02*
X30965000Y-37892400D01*
X34050000Y-42450000D02*
X34072600Y-42427400D01*
X37000000Y-27235000D02*
X37000000Y-23935000D01*
X33055000Y-23935000D02*
X29990000Y-27000000D01*
X33500000Y-23935000D02*
X33055000Y-23935000D01*
X33500000Y-23935000D02*
X37000000Y-23935000D01*
X57240000Y-47800000D02*
X59000000Y-46040000D01*
X51225000Y-47800000D02*
X57240000Y-47800000D01*
X51225000Y-47150000D02*
X55350000Y-47150000D01*
X55350000Y-47150000D02*
X59000000Y-43500000D01*
X52250000Y-35900002D02*
X52250000Y-39250000D01*
X52500000Y-39500000D02*
X55000000Y-39500000D01*
X52500000Y-39500000D02*
X52500000Y-39000000D01*
X56750000Y-38000000D02*
X56750000Y-36000000D01*
X52250000Y-39250000D02*
X52500000Y-39500000D01*
X56980000Y-49100000D02*
X59000000Y-51120000D01*
X51225000Y-49100000D02*
X56980000Y-49100000D01*
X40480000Y-50020000D02*
X40500000Y-50000000D01*
D27*
X37077400Y-43602400D02*
X36400000Y-43602400D01*
D26*
X51500000Y-50675000D02*
X51500000Y-53000000D01*
X50023994Y-50400000D02*
X46123994Y-46500000D01*
X41500000Y-31000000D02*
X48500000Y-31000000D01*
X39700000Y-44800000D02*
X38500000Y-44800000D01*
X45500000Y-46500000D02*
X44040000Y-45040000D01*
X46123994Y-46500000D02*
X45500000Y-46500000D01*
X39500000Y-27235000D02*
X39500000Y-29000000D01*
D27*
X36400000Y-44800000D02*
X38500000Y-44800000D01*
X38000000Y-42679800D02*
X37077400Y-43602400D01*
D26*
X48500000Y-43500000D02*
X45500000Y-46500000D01*
X40500000Y-44000000D02*
X44040000Y-44000000D01*
X40500000Y-40500000D02*
X38000000Y-42679800D01*
X38490000Y-50020000D02*
X40480000Y-50020000D01*
X40500000Y-44000000D02*
X39700000Y-44800000D01*
X39500000Y-29000000D02*
X41500000Y-31000000D01*
X51225000Y-50400000D02*
X50023994Y-50400000D01*
X44040000Y-45040000D02*
X44040000Y-42030000D01*
X51225000Y-50400000D02*
X51500000Y-50675000D01*
X48500000Y-31000000D02*
X48500000Y-43500000D01*
X38500000Y-47500000D02*
X40500000Y-47500000D01*
X56534540Y-39250000D02*
X59284540Y-36500000D01*
X53475000Y-44250000D02*
X53500000Y-44250000D01*
X51225000Y-46500000D02*
X53475000Y-44250000D01*
X59284540Y-36500000D02*
X59284540Y-27002040D01*
X53500000Y-44250000D02*
X56500000Y-41250000D01*
X56500000Y-39250000D02*
X56534540Y-39250000D01*
X59284540Y-27002040D02*
X54750000Y-22467500D01*
X40967500Y-22467500D02*
X39500000Y-23935000D01*
X56500000Y-41250000D02*
X56500000Y-39250000D01*
X54750000Y-22467500D02*
X40967500Y-22467500D01*
X58870000Y-48450000D02*
X59000000Y-48580000D01*
X51225000Y-48450000D02*
X58870000Y-48450000D01*
X39671005Y-41871005D02*
X41068995Y-41871005D01*
X36400000Y-44000000D02*
X37542011Y-44000000D01*
X41068995Y-41871005D02*
X42540000Y-40400000D01*
X37542011Y-44000000D02*
X39671005Y-41871005D01*
M02*
