%TF.GenerationSoftware,KiCad,Pcbnew,8.0.02-1-dev-30dbafaf7c*%
%TF.CreationDate,2024-03-27T19:33:31-07:00*%
%TF.ProjectId,adpd1080_breakoutboard,61647064-3130-4383-905f-627265616b6f,rev?*%
%TF.SameCoordinates,Original*%
%TF.FileFunction,Drillmap*%
%TF.FilePolarity,Positive*%
%FSLAX45Y45*%
G04 Gerber Fmt 4.5, Leading zero omitted, Abs format (unit mm)*
G04 Created by KiCad (PCBNEW 8.0.02-1-dev-30dbafaf7c) date 2024-03-27 19:33:31*
%MOMM*%
%LPD*%
G01*
G04 APERTURE LIST*
%ADD10C,0.050000*%
%ADD11C,0.200000*%
G04 APERTURE END LIST*
D10*
X2000000Y-2000000D02*
X6300000Y-2000000D01*
X6300000Y-5900000D01*
X2000000Y-5900000D01*
X2000000Y-2000000D01*
D11*
X2258277Y-6213984D02*
X2258277Y-6013984D01*
X2258277Y-6013984D02*
X2305896Y-6013984D01*
X2305896Y-6013984D02*
X2334467Y-6023508D01*
X2334467Y-6023508D02*
X2353515Y-6042555D01*
X2353515Y-6042555D02*
X2363039Y-6061603D01*
X2363039Y-6061603D02*
X2372563Y-6099698D01*
X2372563Y-6099698D02*
X2372563Y-6128269D01*
X2372563Y-6128269D02*
X2363039Y-6166365D01*
X2363039Y-6166365D02*
X2353515Y-6185412D01*
X2353515Y-6185412D02*
X2334467Y-6204460D01*
X2334467Y-6204460D02*
X2305896Y-6213984D01*
X2305896Y-6213984D02*
X2258277Y-6213984D01*
X2458277Y-6213984D02*
X2458277Y-6080650D01*
X2458277Y-6118746D02*
X2467801Y-6099698D01*
X2467801Y-6099698D02*
X2477324Y-6090174D01*
X2477324Y-6090174D02*
X2496372Y-6080650D01*
X2496372Y-6080650D02*
X2515420Y-6080650D01*
X2582086Y-6213984D02*
X2582086Y-6080650D01*
X2582086Y-6013984D02*
X2572563Y-6023508D01*
X2572563Y-6023508D02*
X2582086Y-6033031D01*
X2582086Y-6033031D02*
X2591610Y-6023508D01*
X2591610Y-6023508D02*
X2582086Y-6013984D01*
X2582086Y-6013984D02*
X2582086Y-6033031D01*
X2705896Y-6213984D02*
X2686848Y-6204460D01*
X2686848Y-6204460D02*
X2677324Y-6185412D01*
X2677324Y-6185412D02*
X2677324Y-6013984D01*
X2810658Y-6213984D02*
X2791610Y-6204460D01*
X2791610Y-6204460D02*
X2782086Y-6185412D01*
X2782086Y-6185412D02*
X2782086Y-6013984D01*
X3039229Y-6213984D02*
X3039229Y-6013984D01*
X3039229Y-6013984D02*
X3105896Y-6156841D01*
X3105896Y-6156841D02*
X3172562Y-6013984D01*
X3172562Y-6013984D02*
X3172562Y-6213984D01*
X3353515Y-6213984D02*
X3353515Y-6109222D01*
X3353515Y-6109222D02*
X3343991Y-6090174D01*
X3343991Y-6090174D02*
X3324943Y-6080650D01*
X3324943Y-6080650D02*
X3286848Y-6080650D01*
X3286848Y-6080650D02*
X3267801Y-6090174D01*
X3353515Y-6204460D02*
X3334467Y-6213984D01*
X3334467Y-6213984D02*
X3286848Y-6213984D01*
X3286848Y-6213984D02*
X3267801Y-6204460D01*
X3267801Y-6204460D02*
X3258277Y-6185412D01*
X3258277Y-6185412D02*
X3258277Y-6166365D01*
X3258277Y-6166365D02*
X3267801Y-6147317D01*
X3267801Y-6147317D02*
X3286848Y-6137793D01*
X3286848Y-6137793D02*
X3334467Y-6137793D01*
X3334467Y-6137793D02*
X3353515Y-6128269D01*
X3448753Y-6080650D02*
X3448753Y-6280650D01*
X3448753Y-6090174D02*
X3467801Y-6080650D01*
X3467801Y-6080650D02*
X3505896Y-6080650D01*
X3505896Y-6080650D02*
X3524943Y-6090174D01*
X3524943Y-6090174D02*
X3534467Y-6099698D01*
X3534467Y-6099698D02*
X3543991Y-6118746D01*
X3543991Y-6118746D02*
X3543991Y-6175888D01*
X3543991Y-6175888D02*
X3534467Y-6194936D01*
X3534467Y-6194936D02*
X3524943Y-6204460D01*
X3524943Y-6204460D02*
X3505896Y-6213984D01*
X3505896Y-6213984D02*
X3467801Y-6213984D01*
X3467801Y-6213984D02*
X3448753Y-6204460D01*
X3629705Y-6194936D02*
X3639229Y-6204460D01*
X3639229Y-6204460D02*
X3629705Y-6213984D01*
X3629705Y-6213984D02*
X3620182Y-6204460D01*
X3620182Y-6204460D02*
X3629705Y-6194936D01*
X3629705Y-6194936D02*
X3629705Y-6213984D01*
X3629705Y-6090174D02*
X3639229Y-6099698D01*
X3639229Y-6099698D02*
X3629705Y-6109222D01*
X3629705Y-6109222D02*
X3620182Y-6099698D01*
X3620182Y-6099698D02*
X3629705Y-6090174D01*
X3629705Y-6090174D02*
X3629705Y-6109222D01*
M02*
