M48
; DRILL file {KiCad 8.0.02-1-dev-30dbafaf7c} date 2024-03-27T19:33:30-0700
; FORMAT={-:-/ absolute / inch / decimal}
; #@! TF.CreationDate,2024-03-27T19:33:30-07:00
; #@! TF.GenerationSoftware,Kicad,Pcbnew,8.0.02-1-dev-30dbafaf7c
; #@! TF.FileFunction,Plated,1,2,PTH
FMAT,2
INCH
; #@! TA.AperFunction,Plated,PTH,ViaDrill
T1C0.0157
; #@! TA.AperFunction,Plated,PTH,ComponentDrill
T2C0.0256
; #@! TA.AperFunction,Plated,PTH,ComponentDrill
T3C0.0354
; #@! TA.AperFunction,Plated,PTH,ComponentDrill
T4C0.0394
%
G90
G05
T1
X1.3898Y-1.9213
X1.5433Y-1.7126
X1.5945Y-1.7323
X1.5945Y-1.8701
X1.5945Y-1.9685
X1.6929Y-2.0079
X1.7126Y-1.6024
X1.7795Y-1.7323
X1.998Y-1.378
X2.0866Y-1.1909
X2.1457Y-2.0866
X2.1654Y-1.5551
X2.2244Y-1.0039
X2.2244Y-1.122
X2.2244Y-1.2303
X2.2343Y-1.4961
T2
X0.9055Y-0.8858
X0.9055Y-2.2244
X1.7008Y-1.8831
X1.7008Y-1.9331
X2.3228Y-0.8858
X2.3228Y-2.2244
T3
X1.4567Y-0.9528
X1.4567Y-1.0827
X1.5551Y-0.9528
X1.5551Y-1.0827
X1.6535Y-0.9528
X1.6535Y-1.0827
T4
X1.0191Y-1.3386
X1.0236Y-1.6929
X1.0236Y-1.8691
X1.0236Y-1.9691
X1.0236Y-2.0691
X1.0807Y-1.063
X1.1191Y-1.3386
X1.1807Y-1.063
X1.2191Y-1.3386
X1.3191Y-1.3386
X1.4191Y-1.3386
X1.5191Y-1.3386
X1.6191Y-1.3386
X1.811Y-1.3386
X1.938Y-1.063
X2.038Y-1.063
X2.0669Y-1.5551
X2.3228Y-1.6126
X2.3228Y-1.7126
X2.3228Y-1.8126
X2.3228Y-1.9126
X2.3228Y-2.0126
M30
