G04 #@! TF.GenerationSoftware,KiCad,Pcbnew,8.0.02-1-dev-30dbafaf7c*
G04 #@! TF.CreationDate,2024-03-27T19:33:34-07:00*
G04 #@! TF.ProjectId,adpd1080_breakoutboard,61647064-3130-4383-905f-627265616b6f,rev?*
G04 #@! TF.SameCoordinates,Original*
G04 #@! TF.FileFunction,Soldermask,Top*
G04 #@! TF.FilePolarity,Negative*
%FSLAX46Y46*%
G04 Gerber Fmt 4.6, Leading zero omitted, Abs format (unit mm)*
G04 Created by KiCad (PCBNEW 8.0.02-1-dev-30dbafaf7c) date 2024-03-27 19:33:34*
%MOMM*%
%LPD*%
G01*
G04 APERTURE LIST*
G04 Aperture macros list*
%AMRoundRect*
0 Rectangle with rounded corners*
0 $1 Rounding radius*
0 $2 $3 $4 $5 $6 $7 $8 $9 X,Y pos of 4 corners*
0 Add a 4 corners polygon primitive as box body*
4,1,4,$2,$3,$4,$5,$6,$7,$8,$9,$2,$3,0*
0 Add four circle primitives for the rounded corners*
1,1,$1+$1,$2,$3*
1,1,$1+$1,$4,$5*
1,1,$1+$1,$6,$7*
1,1,$1+$1,$8,$9*
0 Add four rect primitives between the rounded corners*
20,1,$1+$1,$2,$3,$4,$5,0*
20,1,$1+$1,$4,$5,$6,$7,0*
20,1,$1+$1,$6,$7,$8,$9,0*
20,1,$1+$1,$8,$9,$2,$3,0*%
G04 Aperture macros list end*
%ADD10R,0.850000X0.200000*%
%ADD11R,0.200000X0.850000*%
%ADD12R,2.700000X2.700000*%
%ADD13R,1.700000X1.700000*%
%ADD14RoundRect,0.135000X0.185000X-0.135000X0.185000X0.135000X-0.185000X0.135000X-0.185000X-0.135000X0*%
%ADD15R,1.000000X1.000000*%
%ADD16O,1.700000X1.700000*%
%ADD17RoundRect,0.250000X-0.450000X-0.450000X0.450000X-0.450000X0.450000X0.450000X-0.450000X0.450000X0*%
%ADD18C,1.400000*%
%ADD19RoundRect,0.100000X-0.637500X-0.100000X0.637500X-0.100000X0.637500X0.100000X-0.637500X0.100000X0*%
%ADD20RoundRect,0.140000X0.140000X0.170000X-0.140000X0.170000X-0.140000X-0.170000X0.140000X-0.170000X0*%
%ADD21R,0.711200X0.406400*%
%ADD22R,1.752600X2.489200*%
%ADD23RoundRect,0.140000X-0.140000X-0.170000X0.140000X-0.170000X0.140000X0.170000X-0.140000X0.170000X0*%
%ADD24RoundRect,0.135000X-0.135000X-0.185000X0.135000X-0.185000X0.135000X0.185000X-0.135000X0.185000X0*%
%ADD25O,1.000000X1.000000*%
G04 APERTURE END LIST*
D10*
X36400000Y-45600000D03*
X36400000Y-45200000D03*
X36400000Y-44800000D03*
X36400000Y-44400000D03*
X36400000Y-44000000D03*
X36400000Y-43600000D03*
X36400000Y-43200000D03*
D11*
X35650000Y-42450000D03*
X35250000Y-42450000D03*
X34850000Y-42450000D03*
X34450000Y-42450000D03*
X34050000Y-42450000D03*
X33650000Y-42450000D03*
X33250000Y-42450000D03*
D10*
X32500000Y-43200000D03*
X32500000Y-43600000D03*
X32500000Y-44000000D03*
X32500000Y-44400000D03*
X32500000Y-44800000D03*
X32500000Y-45200000D03*
X32500000Y-45600000D03*
D11*
X33250000Y-46350000D03*
X33650000Y-46350000D03*
X34050000Y-46350000D03*
X34450000Y-46350000D03*
X34850000Y-46350000D03*
X35250000Y-46350000D03*
X35650000Y-46350000D03*
D12*
X34450000Y-44400000D03*
D13*
X52500000Y-39500000D03*
D14*
X38490000Y-50020000D03*
X38490000Y-49000000D03*
D15*
X59000000Y-22500000D03*
D13*
X59000000Y-51120000D03*
D16*
X59000000Y-48580000D03*
X59000000Y-46040000D03*
X59000000Y-43500000D03*
X59000000Y-40960000D03*
D14*
X38500000Y-47500000D03*
X38500000Y-46480000D03*
D13*
X46000000Y-34000000D03*
D17*
X37000000Y-24200000D03*
D18*
X39500000Y-24200000D03*
X42000000Y-24200000D03*
X42000000Y-27500000D03*
X39500000Y-27500000D03*
X37000000Y-27500000D03*
D19*
X46675000Y-46500000D03*
X46675000Y-47150000D03*
X46675000Y-47800000D03*
X46675000Y-48450000D03*
X46675000Y-49100000D03*
X46675000Y-49750000D03*
X46675000Y-50400000D03*
X52400000Y-50400000D03*
X52400000Y-49750000D03*
X52400000Y-49100000D03*
X52400000Y-48450000D03*
X52400000Y-47800000D03*
X52400000Y-47150000D03*
X52400000Y-46500000D03*
D13*
X26000000Y-47475000D03*
D16*
X26000000Y-50015000D03*
X26000000Y-52555000D03*
D20*
X56500000Y-32500000D03*
X55540000Y-32500000D03*
D14*
X56750000Y-36000000D03*
X56750000Y-34980000D03*
D13*
X41125000Y-34000000D03*
D16*
X38585000Y-34000000D03*
X36045000Y-34000000D03*
X33505000Y-34000000D03*
X30965000Y-34000000D03*
X28425000Y-34000000D03*
X25885000Y-34000000D03*
D20*
X56480000Y-27000000D03*
X55520000Y-27000000D03*
D21*
X52250000Y-34000000D03*
X52250000Y-34950001D03*
X52250000Y-35900002D03*
X55044000Y-35900002D03*
X55044000Y-34950001D03*
X55044000Y-34000000D03*
D22*
X53647000Y-34950001D03*
D20*
X56500000Y-30000000D03*
X55540000Y-30000000D03*
D15*
X23000000Y-56500000D03*
D23*
X42520000Y-39400000D03*
X43480000Y-39400000D03*
X42500000Y-42000000D03*
X43460000Y-42000000D03*
X42500000Y-44000000D03*
X43460000Y-44000000D03*
D15*
X59000000Y-56500000D03*
D24*
X51500000Y-53000000D03*
X52520000Y-53000000D03*
D13*
X26000000Y-43000000D03*
X49225000Y-27000000D03*
D16*
X51765000Y-27000000D03*
D15*
X23000000Y-22500000D03*
X43200000Y-47830000D03*
D25*
X43200000Y-49100000D03*
D23*
X52040000Y-31500000D03*
X53000000Y-31500000D03*
D13*
X27450000Y-27000000D03*
D16*
X29990000Y-27000000D03*
M02*
