G04 #@! TF.GenerationSoftware,KiCad,Pcbnew,8.0.02-1-dev-30dbafaf7c*
G04 #@! TF.CreationDate,2024-03-27T19:33:34-07:00*
G04 #@! TF.ProjectId,adpd1080_breakoutboard,61647064-3130-4383-905f-627265616b6f,rev?*
G04 #@! TF.SameCoordinates,Original*
G04 #@! TF.FileFunction,Paste,Top*
G04 #@! TF.FilePolarity,Positive*
%FSLAX46Y46*%
G04 Gerber Fmt 4.6, Leading zero omitted, Abs format (unit mm)*
G04 Created by KiCad (PCBNEW 8.0.02-1-dev-30dbafaf7c) date 2024-03-27 19:33:34*
%MOMM*%
%LPD*%
G01*
G04 APERTURE LIST*
G04 Aperture macros list*
%AMRoundRect*
0 Rectangle with rounded corners*
0 $1 Rounding radius*
0 $2 $3 $4 $5 $6 $7 $8 $9 X,Y pos of 4 corners*
0 Add a 4 corners polygon primitive as box body*
4,1,4,$2,$3,$4,$5,$6,$7,$8,$9,$2,$3,0*
0 Add four circle primitives for the rounded corners*
1,1,$1+$1,$2,$3*
1,1,$1+$1,$4,$5*
1,1,$1+$1,$6,$7*
1,1,$1+$1,$8,$9*
0 Add four rect primitives between the rounded corners*
20,1,$1+$1,$2,$3,$4,$5,0*
20,1,$1+$1,$4,$5,$6,$7,0*
20,1,$1+$1,$6,$7,$8,$9,0*
20,1,$1+$1,$8,$9,$2,$3,0*%
G04 Aperture macros list end*
%ADD10R,0.680000X0.160000*%
%ADD11R,0.160000X0.680000*%
%ADD12R,2.160000X2.160000*%
%ADD13RoundRect,0.135000X0.185000X-0.135000X0.185000X0.135000X-0.185000X0.135000X-0.185000X-0.135000X0*%
%ADD14RoundRect,0.080000X-0.510000X-0.080000X0.510000X-0.080000X0.510000X0.080000X-0.510000X0.080000X0*%
%ADD15RoundRect,0.140000X0.140000X0.170000X-0.140000X0.170000X-0.140000X-0.170000X0.140000X-0.170000X0*%
%ADD16R,0.568960X0.325120*%
%ADD17R,1.402080X1.991360*%
%ADD18RoundRect,0.140000X-0.140000X-0.170000X0.140000X-0.170000X0.140000X0.170000X-0.140000X0.170000X0*%
%ADD19RoundRect,0.135000X-0.135000X-0.185000X0.135000X-0.185000X0.135000X0.185000X-0.135000X0.185000X0*%
G04 APERTURE END LIST*
D10*
X36400000Y-45600000D03*
X36400000Y-45200000D03*
X36400000Y-44800000D03*
X36400000Y-44400000D03*
X36400000Y-44000000D03*
X36400000Y-43600000D03*
X36400000Y-43200000D03*
D11*
X35650000Y-42450000D03*
X35250000Y-42450000D03*
X34850000Y-42450000D03*
X34450000Y-42450000D03*
X34050000Y-42450000D03*
X33650000Y-42450000D03*
X33250000Y-42450000D03*
D10*
X32500000Y-43200000D03*
X32500000Y-43600000D03*
X32500000Y-44000000D03*
X32500000Y-44400000D03*
X32500000Y-44800000D03*
X32500000Y-45200000D03*
X32500000Y-45600000D03*
D11*
X33250000Y-46350000D03*
X33650000Y-46350000D03*
X34050000Y-46350000D03*
X34450000Y-46350000D03*
X34850000Y-46350000D03*
X35250000Y-46350000D03*
X35650000Y-46350000D03*
D12*
X34450000Y-44400000D03*
D13*
X38490000Y-50020000D03*
X38490000Y-49000000D03*
X38500000Y-47500000D03*
X38500000Y-46480000D03*
D14*
X46675000Y-46500000D03*
X46675000Y-47150000D03*
X46675000Y-47800000D03*
X46675000Y-48450000D03*
X46675000Y-49100000D03*
X46675000Y-49750000D03*
X46675000Y-50400000D03*
X52400000Y-50400000D03*
X52400000Y-49750000D03*
X52400000Y-49100000D03*
X52400000Y-48450000D03*
X52400000Y-47800000D03*
X52400000Y-47150000D03*
X52400000Y-46500000D03*
D15*
X56500000Y-32500000D03*
X55540000Y-32500000D03*
D13*
X56750000Y-36000000D03*
X56750000Y-34980000D03*
D15*
X56480000Y-27000000D03*
X55520000Y-27000000D03*
D16*
X52250000Y-34000000D03*
X52250000Y-34950001D03*
X52250000Y-35900002D03*
X55044000Y-35900002D03*
X55044000Y-34950001D03*
X55044000Y-34000000D03*
D17*
X53647000Y-34950001D03*
D15*
X56500000Y-30000000D03*
X55540000Y-30000000D03*
D18*
X42520000Y-39400000D03*
X43480000Y-39400000D03*
X42500000Y-42000000D03*
X43460000Y-42000000D03*
X42500000Y-44000000D03*
X43460000Y-44000000D03*
D19*
X51500000Y-53000000D03*
X52520000Y-53000000D03*
D18*
X52040000Y-31500000D03*
X53000000Y-31500000D03*
M02*
