G04 #@! TF.GenerationSoftware,KiCad,Pcbnew,8.0.01-1-dev-1e03266dfe*
G04 #@! TF.CreationDate,2024-03-02T01:41:00-08:00*
G04 #@! TF.ProjectId,sfh7070_breakoutboard,73666837-3037-4305-9f62-7265616b6f75,rev?*
G04 #@! TF.SameCoordinates,Original*
G04 #@! TF.FileFunction,Legend,Top*
G04 #@! TF.FilePolarity,Positive*
%FSLAX46Y46*%
G04 Gerber Fmt 4.6, Leading zero omitted, Abs format (unit mm)*
G04 Created by KiCad (PCBNEW 8.0.01-1-dev-1e03266dfe) date 2024-03-02 01:41:00*
%MOMM*%
%LPD*%
G01*
G04 APERTURE LIST*
%ADD10C,0.150000*%
%ADD11C,0.100000*%
%ADD12C,0.120000*%
%ADD13C,0.152400*%
G04 APERTURE END LIST*
D10*
X23318771Y-26594173D02*
X23918771Y-26394173D01*
X23918771Y-26394173D02*
X23318771Y-26194173D01*
X23918771Y-25708458D02*
X23918771Y-25994172D01*
X23918771Y-25994172D02*
X23318771Y-25994172D01*
X23604485Y-25508458D02*
X23604485Y-25308458D01*
X23918771Y-25222744D02*
X23918771Y-25508458D01*
X23918771Y-25508458D02*
X23318771Y-25508458D01*
X23318771Y-25508458D02*
X23318771Y-25222744D01*
X23918771Y-24965601D02*
X23318771Y-24965601D01*
X23318771Y-24965601D02*
X23318771Y-24822744D01*
X23318771Y-24822744D02*
X23347342Y-24737030D01*
X23347342Y-24737030D02*
X23404485Y-24679887D01*
X23404485Y-24679887D02*
X23461628Y-24651316D01*
X23461628Y-24651316D02*
X23575914Y-24622744D01*
X23575914Y-24622744D02*
X23661628Y-24622744D01*
X23661628Y-24622744D02*
X23775914Y-24651316D01*
X23775914Y-24651316D02*
X23833057Y-24679887D01*
X23833057Y-24679887D02*
X23890200Y-24737030D01*
X23890200Y-24737030D02*
X23918771Y-24822744D01*
X23918771Y-24822744D02*
X23918771Y-24965601D01*
X23918771Y-36758458D02*
X23318771Y-36758458D01*
X23318771Y-36758458D02*
X23318771Y-36529887D01*
X23318771Y-36529887D02*
X23347342Y-36472744D01*
X23347342Y-36472744D02*
X23375914Y-36444173D01*
X23375914Y-36444173D02*
X23433057Y-36415601D01*
X23433057Y-36415601D02*
X23518771Y-36415601D01*
X23518771Y-36415601D02*
X23575914Y-36444173D01*
X23575914Y-36444173D02*
X23604485Y-36472744D01*
X23604485Y-36472744D02*
X23633057Y-36529887D01*
X23633057Y-36529887D02*
X23633057Y-36758458D01*
X23918771Y-36158458D02*
X23318771Y-36158458D01*
X23318771Y-36158458D02*
X23318771Y-36015601D01*
X23318771Y-36015601D02*
X23347342Y-35929887D01*
X23347342Y-35929887D02*
X23404485Y-35872744D01*
X23404485Y-35872744D02*
X23461628Y-35844173D01*
X23461628Y-35844173D02*
X23575914Y-35815601D01*
X23575914Y-35815601D02*
X23661628Y-35815601D01*
X23661628Y-35815601D02*
X23775914Y-35844173D01*
X23775914Y-35844173D02*
X23833057Y-35872744D01*
X23833057Y-35872744D02*
X23890200Y-35929887D01*
X23890200Y-35929887D02*
X23918771Y-36015601D01*
X23918771Y-36015601D02*
X23918771Y-36158458D01*
X23747342Y-35587030D02*
X23747342Y-35301316D01*
X23918771Y-35644173D02*
X23318771Y-35444173D01*
X23318771Y-35444173D02*
X23918771Y-35244173D01*
X23347342Y-31694173D02*
X23318771Y-31751316D01*
X23318771Y-31751316D02*
X23318771Y-31837030D01*
X23318771Y-31837030D02*
X23347342Y-31922744D01*
X23347342Y-31922744D02*
X23404485Y-31979887D01*
X23404485Y-31979887D02*
X23461628Y-32008458D01*
X23461628Y-32008458D02*
X23575914Y-32037030D01*
X23575914Y-32037030D02*
X23661628Y-32037030D01*
X23661628Y-32037030D02*
X23775914Y-32008458D01*
X23775914Y-32008458D02*
X23833057Y-31979887D01*
X23833057Y-31979887D02*
X23890200Y-31922744D01*
X23890200Y-31922744D02*
X23918771Y-31837030D01*
X23918771Y-31837030D02*
X23918771Y-31779887D01*
X23918771Y-31779887D02*
X23890200Y-31694173D01*
X23890200Y-31694173D02*
X23861628Y-31665601D01*
X23861628Y-31665601D02*
X23661628Y-31665601D01*
X23661628Y-31665601D02*
X23661628Y-31779887D01*
X23918771Y-31122744D02*
X23918771Y-31408458D01*
X23918771Y-31408458D02*
X23318771Y-31408458D01*
X23375914Y-30951316D02*
X23347342Y-30922744D01*
X23347342Y-30922744D02*
X23318771Y-30865602D01*
X23318771Y-30865602D02*
X23318771Y-30722744D01*
X23318771Y-30722744D02*
X23347342Y-30665602D01*
X23347342Y-30665602D02*
X23375914Y-30637030D01*
X23375914Y-30637030D02*
X23433057Y-30608459D01*
X23433057Y-30608459D02*
X23490200Y-30608459D01*
X23490200Y-30608459D02*
X23575914Y-30637030D01*
X23575914Y-30637030D02*
X23918771Y-30979887D01*
X23918771Y-30979887D02*
X23918771Y-30608459D01*
X23861628Y-30008458D02*
X23890200Y-30037030D01*
X23890200Y-30037030D02*
X23918771Y-30122744D01*
X23918771Y-30122744D02*
X23918771Y-30179887D01*
X23918771Y-30179887D02*
X23890200Y-30265601D01*
X23890200Y-30265601D02*
X23833057Y-30322744D01*
X23833057Y-30322744D02*
X23775914Y-30351315D01*
X23775914Y-30351315D02*
X23661628Y-30379887D01*
X23661628Y-30379887D02*
X23575914Y-30379887D01*
X23575914Y-30379887D02*
X23461628Y-30351315D01*
X23461628Y-30351315D02*
X23404485Y-30322744D01*
X23404485Y-30322744D02*
X23347342Y-30265601D01*
X23347342Y-30265601D02*
X23318771Y-30179887D01*
X23318771Y-30179887D02*
X23318771Y-30122744D01*
X23318771Y-30122744D02*
X23347342Y-30037030D01*
X23347342Y-30037030D02*
X23375914Y-30008458D01*
X23347342Y-28944173D02*
X23318771Y-29001316D01*
X23318771Y-29001316D02*
X23318771Y-29087030D01*
X23318771Y-29087030D02*
X23347342Y-29172744D01*
X23347342Y-29172744D02*
X23404485Y-29229887D01*
X23404485Y-29229887D02*
X23461628Y-29258458D01*
X23461628Y-29258458D02*
X23575914Y-29287030D01*
X23575914Y-29287030D02*
X23661628Y-29287030D01*
X23661628Y-29287030D02*
X23775914Y-29258458D01*
X23775914Y-29258458D02*
X23833057Y-29229887D01*
X23833057Y-29229887D02*
X23890200Y-29172744D01*
X23890200Y-29172744D02*
X23918771Y-29087030D01*
X23918771Y-29087030D02*
X23918771Y-29029887D01*
X23918771Y-29029887D02*
X23890200Y-28944173D01*
X23890200Y-28944173D02*
X23861628Y-28915601D01*
X23861628Y-28915601D02*
X23661628Y-28915601D01*
X23661628Y-28915601D02*
X23661628Y-29029887D01*
X23918771Y-28372744D02*
X23918771Y-28658458D01*
X23918771Y-28658458D02*
X23318771Y-28658458D01*
X23918771Y-27858459D02*
X23918771Y-28201316D01*
X23918771Y-28029887D02*
X23318771Y-28029887D01*
X23318771Y-28029887D02*
X23404485Y-28087030D01*
X23404485Y-28087030D02*
X23461628Y-28144173D01*
X23461628Y-28144173D02*
X23490200Y-28201316D01*
X23861628Y-27258458D02*
X23890200Y-27287030D01*
X23890200Y-27287030D02*
X23918771Y-27372744D01*
X23918771Y-27372744D02*
X23918771Y-27429887D01*
X23918771Y-27429887D02*
X23890200Y-27515601D01*
X23890200Y-27515601D02*
X23833057Y-27572744D01*
X23833057Y-27572744D02*
X23775914Y-27601315D01*
X23775914Y-27601315D02*
X23661628Y-27629887D01*
X23661628Y-27629887D02*
X23575914Y-27629887D01*
X23575914Y-27629887D02*
X23461628Y-27601315D01*
X23461628Y-27601315D02*
X23404485Y-27572744D01*
X23404485Y-27572744D02*
X23347342Y-27515601D01*
X23347342Y-27515601D02*
X23318771Y-27429887D01*
X23318771Y-27429887D02*
X23318771Y-27372744D01*
X23318771Y-27372744D02*
X23347342Y-27287030D01*
X23347342Y-27287030D02*
X23375914Y-27258458D01*
X23918771Y-34508458D02*
X23318771Y-34508458D01*
X23318771Y-34508458D02*
X23318771Y-34279887D01*
X23318771Y-34279887D02*
X23347342Y-34222744D01*
X23347342Y-34222744D02*
X23375914Y-34194173D01*
X23375914Y-34194173D02*
X23433057Y-34165601D01*
X23433057Y-34165601D02*
X23518771Y-34165601D01*
X23518771Y-34165601D02*
X23575914Y-34194173D01*
X23575914Y-34194173D02*
X23604485Y-34222744D01*
X23604485Y-34222744D02*
X23633057Y-34279887D01*
X23633057Y-34279887D02*
X23633057Y-34508458D01*
X23918771Y-33908458D02*
X23318771Y-33908458D01*
X23318771Y-33908458D02*
X23318771Y-33765601D01*
X23318771Y-33765601D02*
X23347342Y-33679887D01*
X23347342Y-33679887D02*
X23404485Y-33622744D01*
X23404485Y-33622744D02*
X23461628Y-33594173D01*
X23461628Y-33594173D02*
X23575914Y-33565601D01*
X23575914Y-33565601D02*
X23661628Y-33565601D01*
X23661628Y-33565601D02*
X23775914Y-33594173D01*
X23775914Y-33594173D02*
X23833057Y-33622744D01*
X23833057Y-33622744D02*
X23890200Y-33679887D01*
X23890200Y-33679887D02*
X23918771Y-33765601D01*
X23918771Y-33765601D02*
X23918771Y-33908458D01*
X23861628Y-32965601D02*
X23890200Y-32994173D01*
X23890200Y-32994173D02*
X23918771Y-33079887D01*
X23918771Y-33079887D02*
X23918771Y-33137030D01*
X23918771Y-33137030D02*
X23890200Y-33222744D01*
X23890200Y-33222744D02*
X23833057Y-33279887D01*
X23833057Y-33279887D02*
X23775914Y-33308458D01*
X23775914Y-33308458D02*
X23661628Y-33337030D01*
X23661628Y-33337030D02*
X23575914Y-33337030D01*
X23575914Y-33337030D02*
X23461628Y-33308458D01*
X23461628Y-33308458D02*
X23404485Y-33279887D01*
X23404485Y-33279887D02*
X23347342Y-33222744D01*
X23347342Y-33222744D02*
X23318771Y-33137030D01*
X23318771Y-33137030D02*
X23318771Y-33079887D01*
X23318771Y-33079887D02*
X23347342Y-32994173D01*
X23347342Y-32994173D02*
X23375914Y-32965601D01*
X23347342Y-23194173D02*
X23318771Y-23251316D01*
X23318771Y-23251316D02*
X23318771Y-23337030D01*
X23318771Y-23337030D02*
X23347342Y-23422744D01*
X23347342Y-23422744D02*
X23404485Y-23479887D01*
X23404485Y-23479887D02*
X23461628Y-23508458D01*
X23461628Y-23508458D02*
X23575914Y-23537030D01*
X23575914Y-23537030D02*
X23661628Y-23537030D01*
X23661628Y-23537030D02*
X23775914Y-23508458D01*
X23775914Y-23508458D02*
X23833057Y-23479887D01*
X23833057Y-23479887D02*
X23890200Y-23422744D01*
X23890200Y-23422744D02*
X23918771Y-23337030D01*
X23918771Y-23337030D02*
X23918771Y-23279887D01*
X23918771Y-23279887D02*
X23890200Y-23194173D01*
X23890200Y-23194173D02*
X23861628Y-23165601D01*
X23861628Y-23165601D02*
X23661628Y-23165601D01*
X23661628Y-23165601D02*
X23661628Y-23279887D01*
X23918771Y-22908458D02*
X23318771Y-22908458D01*
X23318771Y-22908458D02*
X23918771Y-22565601D01*
X23918771Y-22565601D02*
X23318771Y-22565601D01*
X23918771Y-22279887D02*
X23318771Y-22279887D01*
X23318771Y-22279887D02*
X23318771Y-22137030D01*
X23318771Y-22137030D02*
X23347342Y-22051316D01*
X23347342Y-22051316D02*
X23404485Y-21994173D01*
X23404485Y-21994173D02*
X23461628Y-21965602D01*
X23461628Y-21965602D02*
X23575914Y-21937030D01*
X23575914Y-21937030D02*
X23661628Y-21937030D01*
X23661628Y-21937030D02*
X23775914Y-21965602D01*
X23775914Y-21965602D02*
X23833057Y-21994173D01*
X23833057Y-21994173D02*
X23890200Y-22051316D01*
X23890200Y-22051316D02*
X23918771Y-22137030D01*
X23918771Y-22137030D02*
X23918771Y-22279887D01*
D11*
X26930074Y-19892800D02*
X27015789Y-19921371D01*
X27015789Y-19921371D02*
X27158646Y-19921371D01*
X27158646Y-19921371D02*
X27215789Y-19892800D01*
X27215789Y-19892800D02*
X27244360Y-19864228D01*
X27244360Y-19864228D02*
X27272931Y-19807085D01*
X27272931Y-19807085D02*
X27272931Y-19749942D01*
X27272931Y-19749942D02*
X27244360Y-19692800D01*
X27244360Y-19692800D02*
X27215789Y-19664228D01*
X27215789Y-19664228D02*
X27158646Y-19635657D01*
X27158646Y-19635657D02*
X27044360Y-19607085D01*
X27044360Y-19607085D02*
X26987217Y-19578514D01*
X26987217Y-19578514D02*
X26958646Y-19549942D01*
X26958646Y-19549942D02*
X26930074Y-19492800D01*
X26930074Y-19492800D02*
X26930074Y-19435657D01*
X26930074Y-19435657D02*
X26958646Y-19378514D01*
X26958646Y-19378514D02*
X26987217Y-19349942D01*
X26987217Y-19349942D02*
X27044360Y-19321371D01*
X27044360Y-19321371D02*
X27187217Y-19321371D01*
X27187217Y-19321371D02*
X27272931Y-19349942D01*
X27730075Y-19607085D02*
X27530075Y-19607085D01*
X27530075Y-19921371D02*
X27530075Y-19321371D01*
X27530075Y-19321371D02*
X27815789Y-19321371D01*
X28044361Y-19921371D02*
X28044361Y-19321371D01*
X28044361Y-19607085D02*
X28387218Y-19607085D01*
X28387218Y-19921371D02*
X28387218Y-19321371D01*
X28615789Y-19321371D02*
X29015789Y-19321371D01*
X29015789Y-19321371D02*
X28758646Y-19921371D01*
X29358646Y-19321371D02*
X29415789Y-19321371D01*
X29415789Y-19321371D02*
X29472932Y-19349942D01*
X29472932Y-19349942D02*
X29501504Y-19378514D01*
X29501504Y-19378514D02*
X29530075Y-19435657D01*
X29530075Y-19435657D02*
X29558646Y-19549942D01*
X29558646Y-19549942D02*
X29558646Y-19692800D01*
X29558646Y-19692800D02*
X29530075Y-19807085D01*
X29530075Y-19807085D02*
X29501504Y-19864228D01*
X29501504Y-19864228D02*
X29472932Y-19892800D01*
X29472932Y-19892800D02*
X29415789Y-19921371D01*
X29415789Y-19921371D02*
X29358646Y-19921371D01*
X29358646Y-19921371D02*
X29301504Y-19892800D01*
X29301504Y-19892800D02*
X29272932Y-19864228D01*
X29272932Y-19864228D02*
X29244361Y-19807085D01*
X29244361Y-19807085D02*
X29215789Y-19692800D01*
X29215789Y-19692800D02*
X29215789Y-19549942D01*
X29215789Y-19549942D02*
X29244361Y-19435657D01*
X29244361Y-19435657D02*
X29272932Y-19378514D01*
X29272932Y-19378514D02*
X29301504Y-19349942D01*
X29301504Y-19349942D02*
X29358646Y-19321371D01*
X29758647Y-19321371D02*
X30158647Y-19321371D01*
X30158647Y-19321371D02*
X29901504Y-19921371D01*
X30501504Y-19321371D02*
X30558647Y-19321371D01*
X30558647Y-19321371D02*
X30615790Y-19349942D01*
X30615790Y-19349942D02*
X30644362Y-19378514D01*
X30644362Y-19378514D02*
X30672933Y-19435657D01*
X30672933Y-19435657D02*
X30701504Y-19549942D01*
X30701504Y-19549942D02*
X30701504Y-19692800D01*
X30701504Y-19692800D02*
X30672933Y-19807085D01*
X30672933Y-19807085D02*
X30644362Y-19864228D01*
X30644362Y-19864228D02*
X30615790Y-19892800D01*
X30615790Y-19892800D02*
X30558647Y-19921371D01*
X30558647Y-19921371D02*
X30501504Y-19921371D01*
X30501504Y-19921371D02*
X30444362Y-19892800D01*
X30444362Y-19892800D02*
X30415790Y-19864228D01*
X30415790Y-19864228D02*
X30387219Y-19807085D01*
X30387219Y-19807085D02*
X30358647Y-19692800D01*
X30358647Y-19692800D02*
X30358647Y-19549942D01*
X30358647Y-19549942D02*
X30387219Y-19435657D01*
X30387219Y-19435657D02*
X30415790Y-19378514D01*
X30415790Y-19378514D02*
X30444362Y-19349942D01*
X30444362Y-19349942D02*
X30501504Y-19321371D01*
X30815791Y-19978514D02*
X31272933Y-19978514D01*
X31615791Y-19607085D02*
X31701505Y-19635657D01*
X31701505Y-19635657D02*
X31730076Y-19664228D01*
X31730076Y-19664228D02*
X31758648Y-19721371D01*
X31758648Y-19721371D02*
X31758648Y-19807085D01*
X31758648Y-19807085D02*
X31730076Y-19864228D01*
X31730076Y-19864228D02*
X31701505Y-19892800D01*
X31701505Y-19892800D02*
X31644362Y-19921371D01*
X31644362Y-19921371D02*
X31415791Y-19921371D01*
X31415791Y-19921371D02*
X31415791Y-19321371D01*
X31415791Y-19321371D02*
X31615791Y-19321371D01*
X31615791Y-19321371D02*
X31672934Y-19349942D01*
X31672934Y-19349942D02*
X31701505Y-19378514D01*
X31701505Y-19378514D02*
X31730076Y-19435657D01*
X31730076Y-19435657D02*
X31730076Y-19492800D01*
X31730076Y-19492800D02*
X31701505Y-19549942D01*
X31701505Y-19549942D02*
X31672934Y-19578514D01*
X31672934Y-19578514D02*
X31615791Y-19607085D01*
X31615791Y-19607085D02*
X31415791Y-19607085D01*
X32015791Y-19921371D02*
X32015791Y-19321371D01*
X32015791Y-19321371D02*
X32244362Y-19321371D01*
X32244362Y-19321371D02*
X32301505Y-19349942D01*
X32301505Y-19349942D02*
X32330076Y-19378514D01*
X32330076Y-19378514D02*
X32358648Y-19435657D01*
X32358648Y-19435657D02*
X32358648Y-19521371D01*
X32358648Y-19521371D02*
X32330076Y-19578514D01*
X32330076Y-19578514D02*
X32301505Y-19607085D01*
X32301505Y-19607085D02*
X32244362Y-19635657D01*
X32244362Y-19635657D02*
X32015791Y-19635657D01*
X32472934Y-19978514D02*
X32930076Y-19978514D01*
X32987219Y-19321371D02*
X33187219Y-19921371D01*
X33187219Y-19921371D02*
X33387219Y-19321371D01*
X33701505Y-19321371D02*
X33758648Y-19321371D01*
X33758648Y-19321371D02*
X33815791Y-19349942D01*
X33815791Y-19349942D02*
X33844363Y-19378514D01*
X33844363Y-19378514D02*
X33872934Y-19435657D01*
X33872934Y-19435657D02*
X33901505Y-19549942D01*
X33901505Y-19549942D02*
X33901505Y-19692800D01*
X33901505Y-19692800D02*
X33872934Y-19807085D01*
X33872934Y-19807085D02*
X33844363Y-19864228D01*
X33844363Y-19864228D02*
X33815791Y-19892800D01*
X33815791Y-19892800D02*
X33758648Y-19921371D01*
X33758648Y-19921371D02*
X33701505Y-19921371D01*
X33701505Y-19921371D02*
X33644363Y-19892800D01*
X33644363Y-19892800D02*
X33615791Y-19864228D01*
X33615791Y-19864228D02*
X33587220Y-19807085D01*
X33587220Y-19807085D02*
X33558648Y-19692800D01*
X33558648Y-19692800D02*
X33558648Y-19549942D01*
X33558648Y-19549942D02*
X33587220Y-19435657D01*
X33587220Y-19435657D02*
X33615791Y-19378514D01*
X33615791Y-19378514D02*
X33644363Y-19349942D01*
X33644363Y-19349942D02*
X33701505Y-19321371D01*
X34158649Y-19864228D02*
X34187220Y-19892800D01*
X34187220Y-19892800D02*
X34158649Y-19921371D01*
X34158649Y-19921371D02*
X34130077Y-19892800D01*
X34130077Y-19892800D02*
X34158649Y-19864228D01*
X34158649Y-19864228D02*
X34158649Y-19921371D01*
X34758648Y-19921371D02*
X34415791Y-19921371D01*
X34587220Y-19921371D02*
X34587220Y-19321371D01*
X34587220Y-19321371D02*
X34530077Y-19407085D01*
X34530077Y-19407085D02*
X34472934Y-19464228D01*
X34472934Y-19464228D02*
X34415791Y-19492800D01*
D10*
X25983333Y-20402295D02*
X25983333Y-20973723D01*
X25983333Y-20973723D02*
X25945238Y-21088009D01*
X25945238Y-21088009D02*
X25869047Y-21164200D01*
X25869047Y-21164200D02*
X25754762Y-21202295D01*
X25754762Y-21202295D02*
X25678571Y-21202295D01*
X26783333Y-21202295D02*
X26326190Y-21202295D01*
X26554762Y-21202295D02*
X26554762Y-20402295D01*
X26554762Y-20402295D02*
X26478571Y-20516580D01*
X26478571Y-20516580D02*
X26402381Y-20592771D01*
X26402381Y-20592771D02*
X26326190Y-20630866D01*
X32116667Y-22286104D02*
X32078571Y-22324200D01*
X32078571Y-22324200D02*
X31964286Y-22362295D01*
X31964286Y-22362295D02*
X31888095Y-22362295D01*
X31888095Y-22362295D02*
X31773809Y-22324200D01*
X31773809Y-22324200D02*
X31697619Y-22248009D01*
X31697619Y-22248009D02*
X31659524Y-22171819D01*
X31659524Y-22171819D02*
X31621428Y-22019438D01*
X31621428Y-22019438D02*
X31621428Y-21905152D01*
X31621428Y-21905152D02*
X31659524Y-21752771D01*
X31659524Y-21752771D02*
X31697619Y-21676580D01*
X31697619Y-21676580D02*
X31773809Y-21600390D01*
X31773809Y-21600390D02*
X31888095Y-21562295D01*
X31888095Y-21562295D02*
X31964286Y-21562295D01*
X31964286Y-21562295D02*
X32078571Y-21600390D01*
X32078571Y-21600390D02*
X32116667Y-21638485D01*
X32421428Y-21638485D02*
X32459524Y-21600390D01*
X32459524Y-21600390D02*
X32535714Y-21562295D01*
X32535714Y-21562295D02*
X32726190Y-21562295D01*
X32726190Y-21562295D02*
X32802381Y-21600390D01*
X32802381Y-21600390D02*
X32840476Y-21638485D01*
X32840476Y-21638485D02*
X32878571Y-21714676D01*
X32878571Y-21714676D02*
X32878571Y-21790866D01*
X32878571Y-21790866D02*
X32840476Y-21905152D01*
X32840476Y-21905152D02*
X32383333Y-22362295D01*
X32383333Y-22362295D02*
X32878571Y-22362295D01*
X30719048Y-25112295D02*
X30719048Y-24312295D01*
X31557143Y-25036104D02*
X31519047Y-25074200D01*
X31519047Y-25074200D02*
X31404762Y-25112295D01*
X31404762Y-25112295D02*
X31328571Y-25112295D01*
X31328571Y-25112295D02*
X31214285Y-25074200D01*
X31214285Y-25074200D02*
X31138095Y-24998009D01*
X31138095Y-24998009D02*
X31100000Y-24921819D01*
X31100000Y-24921819D02*
X31061904Y-24769438D01*
X31061904Y-24769438D02*
X31061904Y-24655152D01*
X31061904Y-24655152D02*
X31100000Y-24502771D01*
X31100000Y-24502771D02*
X31138095Y-24426580D01*
X31138095Y-24426580D02*
X31214285Y-24350390D01*
X31214285Y-24350390D02*
X31328571Y-24312295D01*
X31328571Y-24312295D02*
X31404762Y-24312295D01*
X31404762Y-24312295D02*
X31519047Y-24350390D01*
X31519047Y-24350390D02*
X31557143Y-24388485D01*
X32319047Y-25112295D02*
X31861904Y-25112295D01*
X32090476Y-25112295D02*
X32090476Y-24312295D01*
X32090476Y-24312295D02*
X32014285Y-24426580D01*
X32014285Y-24426580D02*
X31938095Y-24502771D01*
X31938095Y-24502771D02*
X31861904Y-24540866D01*
X30833333Y-35109580D02*
X30785714Y-35157200D01*
X30785714Y-35157200D02*
X30642857Y-35204819D01*
X30642857Y-35204819D02*
X30547619Y-35204819D01*
X30547619Y-35204819D02*
X30404762Y-35157200D01*
X30404762Y-35157200D02*
X30309524Y-35061961D01*
X30309524Y-35061961D02*
X30261905Y-34966723D01*
X30261905Y-34966723D02*
X30214286Y-34776247D01*
X30214286Y-34776247D02*
X30214286Y-34633390D01*
X30214286Y-34633390D02*
X30261905Y-34442914D01*
X30261905Y-34442914D02*
X30309524Y-34347676D01*
X30309524Y-34347676D02*
X30404762Y-34252438D01*
X30404762Y-34252438D02*
X30547619Y-34204819D01*
X30547619Y-34204819D02*
X30642857Y-34204819D01*
X30642857Y-34204819D02*
X30785714Y-34252438D01*
X30785714Y-34252438D02*
X30833333Y-34300057D01*
X31785714Y-35204819D02*
X31214286Y-35204819D01*
X31500000Y-35204819D02*
X31500000Y-34204819D01*
X31500000Y-34204819D02*
X31404762Y-34347676D01*
X31404762Y-34347676D02*
X31309524Y-34442914D01*
X31309524Y-34442914D02*
X31214286Y-34490533D01*
D12*
X24920000Y-21840000D02*
X26250000Y-21840000D01*
X24920000Y-23170000D02*
X24920000Y-21840000D01*
X24920000Y-24440000D02*
X24920000Y-37200000D01*
X24920000Y-24440000D02*
X27580000Y-24440000D01*
X24920000Y-37200000D02*
X27580000Y-37200000D01*
X27580000Y-24440000D02*
X27580000Y-37200000D01*
X36890000Y-36240000D02*
X38000000Y-36240000D01*
X36890000Y-37000000D02*
X36890000Y-36240000D01*
X36890000Y-37760000D02*
X36890000Y-37695000D01*
X36890000Y-37760000D02*
X37436529Y-37760000D01*
X36890000Y-37760000D02*
X39110000Y-37760000D01*
X38563471Y-37760000D02*
X39110000Y-37760000D01*
X39110000Y-37760000D02*
X39110000Y-37695000D01*
X36390000Y-18740000D02*
X36390000Y-18805000D01*
X36936529Y-18740000D02*
X36390000Y-18740000D01*
X38610000Y-18740000D02*
X36390000Y-18740000D01*
X38610000Y-18740000D02*
X38063471Y-18740000D01*
X38610000Y-18740000D02*
X38610000Y-18805000D01*
X38610000Y-19500000D02*
X38610000Y-20260000D01*
X38610000Y-20260000D02*
X37500000Y-20260000D01*
X34584420Y-21490000D02*
X34865580Y-21490000D01*
X34584420Y-22510000D02*
X34865580Y-22510000D01*
X21240000Y-35640000D02*
X21240000Y-36186529D01*
X21240000Y-35640000D02*
X21240000Y-37860000D01*
X21240000Y-35640000D02*
X21305000Y-35640000D01*
X21240000Y-37313471D02*
X21240000Y-37860000D01*
X21240000Y-37860000D02*
X21305000Y-37860000D01*
X22000000Y-35640000D02*
X22760000Y-35640000D01*
X22760000Y-35640000D02*
X22760000Y-36750000D01*
D13*
X33025151Y-24325700D02*
X33025151Y-24604354D01*
X33025151Y-25895648D02*
X33025151Y-27604353D01*
X33025151Y-28895647D02*
X33025151Y-30604352D01*
X33025151Y-31895646D02*
X33025151Y-32174300D01*
X33025151Y-32174300D02*
X37266951Y-32174300D01*
X37266951Y-24325700D02*
X33025151Y-24325700D01*
X37266951Y-24604354D02*
X37266951Y-24325700D01*
X37266951Y-27604353D02*
X37266951Y-25895648D01*
X37266951Y-30604352D02*
X37266951Y-28895647D01*
X37266951Y-32174300D02*
X37266951Y-31895646D01*
X40101850Y-25250001D02*
G75*
G02*
X39898650Y-25250001I-101600J0D01*
G01*
X39898650Y-25250001D02*
G75*
G02*
X40101850Y-25250001I101600J0D01*
G01*
D12*
X33584420Y-33740000D02*
X33865580Y-33740000D01*
X33584420Y-34760000D02*
X33865580Y-34760000D01*
X22640000Y-18740000D02*
X23750000Y-18740000D01*
X22640000Y-19500000D02*
X22640000Y-18740000D01*
X22640000Y-20260000D02*
X22640000Y-20195000D01*
X22640000Y-20260000D02*
X23186529Y-20260000D01*
X22640000Y-20260000D02*
X24860000Y-20260000D01*
X24313471Y-20260000D02*
X24860000Y-20260000D01*
X24860000Y-20260000D02*
X24860000Y-20195000D01*
M02*
