M48
; DRILL file {KiCad 8.0.02-1-dev-92ffd898f5} date 2024-03-29T15:55:24-0700
; FORMAT={-:-/ absolute / inch / decimal}
; #@! TF.CreationDate,2024-03-29T15:55:24-07:00
; #@! TF.GenerationSoftware,Kicad,Pcbnew,8.0.02-1-dev-92ffd898f5
; #@! TF.FileFunction,Plated,1,2,PTH
FMAT,2
INCH
; #@! TA.AperFunction,Plated,PTH,ViaDrill
T1C0.0157
; #@! TA.AperFunction,Plated,PTH,ComponentDrill
T2C0.0256
; #@! TA.AperFunction,Plated,PTH,ComponentDrill
T3C0.0394
%
G90
G05
T1
X1.063Y-1.2795
X1.0827Y-0.8858
X1.1024Y-0.7677
X1.122Y-1.4567
X1.3976Y-1.4567
X1.4173Y-0.7677
X1.4173Y-0.8661
T2
X0.8858Y-0.6594
X0.8957Y-1.4862
X1.4862Y-1.4567
X1.6339Y-0.6594
X1.6339Y-1.4862
T3
X0.9449Y-0.7972
X0.9449Y-0.8972
X0.9449Y-0.9972
X0.9449Y-1.0972
X0.9449Y-1.1972
X0.9449Y-1.2972
X1.5748Y-0.8071
X1.5748Y-0.9071
X1.5748Y-1.0071
X1.5748Y-1.1071
X1.5748Y-1.2071
X1.5748Y-1.3071
M30
