%TF.GenerationSoftware,KiCad,Pcbnew,8.0.01-1-dev-1e03266dfe*%
%TF.CreationDate,2024-03-02T01:51:31-08:00*%
%TF.ProjectId,sfh7072_breakoutboard,73666837-3037-4325-9f62-7265616b6f75,rev?*%
%TF.SameCoordinates,Original*%
%TF.FileFunction,Drillmap*%
%TF.FilePolarity,Positive*%
%FSLAX45Y45*%
G04 Gerber Fmt 4.5, Leading zero omitted, Abs format (unit mm)*
G04 Created by KiCad (PCBNEW 8.0.01-1-dev-1e03266dfe) date 2024-03-02 01:51:31*
%MOMM*%
%LPD*%
G01*
G04 APERTURE LIST*
%ADD10C,0.050000*%
%ADD11C,0.200000*%
G04 APERTURE END LIST*
D10*
X1975000Y-1475000D02*
X4425000Y-1475000D01*
X4425000Y-3975000D01*
X1975000Y-3975000D01*
X1975000Y-1475000D01*
D11*
X2233277Y-4288984D02*
X2233277Y-4088984D01*
X2233277Y-4088984D02*
X2280896Y-4088984D01*
X2280896Y-4088984D02*
X2309467Y-4098508D01*
X2309467Y-4098508D02*
X2328515Y-4117555D01*
X2328515Y-4117555D02*
X2338039Y-4136603D01*
X2338039Y-4136603D02*
X2347563Y-4174698D01*
X2347563Y-4174698D02*
X2347563Y-4203270D01*
X2347563Y-4203270D02*
X2338039Y-4241365D01*
X2338039Y-4241365D02*
X2328515Y-4260412D01*
X2328515Y-4260412D02*
X2309467Y-4279460D01*
X2309467Y-4279460D02*
X2280896Y-4288984D01*
X2280896Y-4288984D02*
X2233277Y-4288984D01*
X2433277Y-4288984D02*
X2433277Y-4155650D01*
X2433277Y-4193746D02*
X2442801Y-4174698D01*
X2442801Y-4174698D02*
X2452324Y-4165174D01*
X2452324Y-4165174D02*
X2471372Y-4155650D01*
X2471372Y-4155650D02*
X2490420Y-4155650D01*
X2557086Y-4288984D02*
X2557086Y-4155650D01*
X2557086Y-4088984D02*
X2547563Y-4098508D01*
X2547563Y-4098508D02*
X2557086Y-4108031D01*
X2557086Y-4108031D02*
X2566610Y-4098508D01*
X2566610Y-4098508D02*
X2557086Y-4088984D01*
X2557086Y-4088984D02*
X2557086Y-4108031D01*
X2680896Y-4288984D02*
X2661848Y-4279460D01*
X2661848Y-4279460D02*
X2652324Y-4260412D01*
X2652324Y-4260412D02*
X2652324Y-4088984D01*
X2785658Y-4288984D02*
X2766610Y-4279460D01*
X2766610Y-4279460D02*
X2757086Y-4260412D01*
X2757086Y-4260412D02*
X2757086Y-4088984D01*
X3014229Y-4288984D02*
X3014229Y-4088984D01*
X3014229Y-4088984D02*
X3080896Y-4231841D01*
X3080896Y-4231841D02*
X3147562Y-4088984D01*
X3147562Y-4088984D02*
X3147562Y-4288984D01*
X3328515Y-4288984D02*
X3328515Y-4184222D01*
X3328515Y-4184222D02*
X3318991Y-4165174D01*
X3318991Y-4165174D02*
X3299943Y-4155650D01*
X3299943Y-4155650D02*
X3261848Y-4155650D01*
X3261848Y-4155650D02*
X3242801Y-4165174D01*
X3328515Y-4279460D02*
X3309467Y-4288984D01*
X3309467Y-4288984D02*
X3261848Y-4288984D01*
X3261848Y-4288984D02*
X3242801Y-4279460D01*
X3242801Y-4279460D02*
X3233277Y-4260412D01*
X3233277Y-4260412D02*
X3233277Y-4241365D01*
X3233277Y-4241365D02*
X3242801Y-4222317D01*
X3242801Y-4222317D02*
X3261848Y-4212793D01*
X3261848Y-4212793D02*
X3309467Y-4212793D01*
X3309467Y-4212793D02*
X3328515Y-4203270D01*
X3423753Y-4155650D02*
X3423753Y-4355650D01*
X3423753Y-4165174D02*
X3442801Y-4155650D01*
X3442801Y-4155650D02*
X3480896Y-4155650D01*
X3480896Y-4155650D02*
X3499943Y-4165174D01*
X3499943Y-4165174D02*
X3509467Y-4174698D01*
X3509467Y-4174698D02*
X3518991Y-4193746D01*
X3518991Y-4193746D02*
X3518991Y-4250889D01*
X3518991Y-4250889D02*
X3509467Y-4269936D01*
X3509467Y-4269936D02*
X3499943Y-4279460D01*
X3499943Y-4279460D02*
X3480896Y-4288984D01*
X3480896Y-4288984D02*
X3442801Y-4288984D01*
X3442801Y-4288984D02*
X3423753Y-4279460D01*
X3604705Y-4269936D02*
X3614229Y-4279460D01*
X3614229Y-4279460D02*
X3604705Y-4288984D01*
X3604705Y-4288984D02*
X3595182Y-4279460D01*
X3595182Y-4279460D02*
X3604705Y-4269936D01*
X3604705Y-4269936D02*
X3604705Y-4288984D01*
X3604705Y-4165174D02*
X3614229Y-4174698D01*
X3614229Y-4174698D02*
X3604705Y-4184222D01*
X3604705Y-4184222D02*
X3595182Y-4174698D01*
X3595182Y-4174698D02*
X3604705Y-4165174D01*
X3604705Y-4165174D02*
X3604705Y-4184222D01*
M02*
