G04 #@! TF.GenerationSoftware,KiCad,Pcbnew,8.0.01-1-dev-1e03266dfe*
G04 #@! TF.CreationDate,2024-03-02T01:51:37-08:00*
G04 #@! TF.ProjectId,sfh7072_breakoutboard,73666837-3037-4325-9f62-7265616b6f75,rev?*
G04 #@! TF.SameCoordinates,Original*
G04 #@! TF.FileFunction,Copper,L1,Top*
G04 #@! TF.FilePolarity,Positive*
%FSLAX46Y46*%
G04 Gerber Fmt 4.6, Leading zero omitted, Abs format (unit mm)*
G04 Created by KiCad (PCBNEW 8.0.01-1-dev-1e03266dfe) date 2024-03-02 01:51:37*
%MOMM*%
%LPD*%
G01*
G04 APERTURE LIST*
G04 Aperture macros list*
%AMRoundRect*
0 Rectangle with rounded corners*
0 $1 Rounding radius*
0 $2 $3 $4 $5 $6 $7 $8 $9 X,Y pos of 4 corners*
0 Add a 4 corners polygon primitive as box body*
4,1,4,$2,$3,$4,$5,$6,$7,$8,$9,$2,$3,0*
0 Add four circle primitives for the rounded corners*
1,1,$1+$1,$2,$3*
1,1,$1+$1,$4,$5*
1,1,$1+$1,$6,$7*
1,1,$1+$1,$8,$9*
0 Add four rect primitives between the rounded corners*
20,1,$1+$1,$2,$3,$4,$5,0*
20,1,$1+$1,$4,$5,$6,$7,0*
20,1,$1+$1,$6,$7,$8,$9,0*
20,1,$1+$1,$8,$9,$2,$3,0*%
G04 Aperture macros list end*
G04 #@! TA.AperFunction,ComponentPad*
%ADD10R,1.700000X1.700000*%
G04 #@! TD*
G04 #@! TA.AperFunction,ComponentPad*
%ADD11O,1.700000X1.700000*%
G04 #@! TD*
G04 #@! TA.AperFunction,ComponentPad*
%ADD12R,1.000000X1.000000*%
G04 #@! TD*
G04 #@! TA.AperFunction,SMDPad,CuDef*
%ADD13RoundRect,0.225000X-0.225000X-0.250000X0.225000X-0.250000X0.225000X0.250000X-0.225000X0.250000X0*%
G04 #@! TD*
G04 #@! TA.AperFunction,SMDPad,CuDef*
%ADD14RoundRect,0.225000X0.225000X0.250000X-0.225000X0.250000X-0.225000X-0.250000X0.225000X-0.250000X0*%
G04 #@! TD*
G04 #@! TA.AperFunction,SMDPad,CuDef*
%ADD15R,1.000000X0.900000*%
G04 #@! TD*
G04 #@! TA.AperFunction,ViaPad*
%ADD16C,0.800000*%
G04 #@! TD*
G04 #@! TA.AperFunction,Conductor*
%ADD17C,0.250000*%
G04 #@! TD*
G04 APERTURE END LIST*
D10*
X24000000Y-20250000D03*
D11*
X24000000Y-22790000D03*
X24000000Y-25330000D03*
X24000000Y-27870000D03*
X24000000Y-30410000D03*
X24000000Y-32950000D03*
D10*
X39750000Y-31500000D03*
D11*
X39750000Y-28960000D03*
X39750000Y-26420000D03*
X39750000Y-23880000D03*
D12*
X41500000Y-37750000D03*
X41500000Y-16750000D03*
D13*
X33500000Y-35750000D03*
X35050000Y-35750000D03*
D14*
X36750000Y-20500000D03*
X35200000Y-20500000D03*
D13*
X28500000Y-35750000D03*
X30050000Y-35750000D03*
D12*
X22750000Y-37750000D03*
D14*
X29000000Y-20500000D03*
X27450000Y-20500000D03*
D12*
X22500000Y-16750000D03*
D15*
X31000000Y-25250000D03*
X31000000Y-26450000D03*
X31000000Y-27650000D03*
X31000000Y-28850000D03*
X31000000Y-30050000D03*
X31000000Y-31250000D03*
X33500000Y-31250000D03*
X33500000Y-30050000D03*
X33500000Y-28850000D03*
X33500000Y-27650000D03*
X33500000Y-26450000D03*
X33500000Y-25250000D03*
D16*
X36750000Y-35750000D03*
X31750000Y-35750000D03*
X33500000Y-20500000D03*
X27000000Y-32500000D03*
X27000000Y-22750000D03*
X36750000Y-23000000D03*
X27000000Y-30000000D03*
X36750000Y-26250000D03*
D17*
X35050000Y-35750000D02*
X36750000Y-35750000D01*
X30050000Y-35750000D02*
X31750000Y-35750000D01*
X27200000Y-20250000D02*
X27450000Y-20500000D01*
X35200000Y-20500000D02*
X33500000Y-20500000D01*
X24000000Y-20250000D02*
X27200000Y-20250000D01*
X29000000Y-21500000D02*
X29000000Y-20500000D01*
X31000000Y-28850000D02*
X31000000Y-30050000D01*
X28500000Y-34000000D02*
X27000000Y-32500000D01*
X24000000Y-22790000D02*
X26960000Y-22790000D01*
X28450000Y-35800000D02*
X28500000Y-35750000D01*
X27750000Y-22750000D02*
X29000000Y-21500000D01*
X33500000Y-33000000D02*
X33500000Y-31250000D01*
X31150000Y-28850000D02*
X32250000Y-27750000D01*
X27050000Y-30050000D02*
X27000000Y-30000000D01*
X26750000Y-22750000D02*
X26710000Y-22790000D01*
X33300000Y-26450000D02*
X33500000Y-26450000D01*
X31000000Y-28850000D02*
X31150000Y-28850000D01*
X31000000Y-30050000D02*
X27050000Y-30050000D01*
X33500000Y-26450000D02*
X36550000Y-26450000D01*
X27000000Y-22750000D02*
X27750000Y-22750000D01*
X33500000Y-34000000D02*
X33500000Y-33000000D01*
X28500000Y-35750000D02*
X28500000Y-34000000D01*
X36550000Y-26450000D02*
X36750000Y-26250000D01*
X33500000Y-34000000D02*
X28500000Y-34000000D01*
X32250000Y-27750000D02*
X32250000Y-27500000D01*
X33500000Y-34000000D02*
X33500000Y-35750000D01*
X36750000Y-23000000D02*
X36750000Y-20500000D01*
X26960000Y-22790000D02*
X27000000Y-22750000D01*
X32250000Y-27500000D02*
X33300000Y-26450000D01*
X30920000Y-25330000D02*
X31000000Y-25250000D01*
X24000000Y-25330000D02*
X30920000Y-25330000D01*
X25700000Y-31250000D02*
X31000000Y-31250000D01*
X24000000Y-32950000D02*
X25700000Y-31250000D01*
X25420000Y-26450000D02*
X31000000Y-26450000D01*
X24000000Y-27870000D02*
X25420000Y-26450000D01*
X30900000Y-27750000D02*
X31000000Y-27650000D01*
X24000000Y-30410000D02*
X26760000Y-27650000D01*
X26760000Y-27650000D02*
X31000000Y-27650000D01*
X39750000Y-31500000D02*
X39500000Y-31500000D01*
X39500000Y-31500000D02*
X38050000Y-30050000D01*
X38050000Y-30050000D02*
X33500000Y-30050000D01*
X39640000Y-28850000D02*
X39750000Y-28960000D01*
X33500000Y-28850000D02*
X39640000Y-28850000D01*
X38520000Y-27650000D02*
X39750000Y-26420000D01*
X33500000Y-27650000D02*
X38520000Y-27650000D01*
X38380000Y-25250000D02*
X39750000Y-23880000D01*
X33500000Y-25250000D02*
X38380000Y-25250000D01*
M02*
