G04 #@! TF.GenerationSoftware,KiCad,Pcbnew,8.0.01-1-dev-1e03266dfe*
G04 #@! TF.CreationDate,2024-03-02T01:51:38-08:00*
G04 #@! TF.ProjectId,sfh7072_breakoutboard,73666837-3037-4325-9f62-7265616b6f75,rev?*
G04 #@! TF.SameCoordinates,Original*
G04 #@! TF.FileFunction,Copper,L2,Bot*
G04 #@! TF.FilePolarity,Positive*
%FSLAX46Y46*%
G04 Gerber Fmt 4.6, Leading zero omitted, Abs format (unit mm)*
G04 Created by KiCad (PCBNEW 8.0.01-1-dev-1e03266dfe) date 2024-03-02 01:51:38*
%MOMM*%
%LPD*%
G01*
G04 APERTURE LIST*
G04 #@! TA.AperFunction,ComponentPad*
%ADD10R,1.700000X1.700000*%
G04 #@! TD*
G04 #@! TA.AperFunction,ComponentPad*
%ADD11O,1.700000X1.700000*%
G04 #@! TD*
G04 #@! TA.AperFunction,ComponentPad*
%ADD12R,1.000000X1.000000*%
G04 #@! TD*
G04 #@! TA.AperFunction,ViaPad*
%ADD13C,0.800000*%
G04 #@! TD*
G04 #@! TA.AperFunction,Conductor*
%ADD14C,0.250000*%
G04 #@! TD*
G04 APERTURE END LIST*
D10*
X24000000Y-20250000D03*
D11*
X24000000Y-22790000D03*
X24000000Y-25330000D03*
X24000000Y-27870000D03*
X24000000Y-30410000D03*
X24000000Y-32950000D03*
D10*
X39750000Y-31500000D03*
D11*
X39750000Y-28960000D03*
X39750000Y-26420000D03*
X39750000Y-23880000D03*
D12*
X41500000Y-37750000D03*
X41500000Y-16750000D03*
X22750000Y-37750000D03*
X22500000Y-16750000D03*
D13*
X36750000Y-35750000D03*
X31750000Y-35750000D03*
X33500000Y-20500000D03*
X27000000Y-32500000D03*
X27000000Y-22750000D03*
X36750000Y-23000000D03*
X27000000Y-30000000D03*
X36750000Y-26250000D03*
D14*
X27000000Y-30000000D02*
X27000000Y-22750000D01*
X27000000Y-32500000D02*
X27000000Y-30000000D01*
X36750000Y-26250000D02*
X36750000Y-23000000D01*
G04 #@! TA.AperFunction,Conductor*
G36*
X44181621Y-14780502D02*
G01*
X44228114Y-14834158D01*
X44239500Y-14886500D01*
X44239500Y-39613500D01*
X44219498Y-39681621D01*
X44165842Y-39728114D01*
X44113500Y-39739500D01*
X19886500Y-39739500D01*
X19818379Y-39719498D01*
X19771886Y-39665842D01*
X19760500Y-39613500D01*
X19760500Y-38298649D01*
X21741500Y-38298649D01*
X21748009Y-38359196D01*
X21748011Y-38359204D01*
X21799110Y-38496202D01*
X21799112Y-38496207D01*
X21886738Y-38613261D01*
X22003792Y-38700887D01*
X22003794Y-38700888D01*
X22003796Y-38700889D01*
X22062875Y-38722924D01*
X22140795Y-38751988D01*
X22140803Y-38751990D01*
X22201350Y-38758499D01*
X22201355Y-38758499D01*
X22201362Y-38758500D01*
X22201368Y-38758500D01*
X23298632Y-38758500D01*
X23298638Y-38758500D01*
X23298645Y-38758499D01*
X23298649Y-38758499D01*
X23359196Y-38751990D01*
X23359199Y-38751989D01*
X23359201Y-38751989D01*
X23496204Y-38700889D01*
X23613261Y-38613261D01*
X23700889Y-38496204D01*
X23751989Y-38359201D01*
X23758499Y-38298649D01*
X40491500Y-38298649D01*
X40498009Y-38359196D01*
X40498011Y-38359204D01*
X40549110Y-38496202D01*
X40549112Y-38496207D01*
X40636738Y-38613261D01*
X40753792Y-38700887D01*
X40753794Y-38700888D01*
X40753796Y-38700889D01*
X40812875Y-38722924D01*
X40890795Y-38751988D01*
X40890803Y-38751990D01*
X40951350Y-38758499D01*
X40951355Y-38758499D01*
X40951362Y-38758500D01*
X40951368Y-38758500D01*
X42048632Y-38758500D01*
X42048638Y-38758500D01*
X42048645Y-38758499D01*
X42048649Y-38758499D01*
X42109196Y-38751990D01*
X42109199Y-38751989D01*
X42109201Y-38751989D01*
X42246204Y-38700889D01*
X42363261Y-38613261D01*
X42450889Y-38496204D01*
X42501989Y-38359201D01*
X42508500Y-38298638D01*
X42508500Y-37201362D01*
X42508499Y-37201350D01*
X42501990Y-37140803D01*
X42501988Y-37140795D01*
X42450889Y-37003797D01*
X42450887Y-37003792D01*
X42363261Y-36886738D01*
X42246207Y-36799112D01*
X42246202Y-36799110D01*
X42109204Y-36748011D01*
X42109196Y-36748009D01*
X42048649Y-36741500D01*
X42048638Y-36741500D01*
X40951362Y-36741500D01*
X40951350Y-36741500D01*
X40890803Y-36748009D01*
X40890795Y-36748011D01*
X40753797Y-36799110D01*
X40753792Y-36799112D01*
X40636738Y-36886738D01*
X40549112Y-37003792D01*
X40549110Y-37003797D01*
X40498011Y-37140795D01*
X40498009Y-37140803D01*
X40491500Y-37201350D01*
X40491500Y-38298649D01*
X23758499Y-38298649D01*
X23758500Y-38298638D01*
X23758500Y-37201362D01*
X23758499Y-37201350D01*
X23751990Y-37140803D01*
X23751988Y-37140795D01*
X23700889Y-37003797D01*
X23700887Y-37003792D01*
X23613261Y-36886738D01*
X23496207Y-36799112D01*
X23496202Y-36799110D01*
X23359204Y-36748011D01*
X23359196Y-36748009D01*
X23298649Y-36741500D01*
X23298638Y-36741500D01*
X22201362Y-36741500D01*
X22201350Y-36741500D01*
X22140803Y-36748009D01*
X22140795Y-36748011D01*
X22003797Y-36799110D01*
X22003792Y-36799112D01*
X21886738Y-36886738D01*
X21799112Y-37003792D01*
X21799110Y-37003797D01*
X21748011Y-37140795D01*
X21748009Y-37140803D01*
X21741500Y-37201350D01*
X21741500Y-38298649D01*
X19760500Y-38298649D01*
X19760500Y-32950000D01*
X22636844Y-32950000D01*
X22655437Y-33174375D01*
X22710702Y-33392612D01*
X22710703Y-33392613D01*
X22710704Y-33392616D01*
X22801140Y-33598791D01*
X22801141Y-33598793D01*
X22924275Y-33787265D01*
X22924279Y-33787270D01*
X23076762Y-33952908D01*
X23131331Y-33995381D01*
X23254424Y-34091189D01*
X23452426Y-34198342D01*
X23452427Y-34198342D01*
X23452428Y-34198343D01*
X23564227Y-34236723D01*
X23665365Y-34271444D01*
X23887431Y-34308500D01*
X23887435Y-34308500D01*
X24112565Y-34308500D01*
X24112569Y-34308500D01*
X24334635Y-34271444D01*
X24547574Y-34198342D01*
X24745576Y-34091189D01*
X24923240Y-33952906D01*
X25075722Y-33787268D01*
X25198860Y-33598791D01*
X25289296Y-33392616D01*
X25344564Y-33174368D01*
X25363156Y-32950000D01*
X25344564Y-32725632D01*
X25289296Y-32507384D01*
X25286057Y-32500000D01*
X26086496Y-32500000D01*
X26106457Y-32689927D01*
X26114039Y-32713261D01*
X26165473Y-32871556D01*
X26165476Y-32871561D01*
X26260958Y-33036941D01*
X26260965Y-33036951D01*
X26388744Y-33178864D01*
X26388747Y-33178866D01*
X26543248Y-33291118D01*
X26717712Y-33368794D01*
X26904513Y-33408500D01*
X27095487Y-33408500D01*
X27282288Y-33368794D01*
X27456752Y-33291118D01*
X27611253Y-33178866D01*
X27739040Y-33036944D01*
X27834527Y-32871556D01*
X27893542Y-32689928D01*
X27913504Y-32500000D01*
X27893542Y-32310072D01*
X27834527Y-32128444D01*
X27739040Y-31963056D01*
X27665863Y-31881784D01*
X27635146Y-31817776D01*
X27633500Y-31797474D01*
X27633500Y-30702524D01*
X27653502Y-30634403D01*
X27665858Y-30618220D01*
X27739040Y-30536944D01*
X27834527Y-30371556D01*
X27893542Y-30189928D01*
X27913504Y-30000000D01*
X27893542Y-29810072D01*
X27834527Y-29628444D01*
X27739040Y-29463056D01*
X27665863Y-29381784D01*
X27635146Y-29317776D01*
X27633500Y-29297474D01*
X27633500Y-28960000D01*
X38386844Y-28960000D01*
X38403554Y-29161658D01*
X38405437Y-29184375D01*
X38460702Y-29402612D01*
X38460703Y-29402613D01*
X38460704Y-29402616D01*
X38487215Y-29463056D01*
X38551141Y-29608793D01*
X38674275Y-29797265D01*
X38674280Y-29797270D01*
X38817475Y-29952820D01*
X38848896Y-30016485D01*
X38840909Y-30087031D01*
X38796051Y-30142060D01*
X38768807Y-30156213D01*
X38653797Y-30199110D01*
X38653792Y-30199112D01*
X38536738Y-30286738D01*
X38449112Y-30403792D01*
X38449110Y-30403797D01*
X38398011Y-30540795D01*
X38398009Y-30540803D01*
X38391500Y-30601350D01*
X38391500Y-32398649D01*
X38398009Y-32459196D01*
X38398011Y-32459204D01*
X38449110Y-32596202D01*
X38449112Y-32596207D01*
X38536738Y-32713261D01*
X38653792Y-32800887D01*
X38653794Y-32800888D01*
X38653796Y-32800889D01*
X38712875Y-32822924D01*
X38790795Y-32851988D01*
X38790803Y-32851990D01*
X38851350Y-32858499D01*
X38851355Y-32858499D01*
X38851362Y-32858500D01*
X38851368Y-32858500D01*
X40648632Y-32858500D01*
X40648638Y-32858500D01*
X40648645Y-32858499D01*
X40648649Y-32858499D01*
X40709196Y-32851990D01*
X40709199Y-32851989D01*
X40709201Y-32851989D01*
X40846204Y-32800889D01*
X40963261Y-32713261D01*
X41050889Y-32596204D01*
X41101989Y-32459201D01*
X41108500Y-32398638D01*
X41108500Y-30601362D01*
X41108499Y-30601350D01*
X41101990Y-30540803D01*
X41101988Y-30540795D01*
X41050889Y-30403797D01*
X41050887Y-30403792D01*
X40963261Y-30286738D01*
X40846207Y-30199112D01*
X40846203Y-30199110D01*
X40731192Y-30156213D01*
X40674356Y-30113667D01*
X40649546Y-30047146D01*
X40664638Y-29977772D01*
X40682525Y-29952820D01*
X40825714Y-29797277D01*
X40825724Y-29797265D01*
X40936019Y-29628445D01*
X40948860Y-29608791D01*
X41039296Y-29402616D01*
X41094564Y-29184368D01*
X41113156Y-28960000D01*
X41094564Y-28735632D01*
X41087381Y-28707268D01*
X41039297Y-28517387D01*
X41039296Y-28517386D01*
X41039296Y-28517384D01*
X40948860Y-28311209D01*
X40942140Y-28300924D01*
X40825724Y-28122734D01*
X40825720Y-28122729D01*
X40673237Y-27957091D01*
X40561343Y-27870000D01*
X40495576Y-27818811D01*
X40462319Y-27800813D01*
X40411929Y-27750802D01*
X40396576Y-27681485D01*
X40421136Y-27614872D01*
X40462320Y-27579186D01*
X40495576Y-27561189D01*
X40673240Y-27422906D01*
X40825722Y-27257268D01*
X40948860Y-27068791D01*
X41039296Y-26862616D01*
X41094564Y-26644368D01*
X41113156Y-26420000D01*
X41094564Y-26195632D01*
X41087381Y-26167268D01*
X41039297Y-25977387D01*
X41039296Y-25977386D01*
X41039296Y-25977384D01*
X40948860Y-25771209D01*
X40910867Y-25713056D01*
X40825724Y-25582734D01*
X40825720Y-25582729D01*
X40673237Y-25417091D01*
X40561343Y-25330000D01*
X40495576Y-25278811D01*
X40462319Y-25260813D01*
X40411929Y-25210802D01*
X40396576Y-25141485D01*
X40421136Y-25074872D01*
X40462320Y-25039186D01*
X40495576Y-25021189D01*
X40673240Y-24882906D01*
X40825722Y-24717268D01*
X40948860Y-24528791D01*
X41039296Y-24322616D01*
X41094564Y-24104368D01*
X41113156Y-23880000D01*
X41094564Y-23655632D01*
X41087381Y-23627268D01*
X41039297Y-23437387D01*
X41039296Y-23437386D01*
X41039296Y-23437384D01*
X40948860Y-23231209D01*
X40921889Y-23189927D01*
X40825724Y-23042734D01*
X40825720Y-23042729D01*
X40673237Y-22877091D01*
X40509951Y-22750000D01*
X40495576Y-22738811D01*
X40297574Y-22631658D01*
X40297572Y-22631657D01*
X40297571Y-22631656D01*
X40084639Y-22558557D01*
X40084630Y-22558555D01*
X40040476Y-22551187D01*
X39862569Y-22521500D01*
X39637431Y-22521500D01*
X39489211Y-22546233D01*
X39415369Y-22558555D01*
X39415360Y-22558557D01*
X39202428Y-22631656D01*
X39202426Y-22631658D01*
X39004426Y-22738810D01*
X39004424Y-22738811D01*
X38826762Y-22877091D01*
X38674279Y-23042729D01*
X38674275Y-23042734D01*
X38551141Y-23231206D01*
X38460703Y-23437386D01*
X38460702Y-23437387D01*
X38405437Y-23655624D01*
X38405436Y-23655630D01*
X38405436Y-23655632D01*
X38386844Y-23880000D01*
X38403554Y-24081658D01*
X38405437Y-24104375D01*
X38460702Y-24322612D01*
X38460703Y-24322613D01*
X38460704Y-24322616D01*
X38535322Y-24492729D01*
X38551141Y-24528793D01*
X38674275Y-24717265D01*
X38674279Y-24717270D01*
X38826762Y-24882908D01*
X38832517Y-24887387D01*
X39004424Y-25021189D01*
X39037680Y-25039186D01*
X39088071Y-25089200D01*
X39103423Y-25158516D01*
X39078862Y-25225129D01*
X39037680Y-25260813D01*
X39004426Y-25278810D01*
X39004424Y-25278811D01*
X38826762Y-25417091D01*
X38674279Y-25582729D01*
X38674275Y-25582734D01*
X38551141Y-25771206D01*
X38460703Y-25977386D01*
X38460702Y-25977387D01*
X38405437Y-26195624D01*
X38405436Y-26195630D01*
X38405436Y-26195632D01*
X38386844Y-26420000D01*
X38403554Y-26621658D01*
X38405437Y-26644375D01*
X38460702Y-26862612D01*
X38460703Y-26862613D01*
X38460704Y-26862616D01*
X38489763Y-26928864D01*
X38551141Y-27068793D01*
X38674275Y-27257265D01*
X38674279Y-27257270D01*
X38826762Y-27422908D01*
X38832517Y-27427387D01*
X39004424Y-27561189D01*
X39037680Y-27579186D01*
X39088071Y-27629200D01*
X39103423Y-27698516D01*
X39078862Y-27765129D01*
X39037680Y-27800813D01*
X39004426Y-27818810D01*
X39004424Y-27818811D01*
X38826762Y-27957091D01*
X38674279Y-28122729D01*
X38674275Y-28122734D01*
X38551141Y-28311206D01*
X38460703Y-28517386D01*
X38460702Y-28517387D01*
X38405437Y-28735624D01*
X38405436Y-28735630D01*
X38405436Y-28735632D01*
X38386844Y-28960000D01*
X27633500Y-28960000D01*
X27633500Y-26250000D01*
X35836496Y-26250000D01*
X35856457Y-26439927D01*
X35866615Y-26471188D01*
X35915473Y-26621556D01*
X35915476Y-26621561D01*
X36010958Y-26786941D01*
X36010965Y-26786951D01*
X36138744Y-26928864D01*
X36138747Y-26928866D01*
X36293248Y-27041118D01*
X36467712Y-27118794D01*
X36654513Y-27158500D01*
X36845487Y-27158500D01*
X37032288Y-27118794D01*
X37206752Y-27041118D01*
X37361253Y-26928866D01*
X37416873Y-26867094D01*
X37489034Y-26786951D01*
X37489035Y-26786949D01*
X37489040Y-26786944D01*
X37584527Y-26621556D01*
X37643542Y-26439928D01*
X37663504Y-26250000D01*
X37643542Y-26060072D01*
X37584527Y-25878444D01*
X37489040Y-25713056D01*
X37415863Y-25631784D01*
X37385146Y-25567776D01*
X37383500Y-25547474D01*
X37383500Y-23702524D01*
X37403502Y-23634403D01*
X37415858Y-23618220D01*
X37489040Y-23536944D01*
X37584527Y-23371556D01*
X37643542Y-23189928D01*
X37663504Y-23000000D01*
X37643542Y-22810072D01*
X37584527Y-22628444D01*
X37489040Y-22463056D01*
X37489038Y-22463054D01*
X37489034Y-22463048D01*
X37361255Y-22321135D01*
X37206752Y-22208882D01*
X37032288Y-22131206D01*
X36845487Y-22091500D01*
X36654513Y-22091500D01*
X36467711Y-22131206D01*
X36293247Y-22208882D01*
X36138744Y-22321135D01*
X36010965Y-22463048D01*
X36010958Y-22463058D01*
X35915476Y-22628438D01*
X35915473Y-22628444D01*
X35914429Y-22631658D01*
X35856457Y-22810072D01*
X35836496Y-23000000D01*
X35856457Y-23189927D01*
X35869870Y-23231206D01*
X35915473Y-23371556D01*
X36010960Y-23536944D01*
X36084137Y-23618215D01*
X36114853Y-23682220D01*
X36116500Y-23702524D01*
X36116500Y-25547474D01*
X36096498Y-25615595D01*
X36084137Y-25631784D01*
X36010957Y-25713059D01*
X35915476Y-25878438D01*
X35915473Y-25878445D01*
X35856457Y-26060072D01*
X35836496Y-26250000D01*
X27633500Y-26250000D01*
X27633500Y-23452524D01*
X27653502Y-23384403D01*
X27665858Y-23368220D01*
X27739040Y-23286944D01*
X27834527Y-23121556D01*
X27893542Y-22939928D01*
X27913504Y-22750000D01*
X27893542Y-22560072D01*
X27834527Y-22378444D01*
X27739040Y-22213056D01*
X27739038Y-22213054D01*
X27739034Y-22213048D01*
X27611255Y-22071135D01*
X27456752Y-21958882D01*
X27282288Y-21881206D01*
X27095487Y-21841500D01*
X26904513Y-21841500D01*
X26717711Y-21881206D01*
X26543247Y-21958882D01*
X26388744Y-22071135D01*
X26260965Y-22213048D01*
X26260958Y-22213058D01*
X26165476Y-22378438D01*
X26165473Y-22378445D01*
X26106457Y-22560072D01*
X26086496Y-22750000D01*
X26106457Y-22939927D01*
X26130645Y-23014368D01*
X26165473Y-23121556D01*
X26165476Y-23121561D01*
X26228779Y-23231206D01*
X26260960Y-23286944D01*
X26334137Y-23368215D01*
X26364853Y-23432220D01*
X26366500Y-23452524D01*
X26366500Y-29297474D01*
X26346498Y-29365595D01*
X26334137Y-29381784D01*
X26260957Y-29463059D01*
X26165476Y-29628438D01*
X26165473Y-29628445D01*
X26106457Y-29810072D01*
X26086496Y-30000000D01*
X26106457Y-30189927D01*
X26136526Y-30282470D01*
X26165473Y-30371556D01*
X26260960Y-30536944D01*
X26334137Y-30618215D01*
X26364853Y-30682220D01*
X26366500Y-30702524D01*
X26366500Y-31797474D01*
X26346498Y-31865595D01*
X26334137Y-31881784D01*
X26260957Y-31963059D01*
X26165476Y-32128438D01*
X26165473Y-32128445D01*
X26106457Y-32310072D01*
X26086496Y-32500000D01*
X25286057Y-32500000D01*
X25198860Y-32301209D01*
X25085988Y-32128445D01*
X25075724Y-32112734D01*
X25075720Y-32112729D01*
X24923237Y-31947091D01*
X24818531Y-31865595D01*
X24745576Y-31808811D01*
X24712319Y-31790813D01*
X24661929Y-31740802D01*
X24646576Y-31671485D01*
X24671136Y-31604872D01*
X24712320Y-31569186D01*
X24745576Y-31551189D01*
X24923240Y-31412906D01*
X25075722Y-31247268D01*
X25198860Y-31058791D01*
X25289296Y-30852616D01*
X25344564Y-30634368D01*
X25363156Y-30410000D01*
X25344564Y-30185632D01*
X25289296Y-29967384D01*
X25198860Y-29761209D01*
X25192140Y-29750924D01*
X25075724Y-29572734D01*
X25075720Y-29572729D01*
X24923237Y-29407091D01*
X24841382Y-29343381D01*
X24745576Y-29268811D01*
X24712319Y-29250813D01*
X24661929Y-29200802D01*
X24646576Y-29131485D01*
X24671136Y-29064872D01*
X24712320Y-29029186D01*
X24745576Y-29011189D01*
X24923240Y-28872906D01*
X25075722Y-28707268D01*
X25198860Y-28518791D01*
X25289296Y-28312616D01*
X25344564Y-28094368D01*
X25363156Y-27870000D01*
X25344564Y-27645632D01*
X25340403Y-27629200D01*
X25289297Y-27427387D01*
X25289296Y-27427386D01*
X25289296Y-27427384D01*
X25198860Y-27221209D01*
X25131949Y-27118794D01*
X25075724Y-27032734D01*
X25075720Y-27032729D01*
X24923237Y-26867091D01*
X24820264Y-26786944D01*
X24745576Y-26728811D01*
X24712319Y-26710813D01*
X24661929Y-26660802D01*
X24646576Y-26591485D01*
X24671136Y-26524872D01*
X24712320Y-26489186D01*
X24745576Y-26471189D01*
X24923240Y-26332906D01*
X25075722Y-26167268D01*
X25198860Y-25978791D01*
X25289296Y-25772616D01*
X25344564Y-25554368D01*
X25363156Y-25330000D01*
X25344564Y-25105632D01*
X25340403Y-25089200D01*
X25289297Y-24887387D01*
X25289296Y-24887386D01*
X25289296Y-24887384D01*
X25198860Y-24681209D01*
X25099282Y-24528793D01*
X25075724Y-24492734D01*
X25075720Y-24492729D01*
X24923237Y-24327091D01*
X24841382Y-24263381D01*
X24745576Y-24188811D01*
X24712319Y-24170813D01*
X24661929Y-24120802D01*
X24646576Y-24051485D01*
X24671136Y-23984872D01*
X24712320Y-23949186D01*
X24745576Y-23931189D01*
X24923240Y-23792906D01*
X25075722Y-23627268D01*
X25198860Y-23438791D01*
X25289296Y-23232616D01*
X25344564Y-23014368D01*
X25363156Y-22790000D01*
X25344564Y-22565632D01*
X25297162Y-22378445D01*
X25289297Y-22347387D01*
X25289296Y-22347386D01*
X25289296Y-22347384D01*
X25198860Y-22141209D01*
X25166384Y-22091500D01*
X25075724Y-21952734D01*
X25075714Y-21952722D01*
X24932159Y-21796782D01*
X24900737Y-21733117D01*
X24908723Y-21662571D01*
X24953582Y-21607542D01*
X24980827Y-21593388D01*
X25095965Y-21550444D01*
X25212904Y-21462904D01*
X25300444Y-21345965D01*
X25300444Y-21345964D01*
X25351494Y-21209093D01*
X25357999Y-21148597D01*
X25358000Y-21148585D01*
X25358000Y-20504000D01*
X24430703Y-20504000D01*
X24465925Y-20442993D01*
X24500000Y-20315826D01*
X24500000Y-20184174D01*
X24465925Y-20057007D01*
X24430703Y-19996000D01*
X25358000Y-19996000D01*
X25358000Y-19351414D01*
X25357999Y-19351402D01*
X25351494Y-19290906D01*
X25300444Y-19154035D01*
X25300444Y-19154034D01*
X25212904Y-19037095D01*
X25095965Y-18949555D01*
X24959093Y-18898505D01*
X24898597Y-18892000D01*
X24254000Y-18892000D01*
X24254000Y-19819297D01*
X24192993Y-19784075D01*
X24065826Y-19750000D01*
X23934174Y-19750000D01*
X23807007Y-19784075D01*
X23746000Y-19819297D01*
X23746000Y-18892000D01*
X23101402Y-18892000D01*
X23040906Y-18898505D01*
X22904035Y-18949555D01*
X22904034Y-18949555D01*
X22787095Y-19037095D01*
X22699555Y-19154034D01*
X22699555Y-19154035D01*
X22648505Y-19290906D01*
X22642000Y-19351402D01*
X22642000Y-19996000D01*
X23569297Y-19996000D01*
X23534075Y-20057007D01*
X23500000Y-20184174D01*
X23500000Y-20315826D01*
X23534075Y-20442993D01*
X23569297Y-20504000D01*
X22642000Y-20504000D01*
X22642000Y-21148597D01*
X22648505Y-21209093D01*
X22699555Y-21345964D01*
X22699555Y-21345965D01*
X22787095Y-21462904D01*
X22904034Y-21550444D01*
X23019172Y-21593388D01*
X23076008Y-21635935D01*
X23100819Y-21702455D01*
X23085728Y-21771829D01*
X23067841Y-21796782D01*
X22924280Y-21952729D01*
X22924275Y-21952734D01*
X22801141Y-22141206D01*
X22710703Y-22347386D01*
X22710702Y-22347387D01*
X22655437Y-22565624D01*
X22655436Y-22565630D01*
X22655436Y-22565632D01*
X22636844Y-22790000D01*
X22654245Y-23000000D01*
X22655437Y-23014375D01*
X22710702Y-23232612D01*
X22710703Y-23232613D01*
X22710704Y-23232616D01*
X22785949Y-23404158D01*
X22801141Y-23438793D01*
X22924275Y-23627265D01*
X22924279Y-23627270D01*
X23076762Y-23792908D01*
X23131331Y-23835381D01*
X23254424Y-23931189D01*
X23287680Y-23949186D01*
X23338071Y-23999200D01*
X23353423Y-24068516D01*
X23328862Y-24135129D01*
X23287680Y-24170813D01*
X23254426Y-24188810D01*
X23254424Y-24188811D01*
X23076762Y-24327091D01*
X22924279Y-24492729D01*
X22924275Y-24492734D01*
X22801141Y-24681206D01*
X22710703Y-24887386D01*
X22710702Y-24887387D01*
X22655437Y-25105624D01*
X22655436Y-25105630D01*
X22655436Y-25105632D01*
X22651054Y-25158516D01*
X22636844Y-25330000D01*
X22655437Y-25554375D01*
X22710702Y-25772612D01*
X22710703Y-25772613D01*
X22710704Y-25772616D01*
X22757124Y-25878444D01*
X22801141Y-25978793D01*
X22924275Y-26167265D01*
X22924279Y-26167270D01*
X23076762Y-26332908D01*
X23131331Y-26375381D01*
X23254424Y-26471189D01*
X23287680Y-26489186D01*
X23338071Y-26539200D01*
X23353423Y-26608516D01*
X23328862Y-26675129D01*
X23287680Y-26710813D01*
X23254426Y-26728810D01*
X23254424Y-26728811D01*
X23076762Y-26867091D01*
X22924279Y-27032729D01*
X22924275Y-27032734D01*
X22801141Y-27221206D01*
X22710703Y-27427386D01*
X22710702Y-27427387D01*
X22655437Y-27645624D01*
X22655436Y-27645630D01*
X22655436Y-27645632D01*
X22651054Y-27698516D01*
X22636844Y-27870000D01*
X22655437Y-28094375D01*
X22710702Y-28312612D01*
X22710703Y-28312613D01*
X22801141Y-28518793D01*
X22924275Y-28707265D01*
X22924279Y-28707270D01*
X23076762Y-28872908D01*
X23131331Y-28915381D01*
X23254424Y-29011189D01*
X23287680Y-29029186D01*
X23338071Y-29079200D01*
X23353423Y-29148516D01*
X23328862Y-29215129D01*
X23287680Y-29250813D01*
X23254426Y-29268810D01*
X23254424Y-29268811D01*
X23076762Y-29407091D01*
X22924279Y-29572729D01*
X22924275Y-29572734D01*
X22801141Y-29761206D01*
X22710703Y-29967386D01*
X22710702Y-29967387D01*
X22655437Y-30185624D01*
X22655436Y-30185630D01*
X22655436Y-30185632D01*
X22636844Y-30410000D01*
X22654097Y-30618213D01*
X22655437Y-30634375D01*
X22710702Y-30852612D01*
X22710703Y-30852613D01*
X22801141Y-31058793D01*
X22924275Y-31247265D01*
X22924279Y-31247270D01*
X23076762Y-31412908D01*
X23131331Y-31455381D01*
X23254424Y-31551189D01*
X23287680Y-31569186D01*
X23338071Y-31619200D01*
X23353423Y-31688516D01*
X23328862Y-31755129D01*
X23287680Y-31790813D01*
X23254426Y-31808810D01*
X23254424Y-31808811D01*
X23076762Y-31947091D01*
X22924279Y-32112729D01*
X22924275Y-32112734D01*
X22801141Y-32301206D01*
X22710703Y-32507386D01*
X22710702Y-32507387D01*
X22655437Y-32725624D01*
X22655436Y-32725630D01*
X22655436Y-32725632D01*
X22644426Y-32858499D01*
X22636844Y-32950000D01*
X19760500Y-32950000D01*
X19760500Y-17298649D01*
X21491500Y-17298649D01*
X21498009Y-17359196D01*
X21498011Y-17359204D01*
X21549110Y-17496202D01*
X21549112Y-17496207D01*
X21636738Y-17613261D01*
X21753792Y-17700887D01*
X21753794Y-17700888D01*
X21753796Y-17700889D01*
X21812875Y-17722924D01*
X21890795Y-17751988D01*
X21890803Y-17751990D01*
X21951350Y-17758499D01*
X21951355Y-17758499D01*
X21951362Y-17758500D01*
X21951368Y-17758500D01*
X23048632Y-17758500D01*
X23048638Y-17758500D01*
X23048645Y-17758499D01*
X23048649Y-17758499D01*
X23109196Y-17751990D01*
X23109199Y-17751989D01*
X23109201Y-17751989D01*
X23246204Y-17700889D01*
X23363261Y-17613261D01*
X23450889Y-17496204D01*
X23501989Y-17359201D01*
X23508499Y-17298649D01*
X40491500Y-17298649D01*
X40498009Y-17359196D01*
X40498011Y-17359204D01*
X40549110Y-17496202D01*
X40549112Y-17496207D01*
X40636738Y-17613261D01*
X40753792Y-17700887D01*
X40753794Y-17700888D01*
X40753796Y-17700889D01*
X40812875Y-17722924D01*
X40890795Y-17751988D01*
X40890803Y-17751990D01*
X40951350Y-17758499D01*
X40951355Y-17758499D01*
X40951362Y-17758500D01*
X40951368Y-17758500D01*
X42048632Y-17758500D01*
X42048638Y-17758500D01*
X42048645Y-17758499D01*
X42048649Y-17758499D01*
X42109196Y-17751990D01*
X42109199Y-17751989D01*
X42109201Y-17751989D01*
X42246204Y-17700889D01*
X42363261Y-17613261D01*
X42450889Y-17496204D01*
X42501989Y-17359201D01*
X42508500Y-17298638D01*
X42508500Y-16201362D01*
X42508499Y-16201350D01*
X42501990Y-16140803D01*
X42501988Y-16140795D01*
X42450889Y-16003797D01*
X42450887Y-16003792D01*
X42363261Y-15886738D01*
X42246207Y-15799112D01*
X42246202Y-15799110D01*
X42109204Y-15748011D01*
X42109196Y-15748009D01*
X42048649Y-15741500D01*
X42048638Y-15741500D01*
X40951362Y-15741500D01*
X40951350Y-15741500D01*
X40890803Y-15748009D01*
X40890795Y-15748011D01*
X40753797Y-15799110D01*
X40753792Y-15799112D01*
X40636738Y-15886738D01*
X40549112Y-16003792D01*
X40549110Y-16003797D01*
X40498011Y-16140795D01*
X40498009Y-16140803D01*
X40491500Y-16201350D01*
X40491500Y-17298649D01*
X23508499Y-17298649D01*
X23508500Y-17298638D01*
X23508500Y-16201362D01*
X23508499Y-16201350D01*
X23501990Y-16140803D01*
X23501988Y-16140795D01*
X23450889Y-16003797D01*
X23450887Y-16003792D01*
X23363261Y-15886738D01*
X23246207Y-15799112D01*
X23246202Y-15799110D01*
X23109204Y-15748011D01*
X23109196Y-15748009D01*
X23048649Y-15741500D01*
X23048638Y-15741500D01*
X21951362Y-15741500D01*
X21951350Y-15741500D01*
X21890803Y-15748009D01*
X21890795Y-15748011D01*
X21753797Y-15799110D01*
X21753792Y-15799112D01*
X21636738Y-15886738D01*
X21549112Y-16003792D01*
X21549110Y-16003797D01*
X21498011Y-16140795D01*
X21498009Y-16140803D01*
X21491500Y-16201350D01*
X21491500Y-17298649D01*
X19760500Y-17298649D01*
X19760500Y-14886500D01*
X19780502Y-14818379D01*
X19834158Y-14771886D01*
X19886500Y-14760500D01*
X44113500Y-14760500D01*
X44181621Y-14780502D01*
G37*
G04 #@! TD.AperFunction*
M02*
