G04 #@! TF.GenerationSoftware,KiCad,Pcbnew,8.0.02-1-dev-92ffd898f5*
G04 #@! TF.CreationDate,2024-03-29T15:55:27-07:00*
G04 #@! TF.ProjectId,sfh7072_breakoutboard,73666837-3037-4325-9f62-7265616b6f75,rev?*
G04 #@! TF.SameCoordinates,Original*
G04 #@! TF.FileFunction,Legend,Top*
G04 #@! TF.FilePolarity,Positive*
%FSLAX46Y46*%
G04 Gerber Fmt 4.6, Leading zero omitted, Abs format (unit mm)*
G04 Created by KiCad (PCBNEW 8.0.02-1-dev-92ffd898f5) date 2024-03-29 15:55:27*
%MOMM*%
%LPD*%
G01*
G04 APERTURE LIST*
%ADD10C,0.150000*%
%ADD11C,0.100000*%
%ADD12C,0.120000*%
%ADD13C,0.200000*%
G04 APERTURE END LIST*
D10*
X36958207Y-38382390D02*
X36882017Y-38344295D01*
X36882017Y-38344295D02*
X36767731Y-38344295D01*
X36767731Y-38344295D02*
X36653445Y-38382390D01*
X36653445Y-38382390D02*
X36577255Y-38458580D01*
X36577255Y-38458580D02*
X36539160Y-38534771D01*
X36539160Y-38534771D02*
X36501064Y-38687152D01*
X36501064Y-38687152D02*
X36501064Y-38801438D01*
X36501064Y-38801438D02*
X36539160Y-38953819D01*
X36539160Y-38953819D02*
X36577255Y-39030009D01*
X36577255Y-39030009D02*
X36653445Y-39106200D01*
X36653445Y-39106200D02*
X36767731Y-39144295D01*
X36767731Y-39144295D02*
X36843922Y-39144295D01*
X36843922Y-39144295D02*
X36958207Y-39106200D01*
X36958207Y-39106200D02*
X36996303Y-39068104D01*
X36996303Y-39068104D02*
X36996303Y-38801438D01*
X36996303Y-38801438D02*
X36843922Y-38801438D01*
X37339160Y-39144295D02*
X37339160Y-38344295D01*
X37339160Y-38344295D02*
X37796303Y-39144295D01*
X37796303Y-39144295D02*
X37796303Y-38344295D01*
X38177255Y-39144295D02*
X38177255Y-38344295D01*
X38177255Y-38344295D02*
X38367731Y-38344295D01*
X38367731Y-38344295D02*
X38482017Y-38382390D01*
X38482017Y-38382390D02*
X38558207Y-38458580D01*
X38558207Y-38458580D02*
X38596302Y-38534771D01*
X38596302Y-38534771D02*
X38634398Y-38687152D01*
X38634398Y-38687152D02*
X38634398Y-38801438D01*
X38634398Y-38801438D02*
X38596302Y-38953819D01*
X38596302Y-38953819D02*
X38558207Y-39030009D01*
X38558207Y-39030009D02*
X38482017Y-39106200D01*
X38482017Y-39106200D02*
X38367731Y-39144295D01*
X38367731Y-39144295D02*
X38177255Y-39144295D01*
D11*
X42900057Y-22272931D02*
X42928628Y-22215789D01*
X42928628Y-22215789D02*
X42928628Y-22130074D01*
X42928628Y-22130074D02*
X42900057Y-22044360D01*
X42900057Y-22044360D02*
X42842914Y-21987217D01*
X42842914Y-21987217D02*
X42785771Y-21958646D01*
X42785771Y-21958646D02*
X42671485Y-21930074D01*
X42671485Y-21930074D02*
X42585771Y-21930074D01*
X42585771Y-21930074D02*
X42471485Y-21958646D01*
X42471485Y-21958646D02*
X42414342Y-21987217D01*
X42414342Y-21987217D02*
X42357200Y-22044360D01*
X42357200Y-22044360D02*
X42328628Y-22130074D01*
X42328628Y-22130074D02*
X42328628Y-22187217D01*
X42328628Y-22187217D02*
X42357200Y-22272931D01*
X42357200Y-22272931D02*
X42385771Y-22301503D01*
X42385771Y-22301503D02*
X42585771Y-22301503D01*
X42585771Y-22301503D02*
X42585771Y-22187217D01*
X42328628Y-22844360D02*
X42328628Y-22558646D01*
X42328628Y-22558646D02*
X42928628Y-22558646D01*
X42871485Y-23015788D02*
X42900057Y-23044360D01*
X42900057Y-23044360D02*
X42928628Y-23101503D01*
X42928628Y-23101503D02*
X42928628Y-23244360D01*
X42928628Y-23244360D02*
X42900057Y-23301503D01*
X42900057Y-23301503D02*
X42871485Y-23330074D01*
X42871485Y-23330074D02*
X42814342Y-23358645D01*
X42814342Y-23358645D02*
X42757200Y-23358645D01*
X42757200Y-23358645D02*
X42671485Y-23330074D01*
X42671485Y-23330074D02*
X42328628Y-22987217D01*
X42328628Y-22987217D02*
X42328628Y-23358645D01*
X42500057Y-23587217D02*
X42500057Y-23872932D01*
X42328628Y-23530074D02*
X42928628Y-23730074D01*
X42928628Y-23730074D02*
X42328628Y-23930074D01*
X42328628Y-33051503D02*
X42614342Y-32851503D01*
X42328628Y-32708646D02*
X42928628Y-32708646D01*
X42928628Y-32708646D02*
X42928628Y-32937217D01*
X42928628Y-32937217D02*
X42900057Y-32994360D01*
X42900057Y-32994360D02*
X42871485Y-33022931D01*
X42871485Y-33022931D02*
X42814342Y-33051503D01*
X42814342Y-33051503D02*
X42728628Y-33051503D01*
X42728628Y-33051503D02*
X42671485Y-33022931D01*
X42671485Y-33022931D02*
X42642914Y-32994360D01*
X42642914Y-32994360D02*
X42614342Y-32937217D01*
X42614342Y-32937217D02*
X42614342Y-32708646D01*
X42328628Y-33594360D02*
X42328628Y-33308646D01*
X42328628Y-33308646D02*
X42928628Y-33308646D01*
X42500057Y-33765788D02*
X42500057Y-34051503D01*
X42328628Y-33708645D02*
X42928628Y-33908645D01*
X42928628Y-33908645D02*
X42328628Y-34108645D01*
X20849942Y-30977068D02*
X20821371Y-31034211D01*
X20821371Y-31034211D02*
X20821371Y-31119925D01*
X20821371Y-31119925D02*
X20849942Y-31205639D01*
X20849942Y-31205639D02*
X20907085Y-31262782D01*
X20907085Y-31262782D02*
X20964228Y-31291353D01*
X20964228Y-31291353D02*
X21078514Y-31319925D01*
X21078514Y-31319925D02*
X21164228Y-31319925D01*
X21164228Y-31319925D02*
X21278514Y-31291353D01*
X21278514Y-31291353D02*
X21335657Y-31262782D01*
X21335657Y-31262782D02*
X21392800Y-31205639D01*
X21392800Y-31205639D02*
X21421371Y-31119925D01*
X21421371Y-31119925D02*
X21421371Y-31062782D01*
X21421371Y-31062782D02*
X21392800Y-30977068D01*
X21392800Y-30977068D02*
X21364228Y-30948496D01*
X21364228Y-30948496D02*
X21164228Y-30948496D01*
X21164228Y-30948496D02*
X21164228Y-31062782D01*
X21421371Y-30405639D02*
X21421371Y-30691353D01*
X21421371Y-30691353D02*
X20821371Y-30691353D01*
X21421371Y-29891354D02*
X21421371Y-30234211D01*
X21421371Y-30062782D02*
X20821371Y-30062782D01*
X20821371Y-30062782D02*
X20907085Y-30119925D01*
X20907085Y-30119925D02*
X20964228Y-30177068D01*
X20964228Y-30177068D02*
X20992800Y-30234211D01*
X21249942Y-29662782D02*
X21249942Y-29377068D01*
X21421371Y-29719925D02*
X20821371Y-29519925D01*
X20821371Y-29519925D02*
X21421371Y-29319925D01*
X21421371Y-28291353D02*
X20821371Y-28291353D01*
X21421371Y-28005639D02*
X21021371Y-28005639D01*
X21135657Y-28005639D02*
X21078514Y-27977068D01*
X21078514Y-27977068D02*
X21049942Y-27948497D01*
X21049942Y-27948497D02*
X21021371Y-27891354D01*
X21021371Y-27891354D02*
X21021371Y-27834211D01*
X21421371Y-27348496D02*
X21421371Y-27634210D01*
X21421371Y-27634210D02*
X20821371Y-27634210D01*
X21249942Y-27177068D02*
X21249942Y-26891354D01*
X21421371Y-27234211D02*
X20821371Y-27034211D01*
X20821371Y-27034211D02*
X21421371Y-26834211D01*
X42900057Y-19522931D02*
X42928628Y-19465789D01*
X42928628Y-19465789D02*
X42928628Y-19380074D01*
X42928628Y-19380074D02*
X42900057Y-19294360D01*
X42900057Y-19294360D02*
X42842914Y-19237217D01*
X42842914Y-19237217D02*
X42785771Y-19208646D01*
X42785771Y-19208646D02*
X42671485Y-19180074D01*
X42671485Y-19180074D02*
X42585771Y-19180074D01*
X42585771Y-19180074D02*
X42471485Y-19208646D01*
X42471485Y-19208646D02*
X42414342Y-19237217D01*
X42414342Y-19237217D02*
X42357200Y-19294360D01*
X42357200Y-19294360D02*
X42328628Y-19380074D01*
X42328628Y-19380074D02*
X42328628Y-19437217D01*
X42328628Y-19437217D02*
X42357200Y-19522931D01*
X42357200Y-19522931D02*
X42385771Y-19551503D01*
X42385771Y-19551503D02*
X42585771Y-19551503D01*
X42585771Y-19551503D02*
X42585771Y-19437217D01*
X42328628Y-20094360D02*
X42328628Y-19808646D01*
X42328628Y-19808646D02*
X42928628Y-19808646D01*
X42871485Y-20265788D02*
X42900057Y-20294360D01*
X42900057Y-20294360D02*
X42928628Y-20351503D01*
X42928628Y-20351503D02*
X42928628Y-20494360D01*
X42928628Y-20494360D02*
X42900057Y-20551503D01*
X42900057Y-20551503D02*
X42871485Y-20580074D01*
X42871485Y-20580074D02*
X42814342Y-20608645D01*
X42814342Y-20608645D02*
X42757200Y-20608645D01*
X42757200Y-20608645D02*
X42671485Y-20580074D01*
X42671485Y-20580074D02*
X42328628Y-20237217D01*
X42328628Y-20237217D02*
X42328628Y-20608645D01*
X42385771Y-21208646D02*
X42357200Y-21180074D01*
X42357200Y-21180074D02*
X42328628Y-21094360D01*
X42328628Y-21094360D02*
X42328628Y-21037217D01*
X42328628Y-21037217D02*
X42357200Y-20951503D01*
X42357200Y-20951503D02*
X42414342Y-20894360D01*
X42414342Y-20894360D02*
X42471485Y-20865789D01*
X42471485Y-20865789D02*
X42585771Y-20837217D01*
X42585771Y-20837217D02*
X42671485Y-20837217D01*
X42671485Y-20837217D02*
X42785771Y-20865789D01*
X42785771Y-20865789D02*
X42842914Y-20894360D01*
X42842914Y-20894360D02*
X42900057Y-20951503D01*
X42900057Y-20951503D02*
X42928628Y-21037217D01*
X42928628Y-21037217D02*
X42928628Y-21094360D01*
X42928628Y-21094360D02*
X42900057Y-21180074D01*
X42900057Y-21180074D02*
X42871485Y-21208646D01*
X21107085Y-23591353D02*
X21135657Y-23505639D01*
X21135657Y-23505639D02*
X21164228Y-23477068D01*
X21164228Y-23477068D02*
X21221371Y-23448496D01*
X21221371Y-23448496D02*
X21307085Y-23448496D01*
X21307085Y-23448496D02*
X21364228Y-23477068D01*
X21364228Y-23477068D02*
X21392800Y-23505639D01*
X21392800Y-23505639D02*
X21421371Y-23562782D01*
X21421371Y-23562782D02*
X21421371Y-23791353D01*
X21421371Y-23791353D02*
X20821371Y-23791353D01*
X20821371Y-23791353D02*
X20821371Y-23591353D01*
X20821371Y-23591353D02*
X20849942Y-23534211D01*
X20849942Y-23534211D02*
X20878514Y-23505639D01*
X20878514Y-23505639D02*
X20935657Y-23477068D01*
X20935657Y-23477068D02*
X20992800Y-23477068D01*
X20992800Y-23477068D02*
X21049942Y-23505639D01*
X21049942Y-23505639D02*
X21078514Y-23534211D01*
X21078514Y-23534211D02*
X21107085Y-23591353D01*
X21107085Y-23591353D02*
X21107085Y-23791353D01*
X21421371Y-23191353D02*
X20821371Y-23191353D01*
X20821371Y-23191353D02*
X20821371Y-22962782D01*
X20821371Y-22962782D02*
X20849942Y-22905639D01*
X20849942Y-22905639D02*
X20878514Y-22877068D01*
X20878514Y-22877068D02*
X20935657Y-22848496D01*
X20935657Y-22848496D02*
X21021371Y-22848496D01*
X21021371Y-22848496D02*
X21078514Y-22877068D01*
X21078514Y-22877068D02*
X21107085Y-22905639D01*
X21107085Y-22905639D02*
X21135657Y-22962782D01*
X21135657Y-22962782D02*
X21135657Y-23191353D01*
X21421371Y-22591353D02*
X20821371Y-22591353D01*
X20821371Y-22591353D02*
X20821371Y-22448496D01*
X20821371Y-22448496D02*
X20849942Y-22362782D01*
X20849942Y-22362782D02*
X20907085Y-22305639D01*
X20907085Y-22305639D02*
X20964228Y-22277068D01*
X20964228Y-22277068D02*
X21078514Y-22248496D01*
X21078514Y-22248496D02*
X21164228Y-22248496D01*
X21164228Y-22248496D02*
X21278514Y-22277068D01*
X21278514Y-22277068D02*
X21335657Y-22305639D01*
X21335657Y-22305639D02*
X21392800Y-22362782D01*
X21392800Y-22362782D02*
X21421371Y-22448496D01*
X21421371Y-22448496D02*
X21421371Y-22591353D01*
X21249942Y-22019925D02*
X21249942Y-21734211D01*
X21421371Y-22077068D02*
X20821371Y-21877068D01*
X20821371Y-21877068D02*
X21421371Y-21677068D01*
X20849942Y-33977068D02*
X20821371Y-34034211D01*
X20821371Y-34034211D02*
X20821371Y-34119925D01*
X20821371Y-34119925D02*
X20849942Y-34205639D01*
X20849942Y-34205639D02*
X20907085Y-34262782D01*
X20907085Y-34262782D02*
X20964228Y-34291353D01*
X20964228Y-34291353D02*
X21078514Y-34319925D01*
X21078514Y-34319925D02*
X21164228Y-34319925D01*
X21164228Y-34319925D02*
X21278514Y-34291353D01*
X21278514Y-34291353D02*
X21335657Y-34262782D01*
X21335657Y-34262782D02*
X21392800Y-34205639D01*
X21392800Y-34205639D02*
X21421371Y-34119925D01*
X21421371Y-34119925D02*
X21421371Y-34062782D01*
X21421371Y-34062782D02*
X21392800Y-33977068D01*
X21392800Y-33977068D02*
X21364228Y-33948496D01*
X21364228Y-33948496D02*
X21164228Y-33948496D01*
X21164228Y-33948496D02*
X21164228Y-34062782D01*
X21421371Y-33405639D02*
X21421371Y-33691353D01*
X21421371Y-33691353D02*
X20821371Y-33691353D01*
X21421371Y-32891354D02*
X21421371Y-33234211D01*
X21421371Y-33062782D02*
X20821371Y-33062782D01*
X20821371Y-33062782D02*
X20907085Y-33119925D01*
X20907085Y-33119925D02*
X20964228Y-33177068D01*
X20964228Y-33177068D02*
X20992800Y-33234211D01*
X21364228Y-32291353D02*
X21392800Y-32319925D01*
X21392800Y-32319925D02*
X21421371Y-32405639D01*
X21421371Y-32405639D02*
X21421371Y-32462782D01*
X21421371Y-32462782D02*
X21392800Y-32548496D01*
X21392800Y-32548496D02*
X21335657Y-32605639D01*
X21335657Y-32605639D02*
X21278514Y-32634210D01*
X21278514Y-32634210D02*
X21164228Y-32662782D01*
X21164228Y-32662782D02*
X21078514Y-32662782D01*
X21078514Y-32662782D02*
X20964228Y-32634210D01*
X20964228Y-32634210D02*
X20907085Y-32605639D01*
X20907085Y-32605639D02*
X20849942Y-32548496D01*
X20849942Y-32548496D02*
X20821371Y-32462782D01*
X20821371Y-32462782D02*
X20821371Y-32405639D01*
X20821371Y-32405639D02*
X20849942Y-32319925D01*
X20849942Y-32319925D02*
X20878514Y-32291353D01*
X42328628Y-27458646D02*
X42928628Y-27458646D01*
X42328628Y-27744360D02*
X42728628Y-27744360D01*
X42614342Y-27744360D02*
X42671485Y-27772931D01*
X42671485Y-27772931D02*
X42700057Y-27801503D01*
X42700057Y-27801503D02*
X42728628Y-27858645D01*
X42728628Y-27858645D02*
X42728628Y-27915788D01*
X42328628Y-28401503D02*
X42328628Y-28115789D01*
X42328628Y-28115789D02*
X42928628Y-28115789D01*
X42385771Y-28944360D02*
X42357200Y-28915788D01*
X42357200Y-28915788D02*
X42328628Y-28830074D01*
X42328628Y-28830074D02*
X42328628Y-28772931D01*
X42328628Y-28772931D02*
X42357200Y-28687217D01*
X42357200Y-28687217D02*
X42414342Y-28630074D01*
X42414342Y-28630074D02*
X42471485Y-28601503D01*
X42471485Y-28601503D02*
X42585771Y-28572931D01*
X42585771Y-28572931D02*
X42671485Y-28572931D01*
X42671485Y-28572931D02*
X42785771Y-28601503D01*
X42785771Y-28601503D02*
X42842914Y-28630074D01*
X42842914Y-28630074D02*
X42900057Y-28687217D01*
X42900057Y-28687217D02*
X42928628Y-28772931D01*
X42928628Y-28772931D02*
X42928628Y-28830074D01*
X42928628Y-28830074D02*
X42900057Y-28915788D01*
X42900057Y-28915788D02*
X42871485Y-28944360D01*
X21421371Y-26291353D02*
X20821371Y-26291353D01*
X21421371Y-26005639D02*
X20821371Y-26005639D01*
X20821371Y-26005639D02*
X20821371Y-25777068D01*
X20821371Y-25777068D02*
X20849942Y-25719925D01*
X20849942Y-25719925D02*
X20878514Y-25691354D01*
X20878514Y-25691354D02*
X20935657Y-25662782D01*
X20935657Y-25662782D02*
X21021371Y-25662782D01*
X21021371Y-25662782D02*
X21078514Y-25691354D01*
X21078514Y-25691354D02*
X21107085Y-25719925D01*
X21107085Y-25719925D02*
X21135657Y-25777068D01*
X21135657Y-25777068D02*
X21135657Y-26005639D01*
X21421371Y-25405639D02*
X20821371Y-25405639D01*
X20821371Y-25405639D02*
X20821371Y-25262782D01*
X20821371Y-25262782D02*
X20849942Y-25177068D01*
X20849942Y-25177068D02*
X20907085Y-25119925D01*
X20907085Y-25119925D02*
X20964228Y-25091354D01*
X20964228Y-25091354D02*
X21078514Y-25062782D01*
X21078514Y-25062782D02*
X21164228Y-25062782D01*
X21164228Y-25062782D02*
X21278514Y-25091354D01*
X21278514Y-25091354D02*
X21335657Y-25119925D01*
X21335657Y-25119925D02*
X21392800Y-25177068D01*
X21392800Y-25177068D02*
X21421371Y-25262782D01*
X21421371Y-25262782D02*
X21421371Y-25405639D01*
X21364228Y-24462782D02*
X21392800Y-24491354D01*
X21392800Y-24491354D02*
X21421371Y-24577068D01*
X21421371Y-24577068D02*
X21421371Y-24634211D01*
X21421371Y-24634211D02*
X21392800Y-24719925D01*
X21392800Y-24719925D02*
X21335657Y-24777068D01*
X21335657Y-24777068D02*
X21278514Y-24805639D01*
X21278514Y-24805639D02*
X21164228Y-24834211D01*
X21164228Y-24834211D02*
X21078514Y-24834211D01*
X21078514Y-24834211D02*
X20964228Y-24805639D01*
X20964228Y-24805639D02*
X20907085Y-24777068D01*
X20907085Y-24777068D02*
X20849942Y-24719925D01*
X20849942Y-24719925D02*
X20821371Y-24634211D01*
X20821371Y-24634211D02*
X20821371Y-24577068D01*
X20821371Y-24577068D02*
X20849942Y-24491354D01*
X20849942Y-24491354D02*
X20878514Y-24462782D01*
X42328628Y-30551503D02*
X42614342Y-30351503D01*
X42328628Y-30208646D02*
X42928628Y-30208646D01*
X42928628Y-30208646D02*
X42928628Y-30437217D01*
X42928628Y-30437217D02*
X42900057Y-30494360D01*
X42900057Y-30494360D02*
X42871485Y-30522931D01*
X42871485Y-30522931D02*
X42814342Y-30551503D01*
X42814342Y-30551503D02*
X42728628Y-30551503D01*
X42728628Y-30551503D02*
X42671485Y-30522931D01*
X42671485Y-30522931D02*
X42642914Y-30494360D01*
X42642914Y-30494360D02*
X42614342Y-30437217D01*
X42614342Y-30437217D02*
X42614342Y-30208646D01*
X42328628Y-31094360D02*
X42328628Y-30808646D01*
X42328628Y-30808646D02*
X42928628Y-30808646D01*
X42385771Y-31637217D02*
X42357200Y-31608645D01*
X42357200Y-31608645D02*
X42328628Y-31522931D01*
X42328628Y-31522931D02*
X42328628Y-31465788D01*
X42328628Y-31465788D02*
X42357200Y-31380074D01*
X42357200Y-31380074D02*
X42414342Y-31322931D01*
X42414342Y-31322931D02*
X42471485Y-31294360D01*
X42471485Y-31294360D02*
X42585771Y-31265788D01*
X42585771Y-31265788D02*
X42671485Y-31265788D01*
X42671485Y-31265788D02*
X42785771Y-31294360D01*
X42785771Y-31294360D02*
X42842914Y-31322931D01*
X42842914Y-31322931D02*
X42900057Y-31380074D01*
X42900057Y-31380074D02*
X42928628Y-31465788D01*
X42928628Y-31465788D02*
X42928628Y-31522931D01*
X42928628Y-31522931D02*
X42900057Y-31608645D01*
X42900057Y-31608645D02*
X42871485Y-31637217D01*
X42328628Y-24708646D02*
X42928628Y-24708646D01*
X42328628Y-24994360D02*
X42928628Y-24994360D01*
X42928628Y-24994360D02*
X42928628Y-25222931D01*
X42928628Y-25222931D02*
X42900057Y-25280074D01*
X42900057Y-25280074D02*
X42871485Y-25308645D01*
X42871485Y-25308645D02*
X42814342Y-25337217D01*
X42814342Y-25337217D02*
X42728628Y-25337217D01*
X42728628Y-25337217D02*
X42671485Y-25308645D01*
X42671485Y-25308645D02*
X42642914Y-25280074D01*
X42642914Y-25280074D02*
X42614342Y-25222931D01*
X42614342Y-25222931D02*
X42614342Y-24994360D01*
X42328628Y-25594360D02*
X42928628Y-25594360D01*
X42928628Y-25594360D02*
X42928628Y-25737217D01*
X42928628Y-25737217D02*
X42900057Y-25822931D01*
X42900057Y-25822931D02*
X42842914Y-25880074D01*
X42842914Y-25880074D02*
X42785771Y-25908645D01*
X42785771Y-25908645D02*
X42671485Y-25937217D01*
X42671485Y-25937217D02*
X42585771Y-25937217D01*
X42585771Y-25937217D02*
X42471485Y-25908645D01*
X42471485Y-25908645D02*
X42414342Y-25880074D01*
X42414342Y-25880074D02*
X42357200Y-25822931D01*
X42357200Y-25822931D02*
X42328628Y-25737217D01*
X42328628Y-25737217D02*
X42328628Y-25594360D01*
X42500057Y-26165788D02*
X42500057Y-26451503D01*
X42328628Y-26108645D02*
X42928628Y-26308645D01*
X42928628Y-26308645D02*
X42328628Y-26508645D01*
X21107085Y-20841353D02*
X21135657Y-20755639D01*
X21135657Y-20755639D02*
X21164228Y-20727068D01*
X21164228Y-20727068D02*
X21221371Y-20698496D01*
X21221371Y-20698496D02*
X21307085Y-20698496D01*
X21307085Y-20698496D02*
X21364228Y-20727068D01*
X21364228Y-20727068D02*
X21392800Y-20755639D01*
X21392800Y-20755639D02*
X21421371Y-20812782D01*
X21421371Y-20812782D02*
X21421371Y-21041353D01*
X21421371Y-21041353D02*
X20821371Y-21041353D01*
X20821371Y-21041353D02*
X20821371Y-20841353D01*
X20821371Y-20841353D02*
X20849942Y-20784211D01*
X20849942Y-20784211D02*
X20878514Y-20755639D01*
X20878514Y-20755639D02*
X20935657Y-20727068D01*
X20935657Y-20727068D02*
X20992800Y-20727068D01*
X20992800Y-20727068D02*
X21049942Y-20755639D01*
X21049942Y-20755639D02*
X21078514Y-20784211D01*
X21078514Y-20784211D02*
X21107085Y-20841353D01*
X21107085Y-20841353D02*
X21107085Y-21041353D01*
X21421371Y-20441353D02*
X20821371Y-20441353D01*
X20821371Y-20441353D02*
X20821371Y-20212782D01*
X20821371Y-20212782D02*
X20849942Y-20155639D01*
X20849942Y-20155639D02*
X20878514Y-20127068D01*
X20878514Y-20127068D02*
X20935657Y-20098496D01*
X20935657Y-20098496D02*
X21021371Y-20098496D01*
X21021371Y-20098496D02*
X21078514Y-20127068D01*
X21078514Y-20127068D02*
X21107085Y-20155639D01*
X21107085Y-20155639D02*
X21135657Y-20212782D01*
X21135657Y-20212782D02*
X21135657Y-20441353D01*
X21421371Y-19841353D02*
X20821371Y-19841353D01*
X20821371Y-19841353D02*
X20821371Y-19698496D01*
X20821371Y-19698496D02*
X20849942Y-19612782D01*
X20849942Y-19612782D02*
X20907085Y-19555639D01*
X20907085Y-19555639D02*
X20964228Y-19527068D01*
X20964228Y-19527068D02*
X21078514Y-19498496D01*
X21078514Y-19498496D02*
X21164228Y-19498496D01*
X21164228Y-19498496D02*
X21278514Y-19527068D01*
X21278514Y-19527068D02*
X21335657Y-19555639D01*
X21335657Y-19555639D02*
X21392800Y-19612782D01*
X21392800Y-19612782D02*
X21421371Y-19698496D01*
X21421371Y-19698496D02*
X21421371Y-19841353D01*
X21364228Y-18898496D02*
X21392800Y-18927068D01*
X21392800Y-18927068D02*
X21421371Y-19012782D01*
X21421371Y-19012782D02*
X21421371Y-19069925D01*
X21421371Y-19069925D02*
X21392800Y-19155639D01*
X21392800Y-19155639D02*
X21335657Y-19212782D01*
X21335657Y-19212782D02*
X21278514Y-19241353D01*
X21278514Y-19241353D02*
X21164228Y-19269925D01*
X21164228Y-19269925D02*
X21078514Y-19269925D01*
X21078514Y-19269925D02*
X20964228Y-19241353D01*
X20964228Y-19241353D02*
X20907085Y-19212782D01*
X20907085Y-19212782D02*
X20849942Y-19155639D01*
X20849942Y-19155639D02*
X20821371Y-19069925D01*
X20821371Y-19069925D02*
X20821371Y-19012782D01*
X20821371Y-19012782D02*
X20849942Y-18927068D01*
X20849942Y-18927068D02*
X20878514Y-18898496D01*
D10*
X27501064Y-17106200D02*
X27615350Y-17144295D01*
X27615350Y-17144295D02*
X27805826Y-17144295D01*
X27805826Y-17144295D02*
X27882017Y-17106200D01*
X27882017Y-17106200D02*
X27920112Y-17068104D01*
X27920112Y-17068104D02*
X27958207Y-16991914D01*
X27958207Y-16991914D02*
X27958207Y-16915723D01*
X27958207Y-16915723D02*
X27920112Y-16839533D01*
X27920112Y-16839533D02*
X27882017Y-16801438D01*
X27882017Y-16801438D02*
X27805826Y-16763342D01*
X27805826Y-16763342D02*
X27653445Y-16725247D01*
X27653445Y-16725247D02*
X27577255Y-16687152D01*
X27577255Y-16687152D02*
X27539160Y-16649057D01*
X27539160Y-16649057D02*
X27501064Y-16572866D01*
X27501064Y-16572866D02*
X27501064Y-16496676D01*
X27501064Y-16496676D02*
X27539160Y-16420485D01*
X27539160Y-16420485D02*
X27577255Y-16382390D01*
X27577255Y-16382390D02*
X27653445Y-16344295D01*
X27653445Y-16344295D02*
X27843922Y-16344295D01*
X27843922Y-16344295D02*
X27958207Y-16382390D01*
X28567731Y-16725247D02*
X28301065Y-16725247D01*
X28301065Y-17144295D02*
X28301065Y-16344295D01*
X28301065Y-16344295D02*
X28682017Y-16344295D01*
X28986779Y-17144295D02*
X28986779Y-16344295D01*
X28986779Y-16725247D02*
X29443922Y-16725247D01*
X29443922Y-17144295D02*
X29443922Y-16344295D01*
X29748683Y-16344295D02*
X30282017Y-16344295D01*
X30282017Y-16344295D02*
X29939159Y-17144295D01*
X30739160Y-16344295D02*
X30815350Y-16344295D01*
X30815350Y-16344295D02*
X30891541Y-16382390D01*
X30891541Y-16382390D02*
X30929636Y-16420485D01*
X30929636Y-16420485D02*
X30967731Y-16496676D01*
X30967731Y-16496676D02*
X31005826Y-16649057D01*
X31005826Y-16649057D02*
X31005826Y-16839533D01*
X31005826Y-16839533D02*
X30967731Y-16991914D01*
X30967731Y-16991914D02*
X30929636Y-17068104D01*
X30929636Y-17068104D02*
X30891541Y-17106200D01*
X30891541Y-17106200D02*
X30815350Y-17144295D01*
X30815350Y-17144295D02*
X30739160Y-17144295D01*
X30739160Y-17144295D02*
X30662969Y-17106200D01*
X30662969Y-17106200D02*
X30624874Y-17068104D01*
X30624874Y-17068104D02*
X30586779Y-16991914D01*
X30586779Y-16991914D02*
X30548683Y-16839533D01*
X30548683Y-16839533D02*
X30548683Y-16649057D01*
X30548683Y-16649057D02*
X30586779Y-16496676D01*
X30586779Y-16496676D02*
X30624874Y-16420485D01*
X30624874Y-16420485D02*
X30662969Y-16382390D01*
X30662969Y-16382390D02*
X30739160Y-16344295D01*
X31272493Y-16344295D02*
X31805827Y-16344295D01*
X31805827Y-16344295D02*
X31462969Y-17144295D01*
X32072493Y-16420485D02*
X32110589Y-16382390D01*
X32110589Y-16382390D02*
X32186779Y-16344295D01*
X32186779Y-16344295D02*
X32377255Y-16344295D01*
X32377255Y-16344295D02*
X32453446Y-16382390D01*
X32453446Y-16382390D02*
X32491541Y-16420485D01*
X32491541Y-16420485D02*
X32529636Y-16496676D01*
X32529636Y-16496676D02*
X32529636Y-16572866D01*
X32529636Y-16572866D02*
X32491541Y-16687152D01*
X32491541Y-16687152D02*
X32034398Y-17144295D01*
X32034398Y-17144295D02*
X32529636Y-17144295D01*
X32682018Y-17220485D02*
X33291541Y-17220485D01*
X33748684Y-16725247D02*
X33862970Y-16763342D01*
X33862970Y-16763342D02*
X33901065Y-16801438D01*
X33901065Y-16801438D02*
X33939161Y-16877628D01*
X33939161Y-16877628D02*
X33939161Y-16991914D01*
X33939161Y-16991914D02*
X33901065Y-17068104D01*
X33901065Y-17068104D02*
X33862970Y-17106200D01*
X33862970Y-17106200D02*
X33786780Y-17144295D01*
X33786780Y-17144295D02*
X33482018Y-17144295D01*
X33482018Y-17144295D02*
X33482018Y-16344295D01*
X33482018Y-16344295D02*
X33748684Y-16344295D01*
X33748684Y-16344295D02*
X33824875Y-16382390D01*
X33824875Y-16382390D02*
X33862970Y-16420485D01*
X33862970Y-16420485D02*
X33901065Y-16496676D01*
X33901065Y-16496676D02*
X33901065Y-16572866D01*
X33901065Y-16572866D02*
X33862970Y-16649057D01*
X33862970Y-16649057D02*
X33824875Y-16687152D01*
X33824875Y-16687152D02*
X33748684Y-16725247D01*
X33748684Y-16725247D02*
X33482018Y-16725247D01*
X34282018Y-17144295D02*
X34282018Y-16344295D01*
X34282018Y-16344295D02*
X34586780Y-16344295D01*
X34586780Y-16344295D02*
X34662970Y-16382390D01*
X34662970Y-16382390D02*
X34701065Y-16420485D01*
X34701065Y-16420485D02*
X34739161Y-16496676D01*
X34739161Y-16496676D02*
X34739161Y-16610961D01*
X34739161Y-16610961D02*
X34701065Y-16687152D01*
X34701065Y-16687152D02*
X34662970Y-16725247D01*
X34662970Y-16725247D02*
X34586780Y-16763342D01*
X34586780Y-16763342D02*
X34282018Y-16763342D01*
X34891542Y-17220485D02*
X35501065Y-17220485D01*
X35577256Y-16344295D02*
X35843923Y-17144295D01*
X35843923Y-17144295D02*
X36110589Y-16344295D01*
X36529637Y-16344295D02*
X36605827Y-16344295D01*
X36605827Y-16344295D02*
X36682018Y-16382390D01*
X36682018Y-16382390D02*
X36720113Y-16420485D01*
X36720113Y-16420485D02*
X36758208Y-16496676D01*
X36758208Y-16496676D02*
X36796303Y-16649057D01*
X36796303Y-16649057D02*
X36796303Y-16839533D01*
X36796303Y-16839533D02*
X36758208Y-16991914D01*
X36758208Y-16991914D02*
X36720113Y-17068104D01*
X36720113Y-17068104D02*
X36682018Y-17106200D01*
X36682018Y-17106200D02*
X36605827Y-17144295D01*
X36605827Y-17144295D02*
X36529637Y-17144295D01*
X36529637Y-17144295D02*
X36453446Y-17106200D01*
X36453446Y-17106200D02*
X36415351Y-17068104D01*
X36415351Y-17068104D02*
X36377256Y-16991914D01*
X36377256Y-16991914D02*
X36339160Y-16839533D01*
X36339160Y-16839533D02*
X36339160Y-16649057D01*
X36339160Y-16649057D02*
X36377256Y-16496676D01*
X36377256Y-16496676D02*
X36415351Y-16420485D01*
X36415351Y-16420485D02*
X36453446Y-16382390D01*
X36453446Y-16382390D02*
X36529637Y-16344295D01*
X37139161Y-17068104D02*
X37177256Y-17106200D01*
X37177256Y-17106200D02*
X37139161Y-17144295D01*
X37139161Y-17144295D02*
X37101065Y-17106200D01*
X37101065Y-17106200D02*
X37139161Y-17068104D01*
X37139161Y-17068104D02*
X37139161Y-17144295D01*
X37482017Y-16420485D02*
X37520113Y-16382390D01*
X37520113Y-16382390D02*
X37596303Y-16344295D01*
X37596303Y-16344295D02*
X37786779Y-16344295D01*
X37786779Y-16344295D02*
X37862970Y-16382390D01*
X37862970Y-16382390D02*
X37901065Y-16420485D01*
X37901065Y-16420485D02*
X37939160Y-16496676D01*
X37939160Y-16496676D02*
X37939160Y-16572866D01*
X37939160Y-16572866D02*
X37901065Y-16687152D01*
X37901065Y-16687152D02*
X37443922Y-17144295D01*
X37443922Y-17144295D02*
X37939160Y-17144295D01*
X36733333Y-34867295D02*
X36733333Y-35438723D01*
X36733333Y-35438723D02*
X36695238Y-35553009D01*
X36695238Y-35553009D02*
X36619047Y-35629200D01*
X36619047Y-35629200D02*
X36504762Y-35667295D01*
X36504762Y-35667295D02*
X36428571Y-35667295D01*
X37038095Y-34867295D02*
X37533333Y-34867295D01*
X37533333Y-34867295D02*
X37266667Y-35172057D01*
X37266667Y-35172057D02*
X37380952Y-35172057D01*
X37380952Y-35172057D02*
X37457143Y-35210152D01*
X37457143Y-35210152D02*
X37495238Y-35248247D01*
X37495238Y-35248247D02*
X37533333Y-35324438D01*
X37533333Y-35324438D02*
X37533333Y-35514914D01*
X37533333Y-35514914D02*
X37495238Y-35591104D01*
X37495238Y-35591104D02*
X37457143Y-35629200D01*
X37457143Y-35629200D02*
X37380952Y-35667295D01*
X37380952Y-35667295D02*
X37152381Y-35667295D01*
X37152381Y-35667295D02*
X37076190Y-35629200D01*
X37076190Y-35629200D02*
X37038095Y-35591104D01*
X32786104Y-36133332D02*
X32824200Y-36171428D01*
X32824200Y-36171428D02*
X32862295Y-36285713D01*
X32862295Y-36285713D02*
X32862295Y-36361904D01*
X32862295Y-36361904D02*
X32824200Y-36476190D01*
X32824200Y-36476190D02*
X32748009Y-36552380D01*
X32748009Y-36552380D02*
X32671819Y-36590475D01*
X32671819Y-36590475D02*
X32519438Y-36628571D01*
X32519438Y-36628571D02*
X32405152Y-36628571D01*
X32405152Y-36628571D02*
X32252771Y-36590475D01*
X32252771Y-36590475D02*
X32176580Y-36552380D01*
X32176580Y-36552380D02*
X32100390Y-36476190D01*
X32100390Y-36476190D02*
X32062295Y-36361904D01*
X32062295Y-36361904D02*
X32062295Y-36285713D01*
X32062295Y-36285713D02*
X32100390Y-36171428D01*
X32100390Y-36171428D02*
X32138485Y-36133332D01*
X32062295Y-35866666D02*
X32062295Y-35371428D01*
X32062295Y-35371428D02*
X32367057Y-35638094D01*
X32367057Y-35638094D02*
X32367057Y-35523809D01*
X32367057Y-35523809D02*
X32405152Y-35447618D01*
X32405152Y-35447618D02*
X32443247Y-35409523D01*
X32443247Y-35409523D02*
X32519438Y-35371428D01*
X32519438Y-35371428D02*
X32709914Y-35371428D01*
X32709914Y-35371428D02*
X32786104Y-35409523D01*
X32786104Y-35409523D02*
X32824200Y-35447618D01*
X32824200Y-35447618D02*
X32862295Y-35523809D01*
X32862295Y-35523809D02*
X32862295Y-35752380D01*
X32862295Y-35752380D02*
X32824200Y-35828571D01*
X32824200Y-35828571D02*
X32786104Y-35866666D01*
X38733333Y-17562295D02*
X38733333Y-18133723D01*
X38733333Y-18133723D02*
X38695238Y-18248009D01*
X38695238Y-18248009D02*
X38619047Y-18324200D01*
X38619047Y-18324200D02*
X38504762Y-18362295D01*
X38504762Y-18362295D02*
X38428571Y-18362295D01*
X39076190Y-17638485D02*
X39114286Y-17600390D01*
X39114286Y-17600390D02*
X39190476Y-17562295D01*
X39190476Y-17562295D02*
X39380952Y-17562295D01*
X39380952Y-17562295D02*
X39457143Y-17600390D01*
X39457143Y-17600390D02*
X39495238Y-17638485D01*
X39495238Y-17638485D02*
X39533333Y-17714676D01*
X39533333Y-17714676D02*
X39533333Y-17790866D01*
X39533333Y-17790866D02*
X39495238Y-17905152D01*
X39495238Y-17905152D02*
X39038095Y-18362295D01*
X39038095Y-18362295D02*
X39533333Y-18362295D01*
X24983333Y-17312295D02*
X24983333Y-17883723D01*
X24983333Y-17883723D02*
X24945238Y-17998009D01*
X24945238Y-17998009D02*
X24869047Y-18074200D01*
X24869047Y-18074200D02*
X24754762Y-18112295D01*
X24754762Y-18112295D02*
X24678571Y-18112295D01*
X25783333Y-18112295D02*
X25326190Y-18112295D01*
X25554762Y-18112295D02*
X25554762Y-17312295D01*
X25554762Y-17312295D02*
X25478571Y-17426580D01*
X25478571Y-17426580D02*
X25402381Y-17502771D01*
X25402381Y-17502771D02*
X25326190Y-17540866D01*
X29036104Y-35883332D02*
X29074200Y-35921428D01*
X29074200Y-35921428D02*
X29112295Y-36035713D01*
X29112295Y-36035713D02*
X29112295Y-36111904D01*
X29112295Y-36111904D02*
X29074200Y-36226190D01*
X29074200Y-36226190D02*
X28998009Y-36302380D01*
X28998009Y-36302380D02*
X28921819Y-36340475D01*
X28921819Y-36340475D02*
X28769438Y-36378571D01*
X28769438Y-36378571D02*
X28655152Y-36378571D01*
X28655152Y-36378571D02*
X28502771Y-36340475D01*
X28502771Y-36340475D02*
X28426580Y-36302380D01*
X28426580Y-36302380D02*
X28350390Y-36226190D01*
X28350390Y-36226190D02*
X28312295Y-36111904D01*
X28312295Y-36111904D02*
X28312295Y-36035713D01*
X28312295Y-36035713D02*
X28350390Y-35921428D01*
X28350390Y-35921428D02*
X28388485Y-35883332D01*
X28388485Y-35578571D02*
X28350390Y-35540475D01*
X28350390Y-35540475D02*
X28312295Y-35464285D01*
X28312295Y-35464285D02*
X28312295Y-35273809D01*
X28312295Y-35273809D02*
X28350390Y-35197618D01*
X28350390Y-35197618D02*
X28388485Y-35159523D01*
X28388485Y-35159523D02*
X28464676Y-35121428D01*
X28464676Y-35121428D02*
X28540866Y-35121428D01*
X28540866Y-35121428D02*
X28655152Y-35159523D01*
X28655152Y-35159523D02*
X29112295Y-35616666D01*
X29112295Y-35616666D02*
X29112295Y-35121428D01*
X32856104Y-20633332D02*
X32894200Y-20671428D01*
X32894200Y-20671428D02*
X32932295Y-20785713D01*
X32932295Y-20785713D02*
X32932295Y-20861904D01*
X32932295Y-20861904D02*
X32894200Y-20976190D01*
X32894200Y-20976190D02*
X32818009Y-21052380D01*
X32818009Y-21052380D02*
X32741819Y-21090475D01*
X32741819Y-21090475D02*
X32589438Y-21128571D01*
X32589438Y-21128571D02*
X32475152Y-21128571D01*
X32475152Y-21128571D02*
X32322771Y-21090475D01*
X32322771Y-21090475D02*
X32246580Y-21052380D01*
X32246580Y-21052380D02*
X32170390Y-20976190D01*
X32170390Y-20976190D02*
X32132295Y-20861904D01*
X32132295Y-20861904D02*
X32132295Y-20785713D01*
X32132295Y-20785713D02*
X32170390Y-20671428D01*
X32170390Y-20671428D02*
X32208485Y-20633332D01*
X32398961Y-19947618D02*
X32932295Y-19947618D01*
X32094200Y-20138094D02*
X32665628Y-20328571D01*
X32665628Y-20328571D02*
X32665628Y-19833332D01*
X28536104Y-20633332D02*
X28574200Y-20671428D01*
X28574200Y-20671428D02*
X28612295Y-20785713D01*
X28612295Y-20785713D02*
X28612295Y-20861904D01*
X28612295Y-20861904D02*
X28574200Y-20976190D01*
X28574200Y-20976190D02*
X28498009Y-21052380D01*
X28498009Y-21052380D02*
X28421819Y-21090475D01*
X28421819Y-21090475D02*
X28269438Y-21128571D01*
X28269438Y-21128571D02*
X28155152Y-21128571D01*
X28155152Y-21128571D02*
X28002771Y-21090475D01*
X28002771Y-21090475D02*
X27926580Y-21052380D01*
X27926580Y-21052380D02*
X27850390Y-20976190D01*
X27850390Y-20976190D02*
X27812295Y-20861904D01*
X27812295Y-20861904D02*
X27812295Y-20785713D01*
X27812295Y-20785713D02*
X27850390Y-20671428D01*
X27850390Y-20671428D02*
X27888485Y-20633332D01*
X28612295Y-19871428D02*
X28612295Y-20328571D01*
X28612295Y-20099999D02*
X27812295Y-20099999D01*
X27812295Y-20099999D02*
X27926580Y-20176190D01*
X27926580Y-20176190D02*
X28002771Y-20252380D01*
X28002771Y-20252380D02*
X28040866Y-20328571D01*
X30104761Y-23112295D02*
X29723809Y-23112295D01*
X29723809Y-23112295D02*
X29723809Y-22312295D01*
X30371428Y-22693247D02*
X30638094Y-22693247D01*
X30752380Y-23112295D02*
X30371428Y-23112295D01*
X30371428Y-23112295D02*
X30371428Y-22312295D01*
X30371428Y-22312295D02*
X30752380Y-22312295D01*
X31095238Y-23112295D02*
X31095238Y-22312295D01*
X31095238Y-22312295D02*
X31285714Y-22312295D01*
X31285714Y-22312295D02*
X31400000Y-22350390D01*
X31400000Y-22350390D02*
X31476190Y-22426580D01*
X31476190Y-22426580D02*
X31514285Y-22502771D01*
X31514285Y-22502771D02*
X31552381Y-22655152D01*
X31552381Y-22655152D02*
X31552381Y-22769438D01*
X31552381Y-22769438D02*
X31514285Y-22921819D01*
X31514285Y-22921819D02*
X31476190Y-22998009D01*
X31476190Y-22998009D02*
X31400000Y-23074200D01*
X31400000Y-23074200D02*
X31285714Y-23112295D01*
X31285714Y-23112295D02*
X31095238Y-23112295D01*
X32314285Y-23112295D02*
X31857142Y-23112295D01*
X32085714Y-23112295D02*
X32085714Y-22312295D01*
X32085714Y-22312295D02*
X32009523Y-22426580D01*
X32009523Y-22426580D02*
X31933333Y-22502771D01*
X31933333Y-22502771D02*
X31857142Y-22540866D01*
D12*
X36640000Y-36240000D02*
X37750000Y-36240000D01*
X36640000Y-37000000D02*
X36640000Y-36240000D01*
X36640000Y-37760000D02*
X36640000Y-37695000D01*
X36640000Y-37760000D02*
X37186529Y-37760000D01*
X36640000Y-37760000D02*
X38860000Y-37760000D01*
X38313471Y-37760000D02*
X38860000Y-37760000D01*
X38860000Y-37760000D02*
X38860000Y-37695000D01*
X34510000Y-36134420D02*
X34510000Y-36415580D01*
X33490000Y-36134420D02*
X33490000Y-36415580D01*
X41330000Y-21770000D02*
X41330000Y-34530000D01*
X38670000Y-34530000D02*
X41330000Y-34530000D01*
X38670000Y-21770000D02*
X41330000Y-21770000D01*
X38670000Y-21770000D02*
X38670000Y-34530000D01*
X38670000Y-20500000D02*
X38670000Y-19170000D01*
X38670000Y-19170000D02*
X40000000Y-19170000D01*
X22670000Y-18920000D02*
X24000000Y-18920000D01*
X22670000Y-20250000D02*
X22670000Y-18920000D01*
X22670000Y-21520000D02*
X22670000Y-34280000D01*
X22670000Y-21520000D02*
X25330000Y-21520000D01*
X22670000Y-34280000D02*
X25330000Y-34280000D01*
X25330000Y-21520000D02*
X25330000Y-34280000D01*
X40390000Y-36990000D02*
X40390000Y-37055000D01*
X40936529Y-36990000D02*
X40390000Y-36990000D01*
X42610000Y-36990000D02*
X40390000Y-36990000D01*
X42610000Y-36990000D02*
X42063471Y-36990000D01*
X42610000Y-36990000D02*
X42610000Y-37055000D01*
X42610000Y-37750000D02*
X42610000Y-38510000D01*
X42610000Y-38510000D02*
X41500000Y-38510000D01*
X40390000Y-15990000D02*
X41500000Y-15990000D01*
X40390000Y-16750000D02*
X40390000Y-15990000D01*
X40390000Y-17510000D02*
X40390000Y-17445000D01*
X40390000Y-17510000D02*
X40936529Y-17510000D01*
X40390000Y-17510000D02*
X42610000Y-17510000D01*
X42063471Y-17510000D02*
X42610000Y-17510000D01*
X42610000Y-17510000D02*
X42610000Y-17445000D01*
X30490000Y-36134420D02*
X30490000Y-36415580D01*
X31510000Y-36134420D02*
X31510000Y-36415580D01*
X33490000Y-20365580D02*
X33490000Y-20084420D01*
X34510000Y-20365580D02*
X34510000Y-20084420D01*
X21640000Y-36990000D02*
X21640000Y-37055000D01*
X22186529Y-36990000D02*
X21640000Y-36990000D01*
X23860000Y-36990000D02*
X21640000Y-36990000D01*
X23860000Y-36990000D02*
X23313471Y-36990000D01*
X23860000Y-36990000D02*
X23860000Y-37055000D01*
X23860000Y-37750000D02*
X23860000Y-38510000D01*
X23860000Y-38510000D02*
X22750000Y-38510000D01*
X30510000Y-20365580D02*
X30510000Y-20084420D01*
X29490000Y-20365580D02*
X29490000Y-20084420D01*
X21390000Y-15990000D02*
X22500000Y-15990000D01*
X21390000Y-16750000D02*
X21390000Y-15990000D01*
X21390000Y-17510000D02*
X21390000Y-17445000D01*
X21390000Y-17510000D02*
X21936529Y-17510000D01*
X21390000Y-17510000D02*
X23610000Y-17510000D01*
X23063471Y-17510000D02*
X23610000Y-17510000D01*
X23610000Y-17510000D02*
X23610000Y-17445000D01*
D13*
X29650000Y-25150000D02*
X29650000Y-25150000D01*
X29650000Y-25350000D02*
X29650000Y-25350000D01*
D11*
X30300000Y-24500000D02*
X34200000Y-24500000D01*
X30300000Y-32000000D02*
X30300000Y-24500000D01*
X34200000Y-24500000D02*
X34200000Y-32000000D01*
X34200000Y-32000000D02*
X30300000Y-32000000D01*
D13*
X29650000Y-25150000D02*
G75*
G02*
X29650000Y-25350000I0J-100000D01*
G01*
X29650000Y-25350000D02*
G75*
G02*
X29650000Y-25150000I0J100000D01*
G01*
M02*
